G04 Layer: TopSilkLayer*
G04 EasyEDA v6.3.41, 2020-05-05T11:48:15+01:00*
G04 2ec71008dff244c88071119ef016d080,e9fa969840cb4916a94017553220f78b,10*
G04 Gerber Generator version 0.2*
G04 Scale: 100 percent, Rotated: No, Reflected: No *
G04 Dimensions in millimeters *
G04 leading zeros omitted , absolute positions ,3 integer and 3 decimal *
%FSLAX33Y33*%
%MOMM*%
G90*
G71D02*

%ADD10C,0.254000*%
%ADD38C,0.152400*%
%ADD39C,0.127000*%
%ADD40C,0.200000*%
%ADD41C,0.203200*%
%ADD42C,0.202999*%
%ADD43C,0.299999*%
%ADD44C,0.399999*%

%LPD*%

%LPD*%
G36*
G01X28765Y13718D02*
G01X28730Y13732D01*
G01X28709Y13731D01*
G01X28702Y13716D01*
G01X28704Y13663D01*
G01X28710Y13610D01*
G01X28721Y13558D01*
G01X28735Y13505D01*
G01X28754Y13452D01*
G01X28776Y13400D01*
G01X28802Y13348D01*
G01X28832Y13296D01*
G01X28865Y13246D01*
G01X28902Y13196D01*
G01X28942Y13147D01*
G01X28985Y13099D01*
G01X29032Y13052D01*
G01X29082Y13006D01*
G01X29135Y12963D01*
G01X29190Y12920D01*
G01X29249Y12879D01*
G01X29310Y12840D01*
G01X29374Y12802D01*
G01X29440Y12767D01*
G01X29491Y12742D01*
G01X29551Y12715D01*
G01X29617Y12687D01*
G01X29688Y12658D01*
G01X29764Y12628D01*
G01X29843Y12598D01*
G01X29924Y12568D01*
G01X30006Y12539D01*
G01X30170Y12483D01*
G01X30249Y12457D01*
G01X30325Y12433D01*
G01X30397Y12412D01*
G01X30464Y12393D01*
G01X30524Y12377D01*
G01X30577Y12364D01*
G01X30621Y12355D01*
G01X30656Y12349D01*
G01X30681Y12349D01*
G01X30693Y12353D01*
G01X30706Y12370D01*
G01X30712Y12389D01*
G01X30711Y12409D01*
G01X30703Y12431D01*
G01X30688Y12455D01*
G01X30667Y12480D01*
G01X30639Y12507D01*
G01X30604Y12536D01*
G01X30562Y12566D01*
G01X30513Y12598D01*
G01X30458Y12631D01*
G01X30396Y12667D01*
G01X30327Y12704D01*
G01X30251Y12742D01*
G01X30169Y12782D01*
G01X30079Y12823D01*
G01X30025Y12849D01*
G01X29972Y12875D01*
G01X29918Y12902D01*
G01X29865Y12930D01*
G01X29811Y12958D01*
G01X29707Y13018D01*
G01X29656Y13048D01*
G01X29605Y13079D01*
G01X29555Y13111D01*
G01X29506Y13143D01*
G01X29457Y13176D01*
G01X29410Y13209D01*
G01X29363Y13243D01*
G01X29318Y13277D01*
G01X29230Y13345D01*
G01X29188Y13380D01*
G01X29147Y13415D01*
G01X29107Y13450D01*
G01X29019Y13528D01*
G01X28940Y13595D01*
G01X28871Y13648D01*
G01X28812Y13690D01*
G01X28765Y13718D01*
G37*

%LPD*%
G36*
G01X39497Y13730D02*
G01X39484Y13735D01*
G01X39456Y13726D01*
G01X39415Y13702D01*
G01X39362Y13665D01*
G01X39300Y13618D01*
G01X39229Y13560D01*
G01X39153Y13494D01*
G01X39072Y13420D01*
G01X39032Y13383D01*
G01X38991Y13347D01*
G01X38949Y13312D01*
G01X38907Y13276D01*
G01X38819Y13208D01*
G01X38774Y13173D01*
G01X38727Y13140D01*
G01X38681Y13108D01*
G01X38585Y13044D01*
G01X38535Y13013D01*
G01X38486Y12983D01*
G01X38384Y12925D01*
G01X38333Y12897D01*
G01X38281Y12869D01*
G01X38175Y12816D01*
G01X38121Y12791D01*
G01X38027Y12747D01*
G01X37942Y12706D01*
G01X37864Y12667D01*
G01X37795Y12632D01*
G01X37733Y12598D01*
G01X37678Y12567D01*
G01X37632Y12538D01*
G01X37593Y12511D01*
G01X37560Y12486D01*
G01X37535Y12462D01*
G01X37516Y12440D01*
G01X37504Y12420D01*
G01X37498Y12401D01*
G01X37498Y12383D01*
G01X37504Y12367D01*
G01X37517Y12351D01*
G01X37530Y12346D01*
G01X37555Y12346D01*
G01X37591Y12349D01*
G01X37636Y12358D01*
G01X37690Y12369D01*
G01X37751Y12383D01*
G01X37819Y12400D01*
G01X37891Y12420D01*
G01X37968Y12442D01*
G01X38048Y12466D01*
G01X38129Y12491D01*
G01X38212Y12518D01*
G01X38295Y12546D01*
G01X38375Y12574D01*
G01X38454Y12602D01*
G01X38529Y12630D01*
G01X38600Y12658D01*
G01X38665Y12685D01*
G01X38723Y12711D01*
G01X38774Y12735D01*
G01X38836Y12769D01*
G01X38897Y12808D01*
G01X38956Y12850D01*
G01X39015Y12897D01*
G01X39072Y12946D01*
G01X39128Y12998D01*
G01X39181Y13052D01*
G01X39231Y13107D01*
G01X39278Y13165D01*
G01X39322Y13222D01*
G01X39362Y13280D01*
G01X39398Y13338D01*
G01X39429Y13395D01*
G01X39456Y13450D01*
G01X39478Y13504D01*
G01X39494Y13556D01*
G01X39504Y13605D01*
G01X39508Y13650D01*
G01X39506Y13693D01*
G01X39497Y13730D01*
G37*

%LPD*%
G36*
G01X39354Y12860D02*
G01X39322Y12864D01*
G01X39305Y12860D01*
G01X39277Y12849D01*
G01X39237Y12832D01*
G01X39190Y12811D01*
G01X39134Y12785D01*
G01X39073Y12755D01*
G01X39009Y12723D01*
G01X38941Y12688D01*
G01X38905Y12670D01*
G01X38864Y12651D01*
G01X38819Y12630D01*
G01X38771Y12609D01*
G01X38719Y12588D01*
G01X38665Y12566D01*
G01X38609Y12544D01*
G01X38551Y12521D01*
G01X38431Y12477D01*
G01X38370Y12456D01*
G01X38310Y12435D01*
G01X38249Y12415D01*
G01X38190Y12396D01*
G01X38133Y12378D01*
G01X38076Y12361D01*
G01X38003Y12339D01*
G01X37931Y12316D01*
G01X37860Y12292D01*
G01X37792Y12267D01*
G01X37728Y12242D01*
G01X37667Y12218D01*
G01X37611Y12194D01*
G01X37562Y12171D01*
G01X37518Y12148D01*
G01X37482Y12128D01*
G01X37453Y12109D01*
G01X37434Y12092D01*
G01X37402Y12057D01*
G01X37385Y12030D01*
G01X37385Y12012D01*
G01X37407Y12000D01*
G01X37452Y11996D01*
G01X37524Y11996D01*
G01X37627Y12003D01*
G01X37762Y12013D01*
G01X37831Y12019D01*
G01X37900Y12027D01*
G01X37969Y12037D01*
G01X38039Y12048D01*
G01X38108Y12061D01*
G01X38177Y12076D01*
G01X38246Y12093D01*
G01X38313Y12111D01*
G01X38380Y12130D01*
G01X38446Y12150D01*
G01X38511Y12172D01*
G01X38574Y12195D01*
G01X38636Y12219D01*
G01X38697Y12244D01*
G01X38755Y12270D01*
G01X38812Y12297D01*
G01X38866Y12325D01*
G01X38917Y12354D01*
G01X38967Y12384D01*
G01X39014Y12414D01*
G01X39058Y12445D01*
G01X39099Y12476D01*
G01X39136Y12508D01*
G01X39171Y12541D01*
G01X39237Y12611D01*
G01X39291Y12674D01*
G01X39332Y12730D01*
G01X39359Y12777D01*
G01X39372Y12815D01*
G01X39371Y12843D01*
G01X39354Y12860D01*
G37*

%LPD*%
G36*
G01X28907Y12857D02*
G01X28868Y12864D01*
G01X28844Y12863D01*
G01X28836Y12853D01*
G01X28841Y12834D01*
G01X28856Y12806D01*
G01X28879Y12771D01*
G01X28910Y12730D01*
G01X28947Y12684D01*
G01X28991Y12634D01*
G01X29038Y12583D01*
G01X29089Y12530D01*
G01X29127Y12495D01*
G01X29169Y12460D01*
G01X29214Y12425D01*
G01X29263Y12391D01*
G01X29315Y12358D01*
G01X29370Y12325D01*
G01X29427Y12294D01*
G01X29487Y12264D01*
G01X29548Y12234D01*
G01X29612Y12206D01*
G01X29677Y12179D01*
G01X29744Y12154D01*
G01X29812Y12131D01*
G01X29881Y12108D01*
G01X29950Y12088D01*
G01X30019Y12069D01*
G01X30089Y12052D01*
G01X30159Y12038D01*
G01X30228Y12024D01*
G01X30297Y12014D01*
G01X30364Y12006D01*
G01X30431Y11999D01*
G01X30496Y11995D01*
G01X30560Y11994D01*
G01X30624Y11995D01*
G01X30681Y11998D01*
G01X30727Y12003D01*
G01X30766Y12010D01*
G01X30795Y12019D01*
G01X30817Y12029D01*
G01X30829Y12042D01*
G01X30833Y12055D01*
G01X30828Y12071D01*
G01X30815Y12088D01*
G01X30794Y12107D01*
G01X30764Y12127D01*
G01X30726Y12148D01*
G01X30681Y12171D01*
G01X30626Y12196D01*
G01X30564Y12221D01*
G01X30493Y12247D01*
G01X30415Y12275D01*
G01X30329Y12304D01*
G01X30234Y12334D01*
G01X30174Y12353D01*
G01X30111Y12373D01*
G01X30046Y12395D01*
G01X29980Y12418D01*
G01X29913Y12442D01*
G01X29845Y12467D01*
G01X29776Y12493D01*
G01X29709Y12519D01*
G01X29643Y12545D01*
G01X29578Y12571D01*
G01X29515Y12597D01*
G01X29455Y12622D01*
G01X29398Y12647D01*
G01X29344Y12671D01*
G01X29294Y12694D01*
G01X29249Y12716D01*
G01X29166Y12756D01*
G01X29089Y12791D01*
G01X29018Y12820D01*
G01X28957Y12842D01*
G01X28907Y12857D01*
G37*

%LPD*%
G36*
G01X30967Y12716D02*
G01X30782Y12892D01*
G01X30782Y12718D01*
G01X30783Y12685D01*
G01X30787Y12652D01*
G01X30794Y12620D01*
G01X30805Y12588D01*
G01X30817Y12557D01*
G01X30834Y12527D01*
G01X30852Y12497D01*
G01X30875Y12467D01*
G01X30900Y12438D01*
G01X30929Y12409D01*
G01X30961Y12380D01*
G01X30997Y12352D01*
G01X31036Y12324D01*
G01X31079Y12296D01*
G01X31125Y12268D01*
G01X31175Y12241D01*
G01X31229Y12213D01*
G01X31286Y12185D01*
G01X31348Y12157D01*
G01X31413Y12130D01*
G01X31483Y12102D01*
G01X31556Y12074D01*
G01X31634Y12046D01*
G01X31716Y12018D01*
G01X31802Y11989D01*
G01X31893Y11960D01*
G01X31988Y11931D01*
G01X32087Y11901D01*
G01X32170Y11877D01*
G01X32249Y11855D01*
G01X32325Y11834D01*
G01X32396Y11815D01*
G01X32464Y11797D01*
G01X32529Y11782D01*
G01X32589Y11767D01*
G01X32646Y11754D01*
G01X32698Y11743D01*
G01X32747Y11733D01*
G01X32791Y11725D01*
G01X32832Y11719D01*
G01X32868Y11713D01*
G01X32900Y11710D01*
G01X32928Y11708D01*
G01X32951Y11707D01*
G01X32970Y11708D01*
G01X32985Y11710D01*
G01X32996Y11714D01*
G01X33001Y11720D01*
G01X33003Y11726D01*
G01X32999Y11734D01*
G01X32991Y11743D01*
G01X32978Y11754D01*
G01X32961Y11766D01*
G01X32939Y11780D01*
G01X32912Y11795D01*
G01X32880Y11811D01*
G01X32843Y11829D01*
G01X32801Y11848D01*
G01X32754Y11867D01*
G01X32703Y11889D01*
G01X32645Y11912D01*
G01X32583Y11935D01*
G01X32516Y11961D01*
G01X32442Y11987D01*
G01X32359Y12017D01*
G01X32278Y12047D01*
G01X32200Y12076D01*
G01X32124Y12105D01*
G01X32051Y12134D01*
G01X31980Y12162D01*
G01X31912Y12189D01*
G01X31846Y12217D01*
G01X31782Y12244D01*
G01X31720Y12271D01*
G01X31661Y12297D01*
G01X31604Y12323D01*
G01X31549Y12349D01*
G01X31496Y12375D01*
G01X31446Y12400D01*
G01X31397Y12425D01*
G01X31351Y12450D01*
G01X31306Y12475D01*
G01X31264Y12500D01*
G01X31223Y12524D01*
G01X31185Y12549D01*
G01X31148Y12573D01*
G01X31113Y12597D01*
G01X31080Y12621D01*
G01X31049Y12645D01*
G01X31020Y12669D01*
G01X30993Y12692D01*
G01X30967Y12716D01*
G37*

%LPD*%
G36*
G01X37460Y12847D02*
G01X37440Y12862D01*
G01X37412Y12861D01*
G01X37377Y12844D01*
G01X37335Y12812D01*
G01X37289Y12763D01*
G01X37266Y12736D01*
G01X37216Y12684D01*
G01X37188Y12658D01*
G01X37158Y12633D01*
G01X37126Y12608D01*
G01X37092Y12583D01*
G01X37056Y12557D01*
G01X37016Y12532D01*
G01X36975Y12506D01*
G01X36931Y12481D01*
G01X36884Y12455D01*
G01X36834Y12429D01*
G01X36780Y12402D01*
G01X36724Y12375D01*
G01X36664Y12347D01*
G01X36600Y12319D01*
G01X36533Y12289D01*
G01X36462Y12259D01*
G01X36387Y12228D01*
G01X36307Y12196D01*
G01X36223Y12163D01*
G01X36136Y12129D01*
G01X36043Y12093D01*
G01X35900Y12039D01*
G01X35774Y11991D01*
G01X35663Y11948D01*
G01X35567Y11910D01*
G01X35484Y11877D01*
G01X35414Y11848D01*
G01X35356Y11822D01*
G01X35309Y11800D01*
G01X35272Y11781D01*
G01X35245Y11764D01*
G01X35225Y11749D01*
G01X35214Y11736D01*
G01X35208Y11724D01*
G01X35209Y11712D01*
G01X35215Y11701D01*
G01X35225Y11690D01*
G01X35234Y11687D01*
G01X35252Y11687D01*
G01X35278Y11689D01*
G01X35312Y11694D01*
G01X35353Y11702D01*
G01X35400Y11711D01*
G01X35454Y11723D01*
G01X35512Y11736D01*
G01X35576Y11751D01*
G01X35714Y11786D01*
G01X35788Y11805D01*
G01X35864Y11825D01*
G01X35942Y11847D01*
G01X36021Y11868D01*
G01X36181Y11914D01*
G01X36260Y11936D01*
G01X36338Y11960D01*
G01X36414Y11983D01*
G01X36488Y12006D01*
G01X36559Y12028D01*
G01X36626Y12050D01*
G01X36690Y12071D01*
G01X36748Y12091D01*
G01X36802Y12111D01*
G01X36849Y12129D01*
G01X36889Y12145D01*
G01X36955Y12176D01*
G01X37019Y12211D01*
G01X37081Y12251D01*
G01X37140Y12294D01*
G01X37196Y12340D01*
G01X37248Y12390D01*
G01X37295Y12441D01*
G01X37339Y12494D01*
G01X37377Y12549D01*
G01X37410Y12604D01*
G01X37437Y12660D01*
G01X37456Y12716D01*
G01X37470Y12774D01*
G01X37471Y12818D01*
G01X37460Y12847D01*
G37*

%LPD*%
G36*
G01X31086Y12046D02*
G01X31048Y12051D01*
G01X31024Y12048D01*
G01X31011Y12038D01*
G01X31009Y12021D01*
G01X31016Y11997D01*
G01X31030Y11966D01*
G01X31049Y11928D01*
G01X31075Y11886D01*
G01X31105Y11847D01*
G01X31138Y11811D01*
G01X31175Y11779D01*
G01X31216Y11751D01*
G01X31260Y11727D01*
G01X31308Y11706D01*
G01X31359Y11689D01*
G01X31414Y11676D01*
G01X31473Y11667D01*
G01X31535Y11661D01*
G01X31600Y11660D01*
G01X31675Y11661D01*
G01X31739Y11665D01*
G01X31793Y11671D01*
G01X31836Y11679D01*
G01X31869Y11689D01*
G01X31891Y11701D01*
G01X31902Y11715D01*
G01X31903Y11731D01*
G01X31894Y11748D01*
G01X31873Y11767D01*
G01X31842Y11788D01*
G01X31801Y11811D01*
G01X31750Y11834D01*
G01X31688Y11860D01*
G01X31615Y11886D01*
G01X31532Y11914D01*
G01X31404Y11955D01*
G01X31296Y11989D01*
G01X31208Y12015D01*
G01X31139Y12035D01*
G01X31086Y12046D01*
G37*

%LPD*%
G36*
G01X37180Y12051D02*
G01X37151Y12052D01*
G01X37113Y12048D01*
G01X37067Y12040D01*
G01X37011Y12025D01*
G01X36944Y12006D01*
G01X36865Y11982D01*
G01X36775Y11952D01*
G01X36671Y11916D01*
G01X36596Y11889D01*
G01X36530Y11862D01*
G01X36474Y11837D01*
G01X36427Y11813D01*
G01X36390Y11791D01*
G01X36362Y11769D01*
G01X36344Y11750D01*
G01X36336Y11732D01*
G01X36337Y11716D01*
G01X36347Y11701D01*
G01X36368Y11689D01*
G01X36398Y11678D01*
G01X36438Y11670D01*
G01X36488Y11664D01*
G01X36547Y11660D01*
G01X36616Y11659D01*
G01X36680Y11663D01*
G01X36747Y11674D01*
G01X36815Y11692D01*
G01X36884Y11716D01*
G01X36950Y11744D01*
G01X37013Y11777D01*
G01X37071Y11812D01*
G01X37122Y11849D01*
G01X37165Y11887D01*
G01X37197Y11926D01*
G01X37218Y11963D01*
G01X37225Y11999D01*
G01X37223Y12019D01*
G01X37215Y12034D01*
G01X37200Y12045D01*
G01X37180Y12051D01*
G37*

%LPD*%
G36*
G01X38834Y12040D02*
G01X38836Y12051D01*
G01X38824Y12049D01*
G01X38799Y12045D01*
G01X38761Y12039D01*
G01X38713Y12032D01*
G01X38653Y12023D01*
G01X38585Y12013D01*
G01X38507Y12002D01*
G01X38423Y11989D01*
G01X38332Y11976D01*
G01X38235Y11962D01*
G01X38134Y11947D01*
G01X38028Y11932D01*
G01X37923Y11916D01*
G01X37821Y11900D01*
G01X37722Y11884D01*
G01X37628Y11868D01*
G01X37540Y11853D01*
G01X37458Y11837D01*
G01X37385Y11823D01*
G01X37320Y11809D01*
G01X37266Y11797D01*
G01X37223Y11786D01*
G01X37191Y11776D01*
G01X37173Y11768D01*
G01X37133Y11741D01*
G01X37106Y11716D01*
G01X37092Y11692D01*
G01X37091Y11671D01*
G01X37103Y11653D01*
G01X37128Y11637D01*
G01X37166Y11623D01*
G01X37216Y11612D01*
G01X37279Y11603D01*
G01X37355Y11597D01*
G01X37443Y11593D01*
G01X37544Y11592D01*
G01X37626Y11593D01*
G01X37705Y11595D01*
G01X37781Y11598D01*
G01X37854Y11603D01*
G01X37924Y11609D01*
G01X37991Y11617D01*
G01X38056Y11627D01*
G01X38118Y11638D01*
G01X38177Y11650D01*
G01X38234Y11664D01*
G01X38288Y11679D01*
G01X38340Y11697D01*
G01X38390Y11716D01*
G01X38438Y11736D01*
G01X38484Y11758D01*
G01X38527Y11782D01*
G01X38569Y11807D01*
G01X38609Y11834D01*
G01X38648Y11864D01*
G01X38685Y11894D01*
G01X38754Y11957D01*
G01X38805Y12008D01*
G01X38834Y12040D01*
G37*

%LPD*%
G36*
G01X30151Y11930D02*
G01X29352Y12039D01*
G01X29530Y11885D01*
G01X29567Y11856D01*
G01X29605Y11828D01*
G01X29644Y11801D01*
G01X29686Y11776D01*
G01X29730Y11754D01*
G01X29775Y11732D01*
G01X29823Y11712D01*
G01X29873Y11694D01*
G01X29925Y11677D01*
G01X29979Y11663D01*
G01X30036Y11649D01*
G01X30095Y11637D01*
G01X30157Y11626D01*
G01X30221Y11617D01*
G01X30288Y11609D01*
G01X30358Y11603D01*
G01X30430Y11598D01*
G01X30505Y11595D01*
G01X30584Y11593D01*
G01X30664Y11592D01*
G01X30766Y11593D01*
G01X30854Y11597D01*
G01X30930Y11603D01*
G01X30993Y11612D01*
G01X31043Y11623D01*
G01X31080Y11637D01*
G01X31105Y11653D01*
G01X31117Y11672D01*
G01X31116Y11693D01*
G01X31101Y11716D01*
G01X31074Y11742D01*
G01X31034Y11770D01*
G01X31021Y11776D01*
G01X31001Y11783D01*
G01X30973Y11790D01*
G01X30938Y11799D01*
G01X30897Y11808D01*
G01X30850Y11818D01*
G01X30798Y11828D01*
G01X30740Y11838D01*
G01X30678Y11850D01*
G01X30611Y11861D01*
G01X30541Y11872D01*
G01X30468Y11884D01*
G01X30392Y11896D01*
G01X30313Y11908D01*
G01X30233Y11919D01*
G01X30151Y11930D01*
G37*

%LPD*%
G36*
G01X32243Y11651D02*
G01X32149Y11653D01*
G01X32106Y11650D01*
G01X32057Y11645D01*
G01X32005Y11638D01*
G01X31949Y11630D01*
G01X31893Y11619D01*
G01X31838Y11608D01*
G01X31786Y11596D01*
G01X31738Y11583D01*
G01X31653Y11557D01*
G01X31590Y11534D01*
G01X31550Y11512D01*
G01X31532Y11490D01*
G01X31535Y11470D01*
G01X31560Y11448D01*
G01X31605Y11424D01*
G01X31671Y11397D01*
G01X31716Y11384D01*
G01X31766Y11378D01*
G01X31819Y11376D01*
G01X31873Y11380D01*
G01X31930Y11389D01*
G01X31986Y11403D01*
G01X32041Y11420D01*
G01X32094Y11442D01*
G01X32144Y11468D01*
G01X32189Y11497D01*
G01X32229Y11529D01*
G01X32263Y11563D01*
G01X32295Y11611D01*
G01X32291Y11639D01*
G01X32243Y11651D01*
G37*

%LPD*%
G36*
G01X36003Y11657D02*
G01X35951Y11659D01*
G01X35917Y11656D01*
G01X35901Y11646D01*
G01X35899Y11630D01*
G01X35912Y11607D01*
G01X35935Y11576D01*
G01X35977Y11532D01*
G01X36023Y11491D01*
G01X36074Y11456D01*
G01X36127Y11425D01*
G01X36183Y11400D01*
G01X36241Y11380D01*
G01X36298Y11366D01*
G01X36355Y11358D01*
G01X36411Y11356D01*
G01X36464Y11361D01*
G01X36513Y11374D01*
G01X36558Y11392D01*
G01X36633Y11437D01*
G01X36664Y11470D01*
G01X36653Y11499D01*
G01X36603Y11533D01*
G01X36575Y11546D01*
G01X36536Y11560D01*
G01X36488Y11574D01*
G01X36433Y11588D01*
G01X36372Y11602D01*
G01X36307Y11615D01*
G01X36240Y11627D01*
G01X36173Y11637D01*
G01X36077Y11649D01*
G01X36003Y11657D01*
G37*

%LPD*%
G36*
G01X30736Y11490D02*
G01X30647Y11491D01*
G01X30495Y11490D01*
G01X30369Y11490D01*
G01X30266Y11488D01*
G01X30185Y11486D01*
G01X30125Y11481D01*
G01X30083Y11474D01*
G01X30057Y11465D01*
G01X30046Y11451D01*
G01X30048Y11435D01*
G01X30060Y11415D01*
G01X30082Y11390D01*
G01X30112Y11360D01*
G01X30139Y11337D01*
G01X30175Y11315D01*
G01X30216Y11295D01*
G01X30265Y11277D01*
G01X30318Y11260D01*
G01X30376Y11245D01*
G01X30439Y11232D01*
G01X30504Y11220D01*
G01X30572Y11211D01*
G01X30642Y11203D01*
G01X30713Y11198D01*
G01X30784Y11195D01*
G01X30855Y11193D01*
G01X30925Y11195D01*
G01X30992Y11198D01*
G01X31058Y11204D01*
G01X31120Y11212D01*
G01X31178Y11223D01*
G01X31231Y11236D01*
G01X31280Y11253D01*
G01X31321Y11270D01*
G01X31357Y11287D01*
G01X31386Y11303D01*
G01X31409Y11319D01*
G01X31425Y11334D01*
G01X31436Y11349D01*
G01X31440Y11362D01*
G01X31439Y11376D01*
G01X31430Y11389D01*
G01X31417Y11402D01*
G01X31398Y11413D01*
G01X31373Y11424D01*
G01X31342Y11434D01*
G01X31306Y11444D01*
G01X31263Y11452D01*
G01X31216Y11460D01*
G01X31163Y11467D01*
G01X31105Y11473D01*
G01X31041Y11478D01*
G01X30972Y11483D01*
G01X30899Y11486D01*
G01X30819Y11489D01*
G01X30736Y11490D01*
G37*

%LPD*%
G36*
G01X37336Y11481D02*
G01X37259Y11482D01*
G01X37188Y11481D01*
G01X37123Y11479D01*
G01X37065Y11475D01*
G01X37012Y11470D01*
G01X36965Y11463D01*
G01X36925Y11455D01*
G01X36891Y11445D01*
G01X36863Y11434D01*
G01X36842Y11421D01*
G01X36786Y11376D01*
G01X36771Y11342D01*
G01X36800Y11308D01*
G01X36873Y11265D01*
G01X36909Y11248D01*
G01X36952Y11234D01*
G01X37001Y11221D01*
G01X37056Y11211D01*
G01X37114Y11203D01*
G01X37176Y11196D01*
G01X37242Y11192D01*
G01X37310Y11190D01*
G01X37380Y11189D01*
G01X37450Y11190D01*
G01X37521Y11194D01*
G01X37592Y11199D01*
G01X37661Y11205D01*
G01X37728Y11214D01*
G01X37792Y11225D01*
G01X37853Y11237D01*
G01X37911Y11251D01*
G01X37963Y11266D01*
G01X38010Y11284D01*
G01X38050Y11303D01*
G01X38093Y11326D01*
G01X38129Y11346D01*
G01X38158Y11364D01*
G01X38178Y11380D01*
G01X38189Y11393D01*
G01X38190Y11405D01*
G01X38181Y11415D01*
G01X38161Y11424D01*
G01X38128Y11432D01*
G01X38083Y11439D01*
G01X38025Y11446D01*
G01X37953Y11451D01*
G01X37866Y11457D01*
G01X37763Y11463D01*
G01X37644Y11469D01*
G01X37508Y11476D01*
G01X37419Y11479D01*
G01X37336Y11481D01*
G37*

%LPD*%
G36*
G01X35657Y11584D02*
G01X35625Y11589D01*
G01X35601Y11586D01*
G01X35586Y11576D01*
G01X35580Y11558D01*
G01X35582Y11533D01*
G01X35594Y11500D01*
G01X35613Y11459D01*
G01X35650Y11402D01*
G01X35696Y11349D01*
G01X35748Y11304D01*
G01X35807Y11264D01*
G01X35871Y11232D01*
G01X35938Y11209D01*
G01X36009Y11194D01*
G01X36080Y11189D01*
G01X36127Y11191D01*
G01X36164Y11196D01*
G01X36190Y11206D01*
G01X36206Y11219D01*
G01X36211Y11236D01*
G01X36206Y11256D01*
G01X36190Y11280D01*
G01X36165Y11307D01*
G01X36128Y11337D01*
G01X36081Y11370D01*
G01X36024Y11406D01*
G01X35957Y11445D01*
G01X35879Y11488D01*
G01X35809Y11523D01*
G01X35749Y11551D01*
G01X35699Y11572D01*
G01X35657Y11584D01*
G37*

%LPD*%
G36*
G01X32603Y11584D02*
G01X32546Y11587D01*
G01X32483Y11574D01*
G01X32398Y11541D01*
G01X32303Y11494D01*
G01X32209Y11436D01*
G01X32125Y11377D01*
G01X32063Y11326D01*
G01X32021Y11283D01*
G01X32001Y11249D01*
G01X32001Y11222D01*
G01X32023Y11203D01*
G01X32065Y11192D01*
G01X32128Y11189D01*
G01X32200Y11194D01*
G01X32270Y11209D01*
G01X32337Y11232D01*
G01X32401Y11264D01*
G01X32460Y11304D01*
G01X32513Y11349D01*
G01X32558Y11402D01*
G01X32595Y11459D01*
G01X32626Y11526D01*
G01X32629Y11565D01*
G01X32603Y11584D01*
G37*

%LPD*%
G36*
G01X35403Y11517D02*
G01X35377Y11517D01*
G01X35359Y11503D01*
G01X35349Y11475D01*
G01X35346Y11434D01*
G01X35355Y11390D01*
G01X35381Y11340D01*
G01X35419Y11288D01*
G01X35466Y11237D01*
G01X35518Y11192D01*
G01X35572Y11155D01*
G01X35624Y11131D01*
G01X35670Y11122D01*
G01X35708Y11126D01*
G01X35733Y11139D01*
G01X35744Y11161D01*
G01X35741Y11190D01*
G01X35724Y11227D01*
G01X35694Y11271D01*
G01X35650Y11321D01*
G01X35593Y11378D01*
G01X35531Y11434D01*
G01X35479Y11476D01*
G01X35436Y11504D01*
G01X35403Y11517D01*
G37*

%LPD*%
G36*
G01X32833Y11538D02*
G01X32797Y11542D01*
G01X32738Y11500D01*
G01X32645Y11408D01*
G01X32576Y11334D01*
G01X32524Y11273D01*
G01X32489Y11223D01*
G01X32470Y11185D01*
G01X32467Y11156D01*
G01X32479Y11136D01*
G01X32507Y11125D01*
G01X32550Y11122D01*
G01X32602Y11132D01*
G01X32656Y11161D01*
G01X32710Y11204D01*
G01X32760Y11258D01*
G01X32803Y11317D01*
G01X32834Y11379D01*
G01X32852Y11438D01*
G01X32852Y11490D01*
G01X32833Y11538D01*
G37*

%LPD*%
G36*
G01X31657Y11245D02*
G01X31618Y11247D01*
G01X31572Y11244D01*
G01X31519Y11235D01*
G01X31457Y11220D01*
G01X31388Y11200D01*
G01X31310Y11174D01*
G01X31222Y11142D01*
G01X31124Y11104D01*
G01X31007Y11058D01*
G01X30920Y11022D01*
G01X30864Y10994D01*
G01X30834Y10972D01*
G01X30828Y10954D01*
G01X30846Y10938D01*
G01X30885Y10920D01*
G01X30942Y10900D01*
G01X30993Y10886D01*
G01X31046Y10877D01*
G01X31103Y10872D01*
G01X31161Y10871D01*
G01X31221Y10874D01*
G01X31282Y10880D01*
G01X31342Y10890D01*
G01X31401Y10902D01*
G01X31458Y10917D01*
G01X31512Y10935D01*
G01X31564Y10954D01*
G01X31611Y10976D01*
G01X31655Y10999D01*
G01X31692Y11023D01*
G01X31723Y11049D01*
G01X31747Y11075D01*
G01X31763Y11102D01*
G01X31771Y11130D01*
G01X31769Y11157D01*
G01X31758Y11184D01*
G01X31740Y11208D01*
G01X31717Y11225D01*
G01X31690Y11238D01*
G01X31657Y11245D01*
G37*

%LPD*%
G36*
G01X36610Y11223D02*
G01X36569Y11223D01*
G01X36533Y11218D01*
G01X36503Y11210D01*
G01X36458Y11188D01*
G01X36432Y11164D01*
G01X36425Y11137D01*
G01X36437Y11108D01*
G01X36468Y11075D01*
G01X36520Y11039D01*
G01X36592Y11000D01*
G01X36684Y10956D01*
G01X36754Y10927D01*
G01X36820Y10903D01*
G01X36884Y10886D01*
G01X36946Y10875D01*
G01X37008Y10870D01*
G01X37071Y10870D01*
G01X37136Y10876D01*
G01X37204Y10886D01*
G01X37460Y10937D01*
G01X37191Y11052D01*
G01X37110Y11086D01*
G01X37032Y11117D01*
G01X36958Y11143D01*
G01X36889Y11166D01*
G01X36823Y11185D01*
G01X36763Y11200D01*
G01X36707Y11212D01*
G01X36656Y11219D01*
G01X36610Y11223D01*
G37*

%LPD*%
G36*
G01X36260Y11046D02*
G01X36215Y11051D01*
G01X36177Y11043D01*
G01X36146Y11024D01*
G01X36121Y10993D01*
G01X36115Y10967D01*
G01X36124Y10936D01*
G01X36146Y10901D01*
G01X36178Y10864D01*
G01X36220Y10825D01*
G01X36269Y10788D01*
G01X36322Y10752D01*
G01X36379Y10720D01*
G01X36437Y10692D01*
G01X36493Y10671D01*
G01X36548Y10657D01*
G01X36596Y10652D01*
G01X36667Y10655D01*
G01X36715Y10666D01*
G01X36741Y10684D01*
G01X36744Y10711D01*
G01X36725Y10745D01*
G01X36684Y10789D01*
G01X36619Y10841D01*
G01X36532Y10904D01*
G01X36449Y10958D01*
G01X36376Y11000D01*
G01X36313Y11029D01*
G01X36260Y11046D01*
G37*

%LPD*%
G36*
G01X32062Y11045D02*
G01X32029Y11050D01*
G01X31991Y11049D01*
G01X31947Y11040D01*
G01X31899Y11026D01*
G01X31847Y11005D01*
G01X31791Y10977D01*
G01X31732Y10944D01*
G01X31671Y10904D01*
G01X31588Y10842D01*
G01X31526Y10790D01*
G01X31485Y10747D01*
G01X31465Y10712D01*
G01X31465Y10685D01*
G01X31486Y10666D01*
G01X31528Y10655D01*
G01X31590Y10652D01*
G01X31643Y10656D01*
G01X31700Y10666D01*
G01X31759Y10683D01*
G01X31819Y10705D01*
G01X31877Y10732D01*
G01X31933Y10761D01*
G01X31985Y10792D01*
G01X32031Y10826D01*
G01X32069Y10860D01*
G01X32098Y10893D01*
G01X32118Y10926D01*
G01X32124Y10956D01*
G01X32120Y10988D01*
G01X32108Y11014D01*
G01X32088Y11033D01*
G01X32062Y11045D01*
G37*

%LPD*%
G36*
G01X30284Y11107D02*
G01X30235Y11107D01*
G01X30179Y11103D01*
G01X30113Y11095D01*
G01X30036Y11082D01*
G01X29946Y11065D01*
G01X29842Y11043D01*
G01X29808Y11037D01*
G01X29767Y11030D01*
G01X29721Y11024D01*
G01X29669Y11018D01*
G01X29612Y11012D01*
G01X29552Y11006D01*
G01X29487Y11000D01*
G01X29420Y10995D01*
G01X29350Y10990D01*
G01X29278Y10985D01*
G01X29203Y10981D01*
G01X29129Y10977D01*
G01X28977Y10971D01*
G01X28902Y10969D01*
G01X28829Y10967D01*
G01X28700Y10964D01*
G01X28589Y10961D01*
G01X28493Y10957D01*
G01X28411Y10952D01*
G01X28344Y10947D01*
G01X28291Y10941D01*
G01X28251Y10934D01*
G01X28223Y10925D01*
G01X28207Y10916D01*
G01X28203Y10905D01*
G01X28208Y10893D01*
G01X28224Y10879D01*
G01X28259Y10857D01*
G01X28296Y10836D01*
G01X28336Y10815D01*
G01X28378Y10796D01*
G01X28423Y10777D01*
G01X28469Y10760D01*
G01X28517Y10744D01*
G01X28567Y10728D01*
G01X28620Y10714D01*
G01X28674Y10701D01*
G01X28728Y10689D01*
G01X28785Y10678D01*
G01X28843Y10668D01*
G01X28903Y10659D01*
G01X28963Y10651D01*
G01X29024Y10644D01*
G01X29086Y10639D01*
G01X29149Y10634D01*
G01X29212Y10631D01*
G01X29340Y10627D01*
G01X29405Y10628D01*
G01X29469Y10629D01*
G01X29534Y10631D01*
G01X29599Y10635D01*
G01X29663Y10640D01*
G01X29727Y10646D01*
G01X29791Y10653D01*
G01X29854Y10661D01*
G01X29917Y10670D01*
G01X29978Y10681D01*
G01X30039Y10693D01*
G01X30099Y10706D01*
G01X30157Y10720D01*
G01X30215Y10736D01*
G01X30271Y10753D01*
G01X30666Y10877D01*
G01X30515Y10999D01*
G01X30476Y11030D01*
G01X30439Y11056D01*
G01X30403Y11076D01*
G01X30367Y11091D01*
G01X30328Y11101D01*
G01X30284Y11107D01*
G37*

%LPD*%
G36*
G01X38092Y11054D02*
G01X38026Y11055D01*
G01X37966Y11054D01*
G01X37913Y11051D01*
G01X37867Y11047D01*
G01X37828Y11041D01*
G01X37797Y11033D01*
G01X37749Y11015D01*
G01X37711Y10997D01*
G01X37682Y10979D01*
G01X37662Y10960D01*
G01X37651Y10941D01*
G01X37649Y10921D01*
G01X37657Y10901D01*
G01X37673Y10880D01*
G01X37699Y10859D01*
G01X37734Y10838D01*
G01X37778Y10815D01*
G01X37831Y10793D01*
G01X37894Y10770D01*
G01X37965Y10747D01*
G01X38046Y10723D01*
G01X38136Y10698D01*
G01X38198Y10683D01*
G01X38260Y10669D01*
G01X38323Y10656D01*
G01X38385Y10645D01*
G01X38448Y10635D01*
G01X38511Y10626D01*
G01X38575Y10619D01*
G01X38638Y10613D01*
G01X38764Y10605D01*
G01X38827Y10603D01*
G01X38889Y10602D01*
G01X38951Y10603D01*
G01X39073Y10609D01*
G01X39193Y10619D01*
G01X39252Y10627D01*
G01X39309Y10635D01*
G01X39366Y10645D01*
G01X39422Y10656D01*
G01X39476Y10669D01*
G01X39530Y10683D01*
G01X39581Y10697D01*
G01X39632Y10714D01*
G01X39681Y10732D01*
G01X39729Y10750D01*
G01X39775Y10771D01*
G01X40077Y10909D01*
G01X39641Y10919D01*
G01X39594Y10920D01*
G01X39541Y10923D01*
G01X39484Y10926D01*
G01X39423Y10930D01*
G01X39359Y10934D01*
G01X39292Y10939D01*
G01X39223Y10944D01*
G01X39152Y10950D01*
G01X39080Y10957D01*
G01X39007Y10963D01*
G01X38935Y10970D01*
G01X38791Y10986D01*
G01X38721Y10994D01*
G01X38654Y11002D01*
G01X38589Y11010D01*
G01X38496Y11022D01*
G01X38407Y11032D01*
G01X38321Y11040D01*
G01X38240Y11046D01*
G01X38164Y11051D01*
G01X38092Y11054D01*
G37*

%LPD*%
G36*
G01X32419Y10919D02*
G01X32374Y10923D01*
G01X32318Y10913D01*
G01X32256Y10891D01*
G01X32192Y10857D01*
G01X32130Y10812D01*
G01X32075Y10758D01*
G01X32023Y10692D01*
G01X31985Y10633D01*
G01X31966Y10588D01*
G01X31968Y10561D01*
G01X31995Y10549D01*
G01X32032Y10548D01*
G01X32078Y10558D01*
G01X32131Y10577D01*
G01X32187Y10603D01*
G01X32244Y10635D01*
G01X32299Y10672D01*
G01X32350Y10711D01*
G01X32394Y10752D01*
G01X32429Y10791D01*
G01X32452Y10830D01*
G01X32460Y10864D01*
G01X32449Y10900D01*
G01X32419Y10919D01*
G37*

%LPD*%
G36*
G01X35908Y10906D02*
G01X35832Y10917D01*
G01X35772Y10904D01*
G01X35748Y10866D01*
G01X35757Y10819D01*
G01X35779Y10771D01*
G01X35815Y10723D01*
G01X35862Y10677D01*
G01X35917Y10634D01*
G01X35980Y10597D01*
G01X36047Y10566D01*
G01X36118Y10545D01*
G01X36319Y10497D01*
G01X36185Y10658D01*
G01X36127Y10725D01*
G01X36070Y10787D01*
G01X36020Y10837D01*
G01X35983Y10869D01*
G01X35908Y10906D01*
G37*

%LPD*%
G36*
G01X30899Y10773D02*
G01X30832Y10781D01*
G01X30765Y10780D01*
G01X30699Y10770D01*
G01X30638Y10750D01*
G01X30581Y10720D01*
G01X30551Y10705D01*
G01X30503Y10686D01*
G01X30441Y10664D01*
G01X30367Y10641D01*
G01X30282Y10616D01*
G01X30190Y10591D01*
G01X30093Y10565D01*
G01X29993Y10541D01*
G01X29896Y10517D01*
G01X29804Y10492D01*
G01X29722Y10468D01*
G01X29650Y10445D01*
G01X29591Y10423D01*
G01X29545Y10404D01*
G01X29517Y10388D01*
G01X29507Y10375D01*
G01X29513Y10360D01*
G01X29533Y10346D01*
G01X29563Y10332D01*
G01X29603Y10319D01*
G01X29651Y10307D01*
G01X29707Y10296D01*
G01X29769Y10286D01*
G01X29836Y10278D01*
G01X29906Y10271D01*
G01X29979Y10266D01*
G01X30052Y10262D01*
G01X30125Y10261D01*
G01X30197Y10261D01*
G01X30265Y10264D01*
G01X30330Y10269D01*
G01X30389Y10276D01*
G01X30449Y10288D01*
G01X30516Y10304D01*
G01X30587Y10325D01*
G01X30661Y10348D01*
G01X30736Y10374D01*
G01X30807Y10402D01*
G01X30875Y10431D01*
G01X30936Y10460D01*
G01X31021Y10504D01*
G01X31085Y10540D01*
G01X31128Y10569D01*
G01X31152Y10594D01*
G01X31158Y10616D01*
G01X31148Y10639D01*
G01X31123Y10664D01*
G01X31085Y10693D01*
G01X31027Y10729D01*
G01X30964Y10756D01*
G01X30899Y10773D01*
G37*

%LPD*%
G36*
G01X37348Y10785D02*
G01X37334Y10786D01*
G01X37291Y10779D01*
G01X37238Y10759D01*
G01X37180Y10729D01*
G01X37124Y10693D01*
G01X37086Y10663D01*
G01X37063Y10638D01*
G01X37056Y10614D01*
G01X37068Y10588D01*
G01X37101Y10559D01*
G01X37156Y10524D01*
G01X37236Y10480D01*
G01X37344Y10425D01*
G01X37407Y10394D01*
G01X37468Y10366D01*
G01X37527Y10342D01*
G01X37585Y10321D01*
G01X37642Y10303D01*
G01X37699Y10289D01*
G01X37757Y10276D01*
G01X37816Y10267D01*
G01X37877Y10261D01*
G01X37940Y10256D01*
G01X38008Y10254D01*
G01X38078Y10254D01*
G01X38156Y10256D01*
G01X38230Y10259D01*
G01X38301Y10265D01*
G01X38367Y10271D01*
G01X38429Y10279D01*
G01X38486Y10288D01*
G01X38536Y10297D01*
G01X38581Y10308D01*
G01X38618Y10319D01*
G01X38648Y10331D01*
G01X38669Y10342D01*
G01X38682Y10355D01*
G01X38686Y10367D01*
G01X38679Y10379D01*
G01X38662Y10391D01*
G01X38634Y10402D01*
G01X38540Y10432D01*
G01X38446Y10463D01*
G01X38264Y10521D01*
G01X38175Y10549D01*
G01X38088Y10576D01*
G01X38005Y10601D01*
G01X37924Y10626D01*
G01X37847Y10649D01*
G01X37773Y10671D01*
G01X37704Y10691D01*
G01X37639Y10710D01*
G01X37579Y10727D01*
G01X37525Y10742D01*
G01X37477Y10755D01*
G01X37435Y10766D01*
G01X37398Y10775D01*
G01X37370Y10781D01*
G01X37348Y10785D01*
G37*

%LPD*%
G36*
G01X36773Y10582D02*
G01X36755Y10585D01*
G01X36736Y10580D01*
G01X36706Y10567D01*
G01X36672Y10550D01*
G01X36636Y10528D01*
G01X36614Y10510D01*
G01X36603Y10488D01*
G01X36602Y10464D01*
G01X36612Y10437D01*
G01X36633Y10407D01*
G01X36664Y10374D01*
G01X36706Y10339D01*
G01X36758Y10301D01*
G01X36820Y10261D01*
G01X36894Y10217D01*
G01X36977Y10171D01*
G01X37071Y10123D01*
G01X37125Y10098D01*
G01X37182Y10075D01*
G01X37242Y10055D01*
G01X37304Y10036D01*
G01X37368Y10020D01*
G01X37431Y10006D01*
G01X37493Y9995D01*
G01X37552Y9987D01*
G01X37609Y9981D01*
G01X37661Y9978D01*
G01X37708Y9979D01*
G01X37749Y9982D01*
G01X37782Y9989D01*
G01X37807Y9999D01*
G01X37822Y10013D01*
G01X37827Y10031D01*
G01X37819Y10041D01*
G01X37798Y10058D01*
G01X37765Y10080D01*
G01X37722Y10107D01*
G01X37669Y10138D01*
G01X37609Y10172D01*
G01X37542Y10209D01*
G01X37471Y10247D01*
G01X37396Y10287D01*
G01X37242Y10367D01*
G01X37165Y10405D01*
G01X37091Y10442D01*
G01X37021Y10476D01*
G01X36955Y10507D01*
G01X36896Y10533D01*
G01X36845Y10555D01*
G01X36804Y10571D01*
G01X36773Y10582D01*
G37*

%LPD*%
G36*
G01X31502Y10567D02*
G01X31478Y10571D01*
G01X31449Y10570D01*
G01X31414Y10561D01*
G01X31368Y10546D01*
G01X31310Y10522D01*
G01X31237Y10489D01*
G01X31147Y10447D01*
G01X31035Y10394D01*
G01X30901Y10330D01*
G01X30796Y10279D01*
G01X30699Y10229D01*
G01X30611Y10182D01*
G01X30534Y10140D01*
G01X30470Y10102D01*
G01X30422Y10070D01*
G01X30392Y10046D01*
G01X30380Y10031D01*
G01X30386Y10013D01*
G01X30401Y9999D01*
G01X30426Y9989D01*
G01X30460Y9982D01*
G01X30500Y9979D01*
G01X30547Y9978D01*
G01X30599Y9981D01*
G01X30656Y9987D01*
G01X30716Y9995D01*
G01X30778Y10006D01*
G01X30841Y10020D01*
G01X30904Y10036D01*
G01X30966Y10055D01*
G01X31027Y10075D01*
G01X31084Y10098D01*
G01X31137Y10123D01*
G01X31231Y10171D01*
G01X31315Y10217D01*
G01X31388Y10261D01*
G01X31450Y10301D01*
G01X31503Y10339D01*
G01X31544Y10374D01*
G01X31575Y10407D01*
G01X31596Y10437D01*
G01X31606Y10464D01*
G01X31605Y10488D01*
G01X31594Y10510D01*
G01X31572Y10528D01*
G01X31546Y10545D01*
G01X31523Y10558D01*
G01X31502Y10567D01*
G37*

%LPD*%
G36*
G01X36283Y10443D02*
G01X36240Y10449D01*
G01X36203Y10447D01*
G01X36171Y10436D01*
G01X36144Y10418D01*
G01X36123Y10392D01*
G01X36116Y10366D01*
G01X36122Y10335D01*
G01X36141Y10301D01*
G01X36171Y10264D01*
G01X36210Y10225D01*
G01X36257Y10185D01*
G01X36312Y10145D01*
G01X36372Y10105D01*
G01X36437Y10067D01*
G01X36504Y10031D01*
G01X36573Y9999D01*
G01X36643Y9971D01*
G01X36711Y9947D01*
G01X36776Y9929D01*
G01X36838Y9918D01*
G01X36894Y9914D01*
G01X37104Y9914D01*
G01X36747Y10182D01*
G01X36663Y10243D01*
G01X36585Y10297D01*
G01X36513Y10342D01*
G01X36447Y10379D01*
G01X36387Y10408D01*
G01X36332Y10430D01*
G01X36283Y10443D01*
G37*

%LPD*%
G36*
G01X32008Y10444D02*
G01X31970Y10448D01*
G01X31927Y10443D01*
G01X31879Y10431D01*
G01X31824Y10410D01*
G01X31764Y10381D01*
G01X31698Y10343D01*
G01X31625Y10298D01*
G01X31546Y10244D01*
G01X31461Y10182D01*
G01X31104Y9914D01*
G01X31335Y9914D01*
G01X31387Y9918D01*
G01X31444Y9929D01*
G01X31505Y9947D01*
G01X31570Y9972D01*
G01X31637Y10000D01*
G01X31704Y10033D01*
G01X31770Y10069D01*
G01X31834Y10107D01*
G01X31894Y10146D01*
G01X31949Y10186D01*
G01X31997Y10226D01*
G01X32037Y10264D01*
G01X32068Y10300D01*
G01X32087Y10333D01*
G01X32095Y10362D01*
G01X32089Y10386D01*
G01X32068Y10413D01*
G01X32041Y10433D01*
G01X32008Y10444D01*
G37*

%LPD*%
G36*
G01X34149Y13164D02*
G01X34142Y13164D01*
G01X34133Y13162D01*
G01X34124Y13157D01*
G01X34114Y13151D01*
G01X34103Y13142D01*
G01X34090Y13131D01*
G01X34077Y13118D01*
G01X34062Y13102D01*
G01X34047Y13084D01*
G01X34030Y13062D01*
G01X34012Y13038D01*
G01X33992Y13011D01*
G01X33970Y12982D01*
G01X33948Y12949D01*
G01X33923Y12913D01*
G01X33897Y12874D01*
G01X33870Y12831D01*
G01X33840Y12785D01*
G01X33809Y12735D01*
G01X33776Y12682D01*
G01X33740Y12625D01*
G01X33703Y12564D01*
G01X33664Y12499D01*
G01X33622Y12430D01*
G01X33579Y12357D01*
G01X33533Y12280D01*
G01X33485Y12199D01*
G01X33434Y12113D01*
G01X33381Y12023D01*
G01X33325Y11928D01*
G01X33267Y11828D01*
G01X33206Y11724D01*
G01X33142Y11614D01*
G01X33076Y11501D01*
G01X33007Y11381D01*
G01X32935Y11257D01*
G01X32882Y11165D01*
G01X32778Y10985D01*
G01X32727Y10897D01*
G01X32677Y10809D01*
G01X32627Y10723D01*
G01X32579Y10639D01*
G01X32531Y10556D01*
G01X32484Y10474D01*
G01X32438Y10394D01*
G01X32394Y10315D01*
G01X32350Y10239D01*
G01X32308Y10165D01*
G01X32267Y10092D01*
G01X32227Y10022D01*
G01X32189Y9954D01*
G01X32152Y9888D01*
G01X32116Y9825D01*
G01X32082Y9764D01*
G01X32049Y9705D01*
G01X32018Y9649D01*
G01X31989Y9597D01*
G01X31961Y9546D01*
G01X31935Y9499D01*
G01X31911Y9455D01*
G01X31889Y9414D01*
G01X31868Y9376D01*
G01X31850Y9342D01*
G01X31834Y9311D01*
G01X31820Y9283D01*
G01X31807Y9259D01*
G01X31789Y9223D01*
G01X31784Y9210D01*
G01X31780Y9201D01*
G01X31779Y9197D01*
G01X31800Y9171D01*
G01X31851Y9151D01*
G01X31923Y9135D01*
G01X32007Y9126D01*
G01X32095Y9122D01*
G01X32179Y9126D01*
G01X32249Y9138D01*
G01X32298Y9158D01*
G01X32304Y9163D01*
G01X32312Y9173D01*
G01X32323Y9187D01*
G01X32336Y9206D01*
G01X32351Y9229D01*
G01X32389Y9286D01*
G01X32411Y9321D01*
G01X32435Y9359D01*
G01X32461Y9400D01*
G01X32489Y9445D01*
G01X32518Y9493D01*
G01X32550Y9544D01*
G01X32582Y9598D01*
G01X32617Y9655D01*
G01X32652Y9714D01*
G01X32690Y9776D01*
G01X32728Y9840D01*
G01X32768Y9907D01*
G01X32808Y9976D01*
G01X32850Y10047D01*
G01X32893Y10119D01*
G01X32936Y10193D01*
G01X32980Y10269D01*
G01X33025Y10346D01*
G01X33117Y10504D01*
G01X33163Y10585D01*
G01X33209Y10665D01*
G01X33256Y10745D01*
G01X33301Y10824D01*
G01X33346Y10902D01*
G01X33391Y10979D01*
G01X33435Y11055D01*
G01X33477Y11128D01*
G01X33519Y11200D01*
G01X33560Y11271D01*
G01X33600Y11340D01*
G01X33638Y11406D01*
G01X33676Y11470D01*
G01X33712Y11532D01*
G01X33746Y11592D01*
G01X33780Y11648D01*
G01X33811Y11702D01*
G01X33841Y11753D01*
G01X33869Y11801D01*
G01X33896Y11846D01*
G01X33920Y11887D01*
G01X33943Y11925D01*
G01X33963Y11959D01*
G01X33982Y11989D01*
G01X33997Y12016D01*
G01X34011Y12039D01*
G01X34022Y12056D01*
G01X34031Y12071D01*
G01X34037Y12080D01*
G01X34055Y12102D01*
G01X34073Y12117D01*
G01X34093Y12122D01*
G01X34115Y12117D01*
G01X34140Y12100D01*
G01X34170Y12071D01*
G01X34205Y12027D01*
G01X34247Y11968D01*
G01X34297Y11892D01*
G01X34356Y11800D01*
G01X34424Y11688D01*
G01X34502Y11557D01*
G01X34529Y11511D01*
G01X34558Y11464D01*
G01X34587Y11415D01*
G01X34617Y11363D01*
G01X34648Y11311D01*
G01X34680Y11257D01*
G01X34712Y11202D01*
G01X34745Y11146D01*
G01X34811Y11032D01*
G01X34845Y10974D01*
G01X34912Y10859D01*
G01X34946Y10801D01*
G01X34979Y10744D01*
G01X35011Y10687D01*
G01X35044Y10631D01*
G01X35106Y10523D01*
G01X35136Y10471D01*
G01X35165Y10420D01*
G01X35193Y10371D01*
G01X35220Y10325D01*
G01X35245Y10279D01*
G01X35604Y9645D01*
G01X33933Y9645D01*
G01X34037Y9847D01*
G01X34070Y9905D01*
G01X34101Y9951D01*
G01X34134Y9986D01*
G01X34171Y10012D01*
G01X34215Y10030D01*
G01X34268Y10041D01*
G01X34334Y10046D01*
G01X34413Y10048D01*
G01X34518Y10052D01*
G01X34599Y10062D01*
G01X34651Y10079D01*
G01X34663Y10098D01*
G01X34654Y10118D01*
G01X34634Y10154D01*
G01X34606Y10205D01*
G01X34571Y10268D01*
G01X34530Y10342D01*
G01X34484Y10424D01*
G01X34434Y10513D01*
G01X34381Y10605D01*
G01X34328Y10700D01*
G01X34281Y10779D01*
G01X34241Y10844D01*
G01X34207Y10897D01*
G01X34177Y10937D01*
G01X34152Y10966D01*
G01X34129Y10984D01*
G01X34110Y10992D01*
G01X34092Y10991D01*
G01X34076Y10981D01*
G01X34059Y10965D01*
G01X34042Y10941D01*
G01X34019Y10906D01*
G01X33993Y10865D01*
G01X33965Y10820D01*
G01X33934Y10770D01*
G01X33901Y10715D01*
G01X33867Y10657D01*
G01X33830Y10595D01*
G01X33793Y10531D01*
G01X33754Y10464D01*
G01X33714Y10395D01*
G01X33673Y10324D01*
G01X33632Y10251D01*
G01X33591Y10179D01*
G01X33549Y10105D01*
G01X33508Y10031D01*
G01X33468Y9959D01*
G01X33427Y9886D01*
G01X33388Y9815D01*
G01X33350Y9746D01*
G01X33313Y9678D01*
G01X33278Y9614D01*
G01X33245Y9552D01*
G01X33214Y9493D01*
G01X33185Y9438D01*
G01X33158Y9388D01*
G01X33114Y9300D01*
G01X33097Y9265D01*
G01X33082Y9235D01*
G01X33072Y9211D01*
G01X33066Y9194D01*
G01X33064Y9184D01*
G01X33066Y9179D01*
G01X33071Y9173D01*
G01X33081Y9168D01*
G01X33094Y9163D01*
G01X33111Y9158D01*
G01X33133Y9154D01*
G01X33158Y9150D01*
G01X33188Y9146D01*
G01X33222Y9141D01*
G01X33261Y9138D01*
G01X33303Y9134D01*
G01X33351Y9131D01*
G01X33403Y9128D01*
G01X33459Y9126D01*
G01X33520Y9123D01*
G01X33586Y9121D01*
G01X33658Y9119D01*
G01X33734Y9117D01*
G01X33815Y9115D01*
G01X33901Y9114D01*
G01X33992Y9113D01*
G01X34088Y9111D01*
G01X34190Y9110D01*
G01X34298Y9109D01*
G01X34410Y9109D01*
G01X34529Y9108D01*
G01X35088Y9108D01*
G01X35226Y9109D01*
G01X35355Y9109D01*
G01X35475Y9110D01*
G01X35586Y9110D01*
G01X35690Y9111D01*
G01X35785Y9113D01*
G01X35872Y9114D01*
G01X35952Y9116D01*
G01X36025Y9118D01*
G01X36091Y9120D01*
G01X36150Y9123D01*
G01X36204Y9126D01*
G01X36251Y9129D01*
G01X36293Y9132D01*
G01X36329Y9136D01*
G01X36361Y9141D01*
G01X36387Y9146D01*
G01X36409Y9151D01*
G01X36427Y9157D01*
G01X36441Y9163D01*
G01X36452Y9169D01*
G01X36459Y9177D01*
G01X36463Y9185D01*
G01X36465Y9193D01*
G01X36464Y9202D01*
G01X36462Y9211D01*
G01X36459Y9218D01*
G01X36454Y9228D01*
G01X36446Y9242D01*
G01X36437Y9260D01*
G01X36425Y9281D01*
G01X36411Y9306D01*
G01X36395Y9335D01*
G01X36377Y9366D01*
G01X36358Y9401D01*
G01X36337Y9439D01*
G01X36313Y9480D01*
G01X36288Y9523D01*
G01X36262Y9570D01*
G01X36234Y9619D01*
G01X36205Y9670D01*
G01X36174Y9724D01*
G01X36142Y9781D01*
G01X36108Y9839D01*
G01X36073Y9899D01*
G01X36038Y9962D01*
G01X36000Y10026D01*
G01X35962Y10092D01*
G01X35923Y10160D01*
G01X35883Y10229D01*
G01X35842Y10300D01*
G01X35801Y10372D01*
G01X35759Y10444D01*
G01X35716Y10519D01*
G01X35672Y10594D01*
G01X35629Y10670D01*
G01X35584Y10746D01*
G01X35539Y10823D01*
G01X35494Y10902D01*
G01X35449Y10979D01*
G01X35312Y11216D01*
G01X35266Y11294D01*
G01X35220Y11373D01*
G01X35175Y11451D01*
G01X35129Y11529D01*
G01X35085Y11606D01*
G01X35040Y11683D01*
G01X34995Y11759D01*
G01X34951Y11834D01*
G01X34908Y11909D01*
G01X34865Y11982D01*
G01X34823Y12054D01*
G01X34781Y12124D01*
G01X34741Y12194D01*
G01X34701Y12262D01*
G01X34662Y12329D01*
G01X34624Y12393D01*
G01X34587Y12456D01*
G01X34551Y12517D01*
G01X34517Y12576D01*
G01X34483Y12632D01*
G01X34451Y12687D01*
G01X34420Y12739D01*
G01X34391Y12788D01*
G01X34363Y12835D01*
G01X34337Y12879D01*
G01X34312Y12921D01*
G01X34289Y12960D01*
G01X34268Y12995D01*
G01X34248Y13027D01*
G01X34231Y13056D01*
G01X34215Y13082D01*
G01X34202Y13104D01*
G01X34190Y13123D01*
G01X34180Y13137D01*
G01X34173Y13148D01*
G01X34168Y13155D01*
G01X34163Y13160D01*
G01X34156Y13163D01*
G01X34149Y13164D01*
G37*

%LPD*%
G36*
G01X33064Y7498D02*
G01X32728Y7498D01*
G01X32728Y5887D01*
G01X33064Y5887D01*
G01X33064Y7498D01*
G37*

%LPD*%
G36*
G01X31554Y7497D02*
G01X31420Y7498D01*
G01X31285Y7497D01*
G01X31170Y7496D01*
G01X31074Y7494D01*
G01X30995Y7490D01*
G01X30932Y7485D01*
G01X30882Y7478D01*
G01X30845Y7469D01*
G01X30819Y7457D01*
G01X30802Y7443D01*
G01X30793Y7425D01*
G01X30791Y7405D01*
G01X30794Y7380D01*
G01X30818Y7328D01*
G01X30866Y7287D01*
G01X30937Y7258D01*
G01X31032Y7242D01*
G01X31247Y7221D01*
G01X31266Y6537D01*
G01X31270Y6391D01*
G01X31275Y6267D01*
G01X31280Y6163D01*
G01X31286Y6079D01*
G01X31294Y6011D01*
G01X31303Y5958D01*
G01X31315Y5918D01*
G01X31328Y5890D01*
G01X31346Y5871D01*
G01X31366Y5860D01*
G01X31391Y5855D01*
G01X31420Y5853D01*
G01X31448Y5855D01*
G01X31473Y5860D01*
G01X31493Y5871D01*
G01X31511Y5890D01*
G01X31525Y5918D01*
G01X31536Y5958D01*
G01X31545Y6011D01*
G01X31553Y6079D01*
G01X31559Y6163D01*
G01X31564Y6267D01*
G01X31569Y6391D01*
G01X31573Y6537D01*
G01X31592Y7221D01*
G01X31807Y7242D01*
G01X31902Y7258D01*
G01X31974Y7287D01*
G01X32021Y7328D01*
G01X32045Y7380D01*
G01X32048Y7405D01*
G01X32046Y7425D01*
G01X32037Y7443D01*
G01X32020Y7457D01*
G01X31994Y7469D01*
G01X31957Y7478D01*
G01X31907Y7485D01*
G01X31844Y7490D01*
G01X31765Y7494D01*
G01X31669Y7496D01*
G01X31554Y7497D01*
G37*

%LPD*%
G36*
G01X35844Y7497D02*
G01X35816Y7498D01*
G01X35787Y7497D01*
G01X35762Y7491D01*
G01X35742Y7481D01*
G01X35725Y7464D01*
G01X35712Y7439D01*
G01X35702Y7402D01*
G01X35694Y7354D01*
G01X35689Y7291D01*
G01X35685Y7214D01*
G01X35682Y7118D01*
G01X35681Y7004D01*
G01X35681Y6869D01*
G01X35682Y6745D01*
G01X35683Y6637D01*
G01X35687Y6542D01*
G01X35691Y6459D01*
G01X35698Y6387D01*
G01X35706Y6325D01*
G01X35717Y6271D01*
G01X35731Y6223D01*
G01X35747Y6180D01*
G01X35767Y6141D01*
G01X35790Y6105D01*
G01X35817Y6069D01*
G01X35851Y6028D01*
G01X35888Y5992D01*
G01X35927Y5960D01*
G01X35968Y5931D01*
G01X36011Y5907D01*
G01X36056Y5887D01*
G01X36103Y5870D01*
G01X36151Y5859D01*
G01X36201Y5851D01*
G01X36251Y5847D01*
G01X36304Y5848D01*
G01X36358Y5852D01*
G01X36412Y5861D01*
G01X36468Y5874D01*
G01X36524Y5892D01*
G01X36581Y5913D01*
G01X36625Y5933D01*
G01X36666Y5954D01*
G01X36705Y5977D01*
G01X36739Y6001D01*
G01X36770Y6027D01*
G01X36799Y6056D01*
G01X36824Y6088D01*
G01X36847Y6123D01*
G01X36867Y6162D01*
G01X36885Y6205D01*
G01X36900Y6252D01*
G01X36913Y6304D01*
G01X36924Y6361D01*
G01X36934Y6423D01*
G01X36941Y6491D01*
G01X36947Y6565D01*
G01X36951Y6646D01*
G01X36954Y6734D01*
G01X36956Y6829D01*
G01X36957Y6932D01*
G01X36956Y7052D01*
G01X36955Y7154D01*
G01X36953Y7240D01*
G01X36949Y7310D01*
G01X36943Y7366D01*
G01X36936Y7410D01*
G01X36926Y7443D01*
G01X36912Y7467D01*
G01X36896Y7482D01*
G01X36875Y7492D01*
G01X36851Y7497D01*
G01X36822Y7498D01*
G01X36794Y7497D01*
G01X36770Y7492D01*
G01X36750Y7483D01*
G01X36733Y7468D01*
G01X36719Y7446D01*
G01X36709Y7416D01*
G01X36701Y7375D01*
G01X36695Y7323D01*
G01X36691Y7259D01*
G01X36689Y7181D01*
G01X36687Y7088D01*
G01X36687Y6977D01*
G01X36686Y6885D01*
G01X36684Y6798D01*
G01X36680Y6718D01*
G01X36675Y6643D01*
G01X36667Y6575D01*
G01X36659Y6511D01*
G01X36648Y6453D01*
G01X36635Y6400D01*
G01X36621Y6353D01*
G01X36605Y6310D01*
G01X36587Y6272D01*
G01X36566Y6239D01*
G01X36543Y6210D01*
G01X36519Y6186D01*
G01X36492Y6166D01*
G01X36462Y6149D01*
G01X36430Y6137D01*
G01X36396Y6129D01*
G01X36359Y6123D01*
G01X36319Y6122D01*
G01X36279Y6123D01*
G01X36242Y6129D01*
G01X36208Y6137D01*
G01X36176Y6149D01*
G01X36146Y6166D01*
G01X36119Y6186D01*
G01X36094Y6210D01*
G01X36072Y6239D01*
G01X36051Y6272D01*
G01X36033Y6310D01*
G01X36016Y6353D01*
G01X36002Y6400D01*
G01X35990Y6453D01*
G01X35979Y6511D01*
G01X35970Y6575D01*
G01X35963Y6643D01*
G01X35958Y6718D01*
G01X35954Y6798D01*
G01X35952Y6885D01*
G01X35951Y6977D01*
G01X35950Y7088D01*
G01X35949Y7181D01*
G01X35947Y7259D01*
G01X35943Y7323D01*
G01X35937Y7375D01*
G01X35929Y7416D01*
G01X35918Y7446D01*
G01X35905Y7468D01*
G01X35888Y7483D01*
G01X35868Y7492D01*
G01X35844Y7497D01*
G37*

%LPD*%
G36*
G01X34511Y7497D02*
G01X34377Y7498D01*
G01X34239Y7497D01*
G01X34122Y7496D01*
G01X34025Y7494D01*
G01X33945Y7490D01*
G01X33882Y7485D01*
G01X33832Y7477D01*
G01X33795Y7467D01*
G01X33769Y7453D01*
G01X33752Y7437D01*
G01X33741Y7417D01*
G01X33736Y7392D01*
G01X33735Y7363D01*
G01X33745Y7296D01*
G01X33781Y7255D01*
G01X33853Y7235D01*
G01X33970Y7229D01*
G01X34205Y7229D01*
G01X34205Y6359D01*
G01X34206Y6225D01*
G01X34208Y6115D01*
G01X34211Y6027D01*
G01X34216Y5958D01*
G01X34224Y5907D01*
G01X34236Y5870D01*
G01X34251Y5846D01*
G01X34270Y5832D01*
G01X34293Y5827D01*
G01X34322Y5828D01*
G01X34356Y5832D01*
G01X34389Y5837D01*
G01X34417Y5846D01*
G01X34440Y5859D01*
G01X34460Y5879D01*
G01X34475Y5908D01*
G01X34488Y5948D01*
G01X34498Y6001D01*
G01X34506Y6069D01*
G01X34512Y6155D01*
G01X34517Y6260D01*
G01X34522Y6387D01*
G01X34526Y6537D01*
G01X34545Y7221D01*
G01X34760Y7242D01*
G01X34855Y7258D01*
G01X34927Y7287D01*
G01X34974Y7328D01*
G01X34998Y7380D01*
G01X35001Y7405D01*
G01X34999Y7425D01*
G01X34990Y7443D01*
G01X34974Y7457D01*
G01X34948Y7469D01*
G01X34911Y7478D01*
G01X34862Y7485D01*
G01X34799Y7490D01*
G01X34720Y7494D01*
G01X34625Y7496D01*
G01X34511Y7497D01*
G37*

%LPD*%
G36*
G01X40444Y7498D02*
G01X39972Y7498D01*
G01X39991Y6675D01*
G01X40010Y5853D01*
G01X40497Y5833D01*
G01X40647Y5828D01*
G01X40763Y5826D01*
G01X40849Y5829D01*
G01X40909Y5837D01*
G01X40948Y5853D01*
G01X40971Y5877D01*
G01X40981Y5909D01*
G01X40983Y5951D01*
G01X40981Y5991D01*
G01X40972Y6023D01*
G01X40954Y6047D01*
G01X40926Y6065D01*
G01X40883Y6076D01*
G01X40824Y6083D01*
G01X40746Y6087D01*
G01X40648Y6088D01*
G01X40312Y6088D01*
G01X40312Y6319D01*
G01X40313Y6393D01*
G01X40318Y6450D01*
G01X40330Y6492D01*
G01X40351Y6521D01*
G01X40386Y6542D01*
G01X40436Y6555D01*
G01X40505Y6563D01*
G01X40597Y6571D01*
G01X40669Y6578D01*
G01X40730Y6587D01*
G01X40781Y6598D01*
G01X40822Y6614D01*
G01X40854Y6631D01*
G01X40878Y6653D01*
G01X40895Y6679D01*
G01X40904Y6709D01*
G01X40907Y6742D01*
G01X40903Y6769D01*
G01X40889Y6789D01*
G01X40865Y6804D01*
G01X40826Y6815D01*
G01X40774Y6822D01*
G01X40706Y6825D01*
G01X40619Y6827D01*
G01X40518Y6827D01*
G01X40442Y6830D01*
G01X40388Y6839D01*
G01X40351Y6856D01*
G01X40329Y6884D01*
G01X40317Y6926D01*
G01X40313Y6984D01*
G01X40312Y7061D01*
G01X40313Y7138D01*
G01X40317Y7196D01*
G01X40329Y7239D01*
G01X40350Y7266D01*
G01X40387Y7284D01*
G01X40440Y7292D01*
G01X40515Y7296D01*
G01X40614Y7296D01*
G01X40756Y7301D01*
G01X40849Y7319D01*
G01X40901Y7350D01*
G01X40916Y7397D01*
G01X40911Y7424D01*
G01X40895Y7446D01*
G01X40866Y7464D01*
G01X40821Y7477D01*
G01X40758Y7487D01*
G01X40676Y7493D01*
G01X40572Y7497D01*
G01X40444Y7498D01*
G37*

%LPD*%
G36*
G01X38289Y7498D02*
G01X37829Y7498D01*
G01X37829Y6581D01*
G01X37830Y6473D01*
G01X37831Y6377D01*
G01X37833Y6292D01*
G01X37836Y6216D01*
G01X37839Y6150D01*
G01X37843Y6092D01*
G01X37849Y6043D01*
G01X37855Y6001D01*
G01X37863Y5965D01*
G01X37871Y5936D01*
G01X37881Y5912D01*
G01X37892Y5893D01*
G01X37905Y5879D01*
G01X37919Y5868D01*
G01X37935Y5860D01*
G01X37980Y5846D01*
G01X38028Y5835D01*
G01X38080Y5828D01*
G01X38135Y5824D01*
G01X38191Y5823D01*
G01X38250Y5826D01*
G01X38310Y5832D01*
G01X38371Y5840D01*
G01X38433Y5852D01*
G01X38495Y5866D01*
G01X38556Y5883D01*
G01X38616Y5902D01*
G01X38675Y5923D01*
G01X38731Y5947D01*
G01X38785Y5973D01*
G01X38837Y6001D01*
G01X38885Y6030D01*
G01X38930Y6061D01*
G01X38969Y6095D01*
G01X39005Y6130D01*
G01X39041Y6172D01*
G01X39074Y6218D01*
G01X39104Y6267D01*
G01X39130Y6317D01*
G01X39152Y6370D01*
G01X39171Y6424D01*
G01X39186Y6480D01*
G01X39198Y6536D01*
G01X39206Y6593D01*
G01X39211Y6651D01*
G01X39212Y6710D01*
G01X39210Y6768D01*
G01X39204Y6825D01*
G01X39195Y6883D01*
G01X39183Y6939D01*
G01X39167Y6995D01*
G01X39149Y7049D01*
G01X39126Y7101D01*
G01X39100Y7151D01*
G01X39071Y7199D01*
G01X39039Y7244D01*
G01X39003Y7287D01*
G01X38965Y7326D01*
G01X38922Y7362D01*
G01X38888Y7387D01*
G01X38854Y7409D01*
G01X38817Y7428D01*
G01X38779Y7444D01*
G01X38737Y7458D01*
G01X38691Y7470D01*
G01X38640Y7479D01*
G01X38584Y7486D01*
G01X38522Y7491D01*
G01X38452Y7495D01*
G01X38375Y7497D01*
G01X38289Y7498D01*
G37*

%LPC*%
G36*
G01X38335Y7296D02*
G01X38097Y7296D01*
G01X38097Y6555D01*
G01X38098Y6440D01*
G01X38100Y6346D01*
G01X38104Y6270D01*
G01X38110Y6211D01*
G01X38119Y6167D01*
G01X38131Y6134D01*
G01X38147Y6112D01*
G01X38168Y6099D01*
G01X38193Y6091D01*
G01X38224Y6088D01*
G01X38262Y6088D01*
G01X38321Y6090D01*
G01X38378Y6098D01*
G01X38433Y6110D01*
G01X38486Y6125D01*
G01X38535Y6146D01*
G01X38583Y6170D01*
G01X38627Y6197D01*
G01X38669Y6228D01*
G01X38708Y6261D01*
G01X38744Y6298D01*
G01X38777Y6336D01*
G01X38807Y6377D01*
G01X38833Y6421D01*
G01X38855Y6465D01*
G01X38874Y6512D01*
G01X38889Y6559D01*
G01X38901Y6608D01*
G01X38908Y6656D01*
G01X38911Y6706D01*
G01X38910Y6756D01*
G01X38905Y6806D01*
G01X38896Y6855D01*
G01X38881Y6904D01*
G01X38863Y6952D01*
G01X38839Y6999D01*
G01X38810Y7045D01*
G01X38777Y7089D01*
G01X38738Y7131D01*
G01X38695Y7171D01*
G01X38650Y7205D01*
G01X38604Y7233D01*
G01X38556Y7256D01*
G01X38505Y7274D01*
G01X38451Y7286D01*
G01X38395Y7294D01*
G01X38335Y7296D01*
G37*

%LPD*%
G36*
G01X29670Y7496D02*
G01X29641Y7498D01*
G01X29618Y7497D01*
G01X29599Y7494D01*
G01X29581Y7488D01*
G01X29567Y7478D01*
G01X29553Y7463D01*
G01X29543Y7442D01*
G01X29534Y7413D01*
G01X29526Y7376D01*
G01X29520Y7329D01*
G01X29516Y7273D01*
G01X29512Y7205D01*
G01X29510Y7125D01*
G01X29508Y7031D01*
G01X29507Y6923D01*
G01X29507Y5820D01*
G01X30128Y5820D01*
G01X30243Y5823D01*
G01X30326Y5830D01*
G01X30382Y5843D01*
G01X30418Y5863D01*
G01X30437Y5892D01*
G01X30445Y5933D01*
G01X30446Y5987D01*
G01X30445Y6040D01*
G01X30438Y6080D01*
G01X30423Y6109D01*
G01X30396Y6130D01*
G01X30355Y6143D01*
G01X30296Y6151D01*
G01X30215Y6154D01*
G01X30111Y6155D01*
G01X29775Y6155D01*
G01X29775Y6971D01*
G01X29774Y7094D01*
G01X29772Y7195D01*
G01X29768Y7279D01*
G01X29763Y7345D01*
G01X29755Y7397D01*
G01X29745Y7436D01*
G01X29732Y7463D01*
G01X29715Y7481D01*
G01X29695Y7491D01*
G01X29670Y7496D01*
G37*

%LPD*%
G36*
G01X28061Y7497D02*
G01X28028Y7498D01*
G01X27995Y7497D01*
G01X27965Y7495D01*
G01X27939Y7490D01*
G01X27915Y7482D01*
G01X27892Y7470D01*
G01X27871Y7452D01*
G01X27850Y7427D01*
G01X27829Y7395D01*
G01X27808Y7355D01*
G01X27786Y7306D01*
G01X27762Y7247D01*
G01X27736Y7176D01*
G01X27707Y7093D01*
G01X27674Y6996D01*
G01X27638Y6886D01*
G01X27598Y6760D01*
G01X27565Y6660D01*
G01X27534Y6561D01*
G01X27505Y6466D01*
G01X27478Y6375D01*
G01X27452Y6290D01*
G01X27429Y6210D01*
G01X27409Y6138D01*
G01X27392Y6074D01*
G01X27378Y6019D01*
G01X27368Y5975D01*
G01X27361Y5942D01*
G01X27359Y5922D01*
G01X27363Y5876D01*
G01X27376Y5843D01*
G01X27394Y5823D01*
G01X27419Y5814D01*
G01X27447Y5816D01*
G01X27479Y5828D01*
G01X27513Y5850D01*
G01X27548Y5882D01*
G01X27583Y5922D01*
G01X27617Y5970D01*
G01X27649Y6025D01*
G01X27677Y6088D01*
G01X27711Y6171D01*
G01X27741Y6235D01*
G01X27772Y6282D01*
G01X27806Y6315D01*
G01X27847Y6337D01*
G01X27897Y6350D01*
G01X27961Y6355D01*
G01X28042Y6357D01*
G01X28121Y6356D01*
G01X28183Y6351D01*
G01X28231Y6341D01*
G01X28267Y6324D01*
G01X28293Y6299D01*
G01X28313Y6264D01*
G01X28329Y6217D01*
G01X28342Y6157D01*
G01X28364Y6074D01*
G01X28393Y6002D01*
G01X28428Y5941D01*
G01X28468Y5892D01*
G01X28514Y5857D01*
G01X28561Y5836D01*
G01X28612Y5831D01*
G01X28663Y5842D01*
G01X28677Y5850D01*
G01X28688Y5860D01*
G01X28696Y5875D01*
G01X28702Y5894D01*
G01X28704Y5918D01*
G01X28703Y5948D01*
G01X28698Y5984D01*
G01X28690Y6027D01*
G01X28679Y6078D01*
G01X28664Y6137D01*
G01X28646Y6204D01*
G01X28623Y6280D01*
G01X28596Y6366D01*
G01X28565Y6463D01*
G01X28530Y6570D01*
G01X28491Y6689D01*
G01X28444Y6827D01*
G01X28403Y6948D01*
G01X28367Y7054D01*
G01X28334Y7145D01*
G01X28305Y7223D01*
G01X28278Y7288D01*
G01X28253Y7343D01*
G01X28231Y7386D01*
G01X28209Y7421D01*
G01X28187Y7448D01*
G01X28165Y7468D01*
G01X28142Y7481D01*
G01X28117Y7490D01*
G01X28090Y7495D01*
G01X28061Y7497D01*
G37*

%LPC*%
G36*
G01X28052Y7148D02*
G01X28029Y7162D01*
G01X28006Y7148D01*
G01X27980Y7108D01*
G01X27955Y7049D01*
G01X27934Y6977D01*
G01X27914Y6897D01*
G01X27892Y6813D01*
G01X27872Y6736D01*
G01X27855Y6675D01*
G01X27847Y6617D01*
G01X27869Y6581D01*
G01X27929Y6563D01*
G01X28033Y6558D01*
G01X28139Y6563D01*
G01X28197Y6580D01*
G01X28215Y6616D01*
G01X28201Y6675D01*
G01X28180Y6736D01*
G01X28157Y6813D01*
G01X28136Y6897D01*
G01X28118Y6977D01*
G01X28100Y7049D01*
G01X28077Y7108D01*
G01X28052Y7148D01*
G37*

%LPD*%
G36*
G01X38464Y4410D02*
G01X38268Y4410D01*
G01X38174Y4409D01*
G01X38086Y4407D01*
G01X38003Y4405D01*
G01X37926Y4403D01*
G01X37854Y4400D01*
G01X37788Y4396D01*
G01X37728Y4392D01*
G01X37675Y4388D01*
G01X37628Y4383D01*
G01X37587Y4377D01*
G01X37554Y4371D01*
G01X37528Y4365D01*
G01X37509Y4358D01*
G01X37497Y4351D01*
G01X37493Y4343D01*
G01X37497Y4336D01*
G01X37509Y4329D01*
G01X37528Y4322D01*
G01X37554Y4315D01*
G01X37587Y4309D01*
G01X37628Y4304D01*
G01X37675Y4299D01*
G01X37728Y4294D01*
G01X37788Y4290D01*
G01X37854Y4287D01*
G01X37926Y4283D01*
G01X38003Y4281D01*
G01X38086Y4279D01*
G01X38174Y4277D01*
G01X38268Y4276D01*
G01X38464Y4276D01*
G01X38557Y4277D01*
G01X38646Y4279D01*
G01X38728Y4281D01*
G01X38806Y4283D01*
G01X38878Y4287D01*
G01X38944Y4290D01*
G01X39003Y4294D01*
G01X39057Y4299D01*
G01X39104Y4304D01*
G01X39144Y4309D01*
G01X39177Y4315D01*
G01X39204Y4322D01*
G01X39223Y4329D01*
G01X39234Y4336D01*
G01X39238Y4343D01*
G01X39234Y4351D01*
G01X39223Y4358D01*
G01X39204Y4365D01*
G01X39177Y4371D01*
G01X39144Y4377D01*
G01X39104Y4383D01*
G01X39057Y4388D01*
G01X39003Y4392D01*
G01X38944Y4396D01*
G01X38878Y4400D01*
G01X38806Y4403D01*
G01X38728Y4405D01*
G01X38646Y4407D01*
G01X38557Y4409D01*
G01X38464Y4410D01*
G37*

%LPD*%
G36*
G01X29933Y4410D02*
G01X29684Y4410D01*
G01X29568Y4408D01*
G01X29461Y4405D01*
G01X29363Y4402D01*
G01X29275Y4398D01*
G01X29196Y4392D01*
G01X29129Y4386D01*
G01X29073Y4379D01*
G01X29029Y4371D01*
G01X28996Y4363D01*
G01X28977Y4353D01*
G01X28970Y4343D01*
G01X28977Y4333D01*
G01X28996Y4324D01*
G01X29029Y4315D01*
G01X29073Y4307D01*
G01X29129Y4300D01*
G01X29196Y4294D01*
G01X29275Y4289D01*
G01X29363Y4284D01*
G01X29461Y4281D01*
G01X29568Y4278D01*
G01X29684Y4277D01*
G01X29809Y4276D01*
G01X29933Y4277D01*
G01X30050Y4278D01*
G01X30157Y4281D01*
G01X30255Y4284D01*
G01X30343Y4289D01*
G01X30421Y4294D01*
G01X30489Y4300D01*
G01X30545Y4307D01*
G01X30589Y4315D01*
G01X30621Y4324D01*
G01X30641Y4333D01*
G01X30648Y4343D01*
G01X30641Y4353D01*
G01X30621Y4363D01*
G01X30589Y4371D01*
G01X30545Y4379D01*
G01X30489Y4386D01*
G01X30421Y4392D01*
G01X30343Y4398D01*
G01X30255Y4402D01*
G01X30157Y4405D01*
G01X30050Y4408D01*
G01X29933Y4410D01*
G37*

%LPD*%
G36*
G01X34328Y4913D02*
G01X34280Y4919D01*
G01X34216Y4911D01*
G01X34144Y4892D01*
G01X34073Y4862D01*
G01X34024Y4834D01*
G01X33979Y4804D01*
G01X33938Y4771D01*
G01X33902Y4735D01*
G01X33870Y4697D01*
G01X33842Y4658D01*
G01X33818Y4617D01*
G01X33798Y4575D01*
G01X33782Y4531D01*
G01X33769Y4487D01*
G01X33760Y4442D01*
G01X33755Y4397D01*
G01X33753Y4352D01*
G01X33755Y4306D01*
G01X33761Y4262D01*
G01X33769Y4218D01*
G01X33782Y4175D01*
G01X33797Y4133D01*
G01X33816Y4092D01*
G01X33838Y4054D01*
G01X33863Y4017D01*
G01X33891Y3983D01*
G01X33922Y3951D01*
G01X33956Y3922D01*
G01X33993Y3896D01*
G01X34033Y3873D01*
G01X34075Y3854D01*
G01X34120Y3838D01*
G01X34168Y3827D01*
G01X34218Y3820D01*
G01X34271Y3817D01*
G01X34326Y3819D01*
G01X34406Y3827D01*
G01X34466Y3836D01*
G01X34511Y3852D01*
G01X34543Y3876D01*
G01X34564Y3912D01*
G01X34578Y3963D01*
G01X34587Y4034D01*
G01X34595Y4125D01*
G01X34600Y4214D01*
G01X34601Y4282D01*
G01X34597Y4332D01*
G01X34587Y4368D01*
G01X34567Y4390D01*
G01X34537Y4403D01*
G01X34497Y4409D01*
G01X34443Y4410D01*
G01X34380Y4406D01*
G01X34331Y4394D01*
G01X34297Y4376D01*
G01X34278Y4354D01*
G01X34275Y4329D01*
G01X34290Y4302D01*
G01X34322Y4276D01*
G01X34373Y4252D01*
G01X34430Y4221D01*
G01X34465Y4184D01*
G01X34479Y4143D01*
G01X34473Y4103D01*
G01X34448Y4066D01*
G01X34406Y4036D01*
G01X34347Y4015D01*
G01X34274Y4008D01*
G01X34224Y4011D01*
G01X34177Y4020D01*
G01X34134Y4035D01*
G01X34094Y4055D01*
G01X34058Y4081D01*
G01X34027Y4112D01*
G01X34000Y4148D01*
G01X33978Y4188D01*
G01X33960Y4234D01*
G01X33947Y4283D01*
G01X33939Y4338D01*
G01X33936Y4396D01*
G01X33941Y4443D01*
G01X33955Y4489D01*
G01X33976Y4533D01*
G01X34005Y4575D01*
G01X34039Y4614D01*
G01X34078Y4649D01*
G01X34121Y4678D01*
G01X34168Y4703D01*
G01X34217Y4721D01*
G01X34267Y4732D01*
G01X34317Y4736D01*
G01X34367Y4731D01*
G01X34439Y4723D01*
G01X34498Y4732D01*
G01X34542Y4754D01*
G01X34568Y4789D01*
G01X34574Y4824D01*
G01X34566Y4853D01*
G01X34544Y4873D01*
G01X34510Y4880D01*
G01X34467Y4883D01*
G01X34418Y4890D01*
G01X34370Y4900D01*
G01X34328Y4913D01*
G37*

%LPD*%
G36*
G01X36682Y4875D02*
G01X36654Y4880D01*
G01X36627Y4875D01*
G01X36604Y4857D01*
G01X36587Y4824D01*
G01X36573Y4774D01*
G01X36564Y4703D01*
G01X36558Y4610D01*
G01X36555Y4490D01*
G01X36554Y4343D01*
G01X36554Y3806D01*
G01X36856Y3806D01*
G01X36997Y3812D01*
G01X37091Y3829D01*
G01X37142Y3860D01*
G01X37158Y3907D01*
G01X37145Y3951D01*
G01X37107Y3982D01*
G01X37044Y4002D01*
G01X36957Y4008D01*
G01X36755Y4008D01*
G01X36755Y4444D01*
G01X36754Y4561D01*
G01X36750Y4657D01*
G01X36744Y4733D01*
G01X36735Y4790D01*
G01X36721Y4833D01*
G01X36704Y4860D01*
G01X36682Y4875D01*
G37*

%LPD*%
G36*
G01X35513Y4880D02*
G01X35212Y4880D01*
G01X35212Y3806D01*
G01X35513Y3806D01*
G01X35655Y3812D01*
G01X35748Y3829D01*
G01X35800Y3860D01*
G01X35816Y3907D01*
G01X35803Y3951D01*
G01X35765Y3982D01*
G01X35702Y4002D01*
G01X35614Y4008D01*
G01X35517Y4014D01*
G01X35455Y4036D01*
G01X35422Y4077D01*
G01X35413Y4142D01*
G01X35422Y4204D01*
G01X35451Y4246D01*
G01X35503Y4269D01*
G01X35581Y4276D01*
G01X35651Y4283D01*
G01X35704Y4303D01*
G01X35737Y4335D01*
G01X35748Y4377D01*
G01X35737Y4419D01*
G01X35704Y4451D01*
G01X35651Y4470D01*
G01X35581Y4478D01*
G01X35503Y4485D01*
G01X35451Y4507D01*
G01X35422Y4549D01*
G01X35413Y4612D01*
G01X35422Y4677D01*
G01X35455Y4718D01*
G01X35517Y4740D01*
G01X35614Y4746D01*
G01X35693Y4751D01*
G01X35757Y4766D01*
G01X35800Y4787D01*
G01X35816Y4813D01*
G01X35792Y4839D01*
G01X35727Y4861D01*
G01X35631Y4875D01*
G01X35513Y4880D01*
G37*

%LPD*%
G36*
G01X33189Y4875D02*
G01X33158Y4880D01*
G01X33129Y4877D01*
G01X33106Y4865D01*
G01X33089Y4843D01*
G01X33076Y4810D01*
G01X33070Y4762D01*
G01X33067Y4699D01*
G01X33069Y4617D01*
G01X33074Y4516D01*
G01X33079Y4443D01*
G01X33082Y4380D01*
G01X33085Y4327D01*
G01X33085Y4283D01*
G01X33084Y4250D01*
G01X33080Y4226D01*
G01X33075Y4212D01*
G01X33066Y4207D01*
G01X33055Y4213D01*
G01X33040Y4229D01*
G01X33021Y4254D01*
G01X32999Y4289D01*
G01X32972Y4335D01*
G01X32941Y4390D01*
G01X32906Y4455D01*
G01X32865Y4530D01*
G01X32828Y4594D01*
G01X32789Y4654D01*
G01X32750Y4710D01*
G01X32710Y4759D01*
G01X32672Y4801D01*
G01X32636Y4834D01*
G01X32604Y4856D01*
G01X32578Y4867D01*
G01X32553Y4871D01*
G01X32532Y4869D01*
G01X32515Y4862D01*
G01X32501Y4848D01*
G01X32489Y4827D01*
G01X32479Y4795D01*
G01X32472Y4754D01*
G01X32467Y4701D01*
G01X32464Y4634D01*
G01X32461Y4555D01*
G01X32460Y4460D01*
G01X32460Y4348D01*
G01X32461Y4234D01*
G01X32465Y4130D01*
G01X32471Y4038D01*
G01X32478Y3958D01*
G01X32489Y3894D01*
G01X32500Y3847D01*
G01X32513Y3817D01*
G01X32527Y3806D01*
G01X32540Y3815D01*
G01X32553Y3839D01*
G01X32565Y3877D01*
G01X32575Y3928D01*
G01X32583Y3990D01*
G01X32590Y4061D01*
G01X32594Y4141D01*
G01X32595Y4226D01*
G01X32596Y4645D01*
G01X32834Y4226D01*
G01X32874Y4155D01*
G01X32912Y4092D01*
G01X32948Y4035D01*
G01X32981Y3984D01*
G01X33012Y3940D01*
G01X33041Y3901D01*
G01X33068Y3870D01*
G01X33093Y3846D01*
G01X33117Y3827D01*
G01X33137Y3815D01*
G01X33157Y3810D01*
G01X33174Y3811D01*
G01X33190Y3819D01*
G01X33204Y3833D01*
G01X33216Y3854D01*
G01X33227Y3882D01*
G01X33236Y3916D01*
G01X33245Y3957D01*
G01X33251Y4005D01*
G01X33256Y4059D01*
G01X33260Y4120D01*
G01X33263Y4187D01*
G01X33265Y4262D01*
G01X33265Y4343D01*
G01X33264Y4494D01*
G01X33261Y4615D01*
G01X33255Y4709D01*
G01X33245Y4779D01*
G01X33231Y4828D01*
G01X33213Y4859D01*
G01X33189Y4875D01*
G37*

%LPD*%
G36*
G01X31551Y4876D02*
G01X31518Y4880D01*
G01X31483Y4875D01*
G01X31450Y4859D01*
G01X31420Y4829D01*
G01X31389Y4784D01*
G01X31359Y4722D01*
G01X31327Y4642D01*
G01X31292Y4542D01*
G01X31255Y4420D01*
G01X31227Y4326D01*
G01X31201Y4235D01*
G01X31178Y4150D01*
G01X31158Y4072D01*
G01X31141Y4005D01*
G01X31128Y3949D01*
G01X31121Y3908D01*
G01X31118Y3883D01*
G01X31124Y3839D01*
G01X31140Y3814D01*
G01X31164Y3805D01*
G01X31194Y3812D01*
G01X31227Y3833D01*
G01X31260Y3868D01*
G01X31292Y3916D01*
G01X31319Y3974D01*
G01X31355Y4044D01*
G01X31403Y4097D01*
G01X31458Y4130D01*
G01X31520Y4142D01*
G01X31582Y4130D01*
G01X31638Y4097D01*
G01X31685Y4044D01*
G01X31722Y3974D01*
G01X31746Y3919D01*
G01X31774Y3874D01*
G01X31803Y3839D01*
G01X31833Y3816D01*
G01X31861Y3802D01*
G01X31887Y3799D01*
G01X31910Y3806D01*
G01X31927Y3824D01*
G01X31938Y3851D01*
G01X31943Y3888D01*
G01X31938Y3934D01*
G01X31925Y3991D01*
G01X31911Y4035D01*
G01X31893Y4090D01*
G01X31873Y4154D01*
G01X31851Y4225D01*
G01X31827Y4300D01*
G01X31778Y4453D01*
G01X31755Y4528D01*
G01X31725Y4618D01*
G01X31696Y4693D01*
G01X31668Y4754D01*
G01X31640Y4802D01*
G01X31612Y4837D01*
G01X31582Y4862D01*
G01X31551Y4876D01*
G37*

%LPC*%
G36*
G01X31546Y4607D02*
G01X31520Y4612D01*
G01X31494Y4607D01*
G01X31473Y4593D01*
G01X31458Y4574D01*
G01X31453Y4550D01*
G01X31450Y4518D01*
G01X31441Y4475D01*
G01X31428Y4428D01*
G01X31412Y4382D01*
G01X31402Y4333D01*
G01X31415Y4300D01*
G01X31454Y4282D01*
G01X31520Y4276D01*
G01X31587Y4282D01*
G01X31626Y4300D01*
G01X31639Y4333D01*
G01X31628Y4382D01*
G01X31612Y4428D01*
G01X31599Y4475D01*
G01X31590Y4518D01*
G01X31587Y4550D01*
G01X31582Y4574D01*
G01X31568Y4593D01*
G01X31546Y4607D01*
G37*

%LPD*%
G54D38*
G01X14414Y36055D02*
G01X14793Y36055D01*
G01X14414Y34555D02*
G01X14792Y34555D01*
G01X14794Y29602D02*
G01X14415Y29602D01*
G01X14794Y31103D02*
G01X14416Y31103D01*
G54D10*
G01X3981Y43398D02*
G01X3981Y38897D01*
G01X481Y38897D01*
G01X481Y43398D01*
G01X3981Y43398D01*
G01X441Y42398D02*
G01X441Y39877D01*
G01X-1524Y39877D01*
G01X-1524Y42398D01*
G01X441Y42398D01*
G01X3981Y35143D02*
G01X3981Y30642D01*
G01X481Y30642D01*
G01X481Y35143D01*
G01X3981Y35143D01*
G01X441Y34143D02*
G01X441Y31622D01*
G01X-1524Y31622D01*
G01X-1524Y34143D01*
G01X441Y34143D01*
G01X4298Y25175D02*
G01X4298Y24560D01*
G01X4298Y21153D02*
G01X4298Y20636D01*
G01X2973Y26544D02*
G01X-693Y26561D01*
G01X-693Y26561D02*
G01X-693Y19168D01*
G01X-685Y19160D01*
G01X-685Y19160D02*
G01X2973Y19178D01*
G01X15194Y17185D02*
G01X19095Y17185D01*
G01X15194Y17185D02*
G01X15194Y22184D01*
G01X19095Y17185D02*
G01X19095Y22184D01*
G01X19095Y22184D02*
G01X17754Y22184D01*
G01X15194Y22184D02*
G01X16662Y22184D01*
G01X27824Y21108D02*
G01X26024Y21108D01*
G01X27824Y18008D02*
G01X26024Y18008D01*
G01X31724Y31280D02*
G01X31724Y29679D01*
G01X33574Y29685D02*
G01X34824Y29685D01*
G01X33574Y31285D02*
G01X34824Y31285D01*
G01X32974Y29679D02*
G01X31724Y29679D01*
G01X32974Y31280D02*
G01X31724Y31280D01*
G01X34824Y31285D02*
G01X34824Y29685D01*
G01X20218Y30695D02*
G01X20218Y32296D01*
G01X18368Y32290D02*
G01X17118Y32290D01*
G01X18368Y30690D02*
G01X17118Y30690D01*
G01X18968Y32296D02*
G01X20218Y32296D01*
G01X18968Y30695D02*
G01X20218Y30695D01*
G01X17118Y30690D02*
G01X17118Y32290D01*
G01X20218Y28536D02*
G01X20218Y30137D01*
G01X18368Y30131D02*
G01X17118Y30131D01*
G01X18368Y28531D02*
G01X17118Y28531D01*
G01X18968Y30137D02*
G01X20218Y30137D01*
G01X18968Y28536D02*
G01X20218Y28536D01*
G01X17118Y28531D02*
G01X17118Y30131D01*
G01X59270Y17373D02*
G01X60871Y17373D01*
G01X60865Y19223D02*
G01X60865Y20473D01*
G01X59265Y19223D02*
G01X59265Y20473D01*
G01X60871Y18623D02*
G01X60871Y17373D01*
G01X59270Y18623D02*
G01X59270Y17373D01*
G01X59265Y20473D02*
G01X60865Y20473D01*
G01X8991Y35090D02*
G01X8991Y33489D01*
G01X10841Y33495D02*
G01X12091Y33495D01*
G01X10841Y35095D02*
G01X12091Y35095D01*
G01X10241Y33489D02*
G01X8991Y33489D01*
G01X10241Y35090D02*
G01X8991Y35090D01*
G01X12091Y35095D02*
G01X12091Y33495D01*
G01X12090Y35648D02*
G01X12090Y37249D01*
G01X10240Y37243D02*
G01X8990Y37243D01*
G01X10240Y35643D02*
G01X8990Y35643D01*
G01X10840Y37249D02*
G01X12090Y37249D01*
G01X10840Y35648D02*
G01X12090Y35648D01*
G01X8990Y35643D02*
G01X8990Y37243D01*
G01X63728Y27978D02*
G01X63728Y26377D01*
G01X65578Y26383D02*
G01X66828Y26383D01*
G01X65578Y27983D02*
G01X66828Y27983D01*
G01X64978Y26377D02*
G01X63728Y26377D01*
G01X64978Y27978D02*
G01X63728Y27978D01*
G01X66828Y27983D02*
G01X66828Y26383D01*
G01X43205Y40982D02*
G01X43205Y42583D01*
G01X41355Y42577D02*
G01X40105Y42577D01*
G01X41355Y40977D02*
G01X40105Y40977D01*
G01X41955Y42583D02*
G01X43205Y42583D01*
G01X41955Y40982D02*
G01X43205Y40982D01*
G01X40105Y40977D02*
G01X40105Y42577D01*
G01X66827Y22821D02*
G01X66827Y24422D01*
G01X64977Y24416D02*
G01X63727Y24416D01*
G01X64977Y22816D02*
G01X63727Y22816D01*
G01X65577Y24422D02*
G01X66827Y24422D01*
G01X65577Y22821D02*
G01X66827Y22821D01*
G01X63727Y22816D02*
G01X63727Y24416D01*
G01X24358Y25057D02*
G01X24358Y23456D01*
G01X26208Y23462D02*
G01X27458Y23462D01*
G01X26208Y25062D02*
G01X27458Y25062D01*
G01X25608Y23456D02*
G01X24358Y23456D01*
G01X25608Y25057D02*
G01X24358Y25057D01*
G01X27458Y25062D02*
G01X27458Y23462D01*
G01X14630Y23329D02*
G01X14630Y24930D01*
G01X12780Y24924D02*
G01X11530Y24924D01*
G01X12780Y23324D02*
G01X11530Y23324D01*
G01X13380Y24930D02*
G01X14630Y24930D01*
G01X13380Y23329D02*
G01X14630Y23329D01*
G01X11530Y23324D02*
G01X11530Y24924D01*
G01X11014Y16510D02*
G01X9814Y16510D01*
G01X11214Y18560D02*
G01X11214Y19560D01*
G01X9613Y18560D02*
G01X9613Y19560D01*
G01X11214Y17760D02*
G01X11214Y16761D01*
G01X9613Y17760D02*
G01X9613Y16761D01*
G01X11014Y19811D02*
G01X9814Y19811D01*
G01X11214Y19611D02*
G01X11214Y19560D01*
G01X9613Y19610D02*
G01X9613Y19560D01*
G01X11214Y16710D02*
G01X11214Y16761D01*
G01X9613Y16711D02*
G01X9613Y16761D01*
G01X17145Y23529D02*
G01X17145Y24729D01*
G01X19195Y23329D02*
G01X20195Y23329D01*
G01X19195Y24930D02*
G01X20195Y24930D01*
G01X18395Y23329D02*
G01X17396Y23329D01*
G01X18395Y24930D02*
G01X17396Y24930D01*
G01X20446Y23529D02*
G01X20446Y24729D01*
G01X20246Y23329D02*
G01X20195Y23329D01*
G01X20245Y24930D02*
G01X20195Y24930D01*
G01X17345Y23329D02*
G01X17396Y23329D01*
G01X17346Y24930D02*
G01X17396Y24930D01*
G01X22513Y19684D02*
G01X23713Y19684D01*
G01X22313Y17634D02*
G01X22313Y16634D01*
G01X23914Y17634D02*
G01X23914Y16634D01*
G01X22313Y18434D02*
G01X22313Y19433D01*
G01X23914Y18434D02*
G01X23914Y19433D01*
G01X22513Y16383D02*
G01X23713Y16383D01*
G01X22313Y16583D02*
G01X22313Y16634D01*
G01X23914Y16584D02*
G01X23914Y16634D01*
G01X22313Y19484D02*
G01X22313Y19433D01*
G01X23914Y19483D02*
G01X23914Y19433D01*
G01X40005Y36864D02*
G01X40005Y38064D01*
G01X42055Y36664D02*
G01X43055Y36664D01*
G01X42055Y38265D02*
G01X43055Y38265D01*
G01X41255Y36664D02*
G01X40256Y36664D01*
G01X41255Y38265D02*
G01X40256Y38265D01*
G01X43306Y36864D02*
G01X43306Y38064D01*
G01X43106Y36664D02*
G01X43055Y36664D01*
G01X43105Y38265D02*
G01X43055Y38265D01*
G01X40205Y36664D02*
G01X40256Y36664D01*
G01X40206Y38265D02*
G01X40256Y38265D01*
G01X63211Y17272D02*
G01X62011Y17272D01*
G01X63411Y19322D02*
G01X63411Y20322D01*
G01X61810Y19322D02*
G01X61810Y20322D01*
G01X63411Y18522D02*
G01X63411Y17523D01*
G01X61810Y18522D02*
G01X61810Y17523D01*
G01X63211Y20573D02*
G01X62011Y20573D01*
G01X63411Y20373D02*
G01X63411Y20322D01*
G01X61810Y20372D02*
G01X61810Y20322D01*
G01X63411Y17472D02*
G01X63411Y17523D01*
G01X61810Y17473D02*
G01X61810Y17523D01*
G01X40005Y39023D02*
G01X40005Y40223D01*
G01X42055Y38823D02*
G01X43055Y38823D01*
G01X42055Y40424D02*
G01X43055Y40424D01*
G01X41255Y38823D02*
G01X40256Y38823D01*
G01X41255Y40424D02*
G01X40256Y40424D01*
G01X43306Y39023D02*
G01X43306Y40223D01*
G01X43106Y38823D02*
G01X43055Y38823D01*
G01X43105Y40424D02*
G01X43055Y40424D01*
G01X40205Y38823D02*
G01X40256Y38823D01*
G01X40206Y40424D02*
G01X40256Y40424D01*
G01X23128Y40080D02*
G01X21829Y40080D01*
G01X21829Y36881D02*
G01X23128Y36881D01*
G01X21829Y37763D02*
G01X21829Y37999D01*
G01X21829Y38962D02*
G01X21829Y39198D01*
G01X23128Y37763D02*
G01X23128Y37999D01*
G01X23128Y38962D02*
G01X23128Y39198D01*
G01X37143Y22792D02*
G01X37143Y17592D01*
G01X31944Y22792D02*
G01X31944Y17592D01*
G01X22097Y50292D02*
G01X22097Y50165D01*
G01X25653Y50165D01*
G01X25653Y50292D01*
G01X25653Y52451D02*
G01X25653Y51435D01*
G01X22097Y52451D02*
G01X22097Y51435D01*
G01X22097Y53594D02*
G01X22097Y53721D01*
G01X25653Y53721D01*
G01X25653Y53594D01*
G01X28575Y18034D02*
G01X28575Y58033D01*
G01X68574Y58033D01*
G01X68574Y18034D01*
G01X28575Y18034D01*
G01X13055Y14579D02*
G01X13055Y3454D01*
G01X3530Y3454D01*
G01X3530Y4572D01*
G01X50Y4572D01*
G01X50Y13462D01*
G01X3530Y13462D01*
G01X3530Y14579D01*
G01X13055Y14579D01*
G01X55524Y3454D02*
G01X55524Y14579D01*
G01X65049Y14579D01*
G01X65049Y13462D01*
G01X68529Y13462D01*
G01X68529Y4572D01*
G01X65049Y4572D01*
G01X65049Y3454D01*
G01X55524Y3454D01*
G01X34445Y42713D02*
G01X28546Y42713D01*
G01X28546Y36813D01*
G01X34445Y36813D01*
G01X34445Y42713D01*
G54D39*
G01X34852Y25781D02*
G01X33836Y26289D01*
G01X33836Y26289D02*
G01X33836Y25273D01*
G01X33836Y25273D02*
G01X34852Y25781D01*
G01X34852Y25781D02*
G01X34852Y26289D01*
G01X34852Y26289D02*
G01X34852Y25273D01*
G01X33644Y25781D02*
G01X35360Y25781D01*
G54D10*
G01X35336Y27559D02*
G01X35336Y24003D01*
G01X32385Y27559D02*
G01X36703Y27559D01*
G01X36703Y24003D02*
G01X32385Y24003D01*
G01X65112Y17638D02*
G01X64453Y17638D01*
G01X65112Y17638D01*
G01X64453Y17638D01*
G01X64453Y18453D01*
G01X67372Y18453D02*
G01X67372Y17638D01*
G01X66713Y17638D01*
G54D40*
G01X66212Y19187D02*
G01X65613Y19187D01*
G54D41*
G01X14351Y48133D02*
G01X19431Y48133D01*
G01X19431Y55753D01*
G01X14351Y55753D01*
G01X14351Y48133D01*
G01X14351Y53001D01*
G54D10*
G01X59297Y22911D02*
G01X59297Y23929D01*
G01X61097Y26042D02*
G01X61097Y26111D01*
G01X61097Y24142D02*
G01X61097Y24879D01*
G01X61097Y22911D02*
G01X61097Y22979D01*
G01X59297Y26111D02*
G01X61097Y26111D01*
G01X59297Y22911D02*
G01X61097Y22911D01*
G01X59297Y25092D02*
G01X59297Y26111D01*
G54D41*
G01X8763Y50673D02*
G01X6223Y50673D01*
G01X6223Y55753D01*
G01X8763Y55753D01*
G01X8763Y53848D01*
G54D42*
G01X8763Y50673D02*
G01X8763Y53848D01*
G54D38*
G01X13208Y37602D02*
G01X13208Y36512D01*
G01X13208Y37602D02*
G01X13675Y37602D01*
G01X13830Y37551D01*
G01X13883Y37498D01*
G01X13934Y37393D01*
G01X13934Y37238D01*
G01X13883Y37134D01*
G01X13830Y37084D01*
G01X13675Y37030D01*
G01X13208Y37030D01*
G01X14277Y37602D02*
G01X14538Y36512D01*
G01X14798Y37602D02*
G01X14538Y36512D01*
G01X14798Y37602D02*
G01X15057Y36512D01*
G01X15316Y37602D02*
G01X15057Y36512D01*
G01X15659Y37602D02*
G01X15659Y36512D01*
G01X15659Y37602D02*
G01X16129Y37602D01*
G01X16283Y37551D01*
G01X16334Y37498D01*
G01X16388Y37393D01*
G01X16388Y37289D01*
G01X16334Y37185D01*
G01X16283Y37134D01*
G01X16129Y37084D01*
G01X15659Y37084D01*
G01X16024Y37084D02*
G01X16388Y36512D01*
G01X13987Y32390D02*
G01X13934Y32494D01*
G01X13830Y32598D01*
G01X13728Y32649D01*
G01X13520Y32649D01*
G01X13416Y32598D01*
G01X13312Y32494D01*
G01X13258Y32390D01*
G01X13208Y32232D01*
G01X13208Y31973D01*
G01X13258Y31818D01*
G01X13312Y31714D01*
G01X13416Y31610D01*
G01X13520Y31559D01*
G01X13728Y31559D01*
G01X13830Y31610D01*
G01X13934Y31714D01*
G01X13987Y31818D01*
G01X14330Y32649D02*
G01X14330Y31559D01*
G01X14330Y32649D02*
G01X14798Y32649D01*
G01X14952Y32598D01*
G01X15006Y32545D01*
G01X15057Y32440D01*
G01X15057Y32336D01*
G01X15006Y32232D01*
G01X14952Y32181D01*
G01X14798Y32131D01*
G01X14330Y32131D01*
G01X14693Y32131D02*
G01X15057Y31559D01*
G01X16179Y32390D02*
G01X16129Y32494D01*
G01X16024Y32598D01*
G01X15920Y32649D01*
G01X15712Y32649D01*
G01X15608Y32598D01*
G01X15504Y32494D01*
G01X15453Y32390D01*
G01X15400Y32232D01*
G01X15400Y31973D01*
G01X15453Y31818D01*
G01X15504Y31714D01*
G01X15608Y31610D01*
G01X15712Y31559D01*
G01X15920Y31559D01*
G01X16024Y31610D01*
G01X16129Y31714D01*
G01X16179Y31818D01*
G01X16179Y31973D01*
G01X15920Y31973D02*
G01X16179Y31973D01*
G01X1143Y44841D02*
G01X1143Y43751D01*
G01X1143Y44841D02*
G01X1610Y44841D01*
G01X1765Y44790D01*
G01X1818Y44737D01*
G01X1869Y44632D01*
G01X1869Y44477D01*
G01X1818Y44373D01*
G01X1765Y44323D01*
G01X1610Y44269D01*
G01X1143Y44269D01*
G01X2212Y44841D02*
G01X2473Y43751D01*
G01X2733Y44841D02*
G01X2473Y43751D01*
G01X2733Y44841D02*
G01X2992Y43751D01*
G01X3251Y44841D02*
G01X2992Y43751D01*
G01X3594Y44841D02*
G01X3594Y43751D01*
G01X3594Y44841D02*
G01X4064Y44841D01*
G01X4218Y44790D01*
G01X4269Y44737D01*
G01X4323Y44632D01*
G01X4323Y44528D01*
G01X4269Y44424D01*
G01X4218Y44373D01*
G01X4064Y44323D01*
G01X3594Y44323D01*
G01X3959Y44323D02*
G01X4323Y43751D01*
G01X1270Y36713D02*
G01X1270Y35623D01*
G01X1270Y36713D02*
G01X1737Y36713D01*
G01X1892Y36662D01*
G01X1945Y36609D01*
G01X1996Y36504D01*
G01X1996Y36349D01*
G01X1945Y36245D01*
G01X1892Y36195D01*
G01X1737Y36141D01*
G01X1270Y36141D01*
G01X2755Y36713D02*
G01X2339Y35623D01*
G01X2755Y36713D02*
G01X3172Y35623D01*
G01X2496Y35986D02*
G01X3014Y35986D01*
G01X3515Y36713D02*
G01X3515Y35623D01*
G01X3858Y36713D02*
G01X3858Y35623D01*
G01X3858Y36713D02*
G01X4325Y36713D01*
G01X4480Y36662D01*
G01X4533Y36609D01*
G01X4584Y36504D01*
G01X4584Y36400D01*
G01X4533Y36296D01*
G01X4480Y36245D01*
G01X4325Y36195D01*
G01X3858Y36195D01*
G01X4221Y36195D02*
G01X4584Y35623D01*
G01X635Y28458D02*
G01X635Y27678D01*
G01X685Y27523D01*
G01X789Y27419D01*
G01X947Y27368D01*
G01X1051Y27368D01*
G01X1206Y27419D01*
G01X1310Y27523D01*
G01X1361Y27678D01*
G01X1361Y28458D01*
G01X2433Y28303D02*
G01X2329Y28407D01*
G01X2171Y28458D01*
G01X1965Y28458D01*
G01X1808Y28407D01*
G01X1704Y28303D01*
G01X1704Y28199D01*
G01X1757Y28094D01*
G01X1808Y28041D01*
G01X1912Y27990D01*
G01X2225Y27886D01*
G01X2329Y27835D01*
G01X2379Y27782D01*
G01X2433Y27678D01*
G01X2433Y27523D01*
G01X2329Y27419D01*
G01X2171Y27368D01*
G01X1965Y27368D01*
G01X1808Y27419D01*
G01X1704Y27523D01*
G01X2776Y28458D02*
G01X2776Y27368D01*
G01X2776Y28458D02*
G01X3243Y28458D01*
G01X3398Y28407D01*
G01X3451Y28354D01*
G01X3502Y28249D01*
G01X3502Y28145D01*
G01X3451Y28041D01*
G01X3398Y27990D01*
G01X3243Y27940D01*
G01X2776Y27940D02*
G01X3243Y27940D01*
G01X3398Y27886D01*
G01X3451Y27835D01*
G01X3502Y27731D01*
G01X3502Y27574D01*
G01X3451Y27470D01*
G01X3398Y27419D01*
G01X3243Y27368D01*
G01X2776Y27368D01*
G01X3845Y28249D02*
G01X3949Y28303D01*
G01X4104Y28458D01*
G01X4104Y27368D01*
G01X15367Y23632D02*
G01X15367Y22852D01*
G01X15417Y22697D01*
G01X15521Y22593D01*
G01X15679Y22542D01*
G01X15783Y22542D01*
G01X15938Y22593D01*
G01X16042Y22697D01*
G01X16093Y22852D01*
G01X16093Y23632D01*
G01X16436Y23423D02*
G01X16540Y23477D01*
G01X16697Y23632D01*
G01X16697Y22542D01*
G01X26289Y22616D02*
G01X26289Y21836D01*
G01X26339Y21681D01*
G01X26443Y21577D01*
G01X26601Y21526D01*
G01X26705Y21526D01*
G01X26860Y21577D01*
G01X26964Y21681D01*
G01X27015Y21836D01*
G01X27015Y22616D01*
G01X27983Y22616D02*
G01X27462Y22616D01*
G01X27411Y22148D01*
G01X27462Y22199D01*
G01X27619Y22252D01*
G01X27774Y22252D01*
G01X27929Y22199D01*
G01X28033Y22098D01*
G01X28087Y21940D01*
G01X28087Y21836D01*
G01X28033Y21681D01*
G01X27929Y21577D01*
G01X27774Y21526D01*
G01X27619Y21526D01*
G01X27462Y21577D01*
G01X27411Y21628D01*
G01X27358Y21732D01*
G01X32385Y32649D02*
G01X32385Y31559D01*
G01X32385Y32649D02*
G01X32852Y32649D01*
G01X33007Y32598D01*
G01X33060Y32545D01*
G01X33111Y32440D01*
G01X33111Y32336D01*
G01X33060Y32232D01*
G01X33007Y32181D01*
G01X32852Y32131D01*
G01X32385Y32131D01*
G01X32748Y32131D02*
G01X33111Y31559D01*
G01X33715Y32649D02*
G01X33558Y32598D01*
G01X33507Y32494D01*
G01X33507Y32390D01*
G01X33558Y32285D01*
G01X33662Y32232D01*
G01X33870Y32181D01*
G01X34025Y32131D01*
G01X34129Y32026D01*
G01X34183Y31922D01*
G01X34183Y31765D01*
G01X34129Y31661D01*
G01X34079Y31610D01*
G01X33921Y31559D01*
G01X33715Y31559D01*
G01X33558Y31610D01*
G01X33507Y31661D01*
G01X33454Y31765D01*
G01X33454Y31922D01*
G01X33507Y32026D01*
G01X33611Y32131D01*
G01X33766Y32181D01*
G01X33975Y32232D01*
G01X34079Y32285D01*
G01X34129Y32390D01*
G01X34129Y32494D01*
G01X34079Y32598D01*
G01X33921Y32649D01*
G01X33715Y32649D01*
G01X17780Y33665D02*
G01X17780Y32575D01*
G01X17780Y33665D02*
G01X18247Y33665D01*
G01X18402Y33614D01*
G01X18455Y33561D01*
G01X18506Y33456D01*
G01X18506Y33352D01*
G01X18455Y33248D01*
G01X18402Y33197D01*
G01X18247Y33147D01*
G01X17780Y33147D01*
G01X18143Y33147D02*
G01X18506Y32575D01*
G01X19370Y33665D02*
G01X18849Y32938D01*
G01X19629Y32938D01*
G01X19370Y33665D02*
G01X19370Y32575D01*
G01X17780Y28204D02*
G01X17780Y27114D01*
G01X17780Y28204D02*
G01X18247Y28204D01*
G01X18402Y28153D01*
G01X18455Y28100D01*
G01X18506Y27995D01*
G01X18506Y27891D01*
G01X18455Y27787D01*
G01X18402Y27736D01*
G01X18247Y27686D01*
G01X17780Y27686D01*
G01X18143Y27686D02*
G01X18506Y27114D01*
G01X18953Y28204D02*
G01X19524Y28204D01*
G01X19215Y27787D01*
G01X19370Y27787D01*
G01X19474Y27736D01*
G01X19524Y27686D01*
G01X19578Y27528D01*
G01X19578Y27424D01*
G01X19524Y27269D01*
G01X19420Y27165D01*
G01X19265Y27114D01*
G01X19110Y27114D01*
G01X18953Y27165D01*
G01X18902Y27216D01*
G01X18849Y27320D01*
G01X59182Y21981D02*
G01X59182Y20891D01*
G01X59182Y21981D02*
G01X59649Y21981D01*
G01X59804Y21930D01*
G01X59857Y21877D01*
G01X59908Y21772D01*
G01X59908Y21668D01*
G01X59857Y21564D01*
G01X59804Y21513D01*
G01X59649Y21463D01*
G01X59182Y21463D01*
G01X59545Y21463D02*
G01X59908Y20891D01*
G01X60876Y21826D02*
G01X60822Y21930D01*
G01X60667Y21981D01*
G01X60563Y21981D01*
G01X60408Y21930D01*
G01X60304Y21772D01*
G01X60251Y21513D01*
G01X60251Y21254D01*
G01X60304Y21046D01*
G01X60408Y20942D01*
G01X60563Y20891D01*
G01X60617Y20891D01*
G01X60772Y20942D01*
G01X60876Y21046D01*
G01X60926Y21201D01*
G01X60926Y21254D01*
G01X60876Y21409D01*
G01X60772Y21513D01*
G01X60617Y21564D01*
G01X60563Y21564D01*
G01X60408Y21513D01*
G01X60304Y21409D01*
G01X60251Y21254D01*
G01X9525Y33157D02*
G01X9525Y32067D01*
G01X9525Y33157D02*
G01X9992Y33157D01*
G01X10147Y33106D01*
G01X10200Y33053D01*
G01X10251Y32948D01*
G01X10251Y32844D01*
G01X10200Y32740D01*
G01X10147Y32689D01*
G01X9992Y32639D01*
G01X9525Y32639D01*
G01X9888Y32639D02*
G01X10251Y32067D01*
G01X10594Y32948D02*
G01X10698Y33002D01*
G01X10855Y33157D01*
G01X10855Y32067D01*
G01X11198Y32948D02*
G01X11303Y33002D01*
G01X11457Y33157D01*
G01X11457Y32067D01*
G01X9779Y38618D02*
G01X9779Y37528D01*
G01X9779Y38618D02*
G01X10246Y38618D01*
G01X10401Y38567D01*
G01X10454Y38514D01*
G01X10505Y38409D01*
G01X10505Y38305D01*
G01X10454Y38201D01*
G01X10401Y38150D01*
G01X10246Y38100D01*
G01X9779Y38100D01*
G01X10142Y38100D02*
G01X10505Y37528D01*
G01X10848Y38409D02*
G01X10952Y38463D01*
G01X11109Y38618D01*
G01X11109Y37528D01*
G01X64389Y29347D02*
G01X64389Y28257D01*
G01X64389Y29347D02*
G01X64856Y29347D01*
G01X65011Y29296D01*
G01X65064Y29243D01*
G01X65115Y29138D01*
G01X65115Y29034D01*
G01X65064Y28930D01*
G01X65011Y28879D01*
G01X64856Y28829D01*
G01X64389Y28829D01*
G01X64752Y28829D02*
G01X65115Y28257D01*
G01X65511Y29088D02*
G01X65511Y29138D01*
G01X65562Y29243D01*
G01X65615Y29296D01*
G01X65719Y29347D01*
G01X65925Y29347D01*
G01X66029Y29296D01*
G01X66083Y29243D01*
G01X66133Y29138D01*
G01X66133Y29034D01*
G01X66083Y28930D01*
G01X65979Y28775D01*
G01X65458Y28257D01*
G01X66187Y28257D01*
G01X43434Y42301D02*
G01X43434Y41211D01*
G01X43434Y42301D02*
G01X43901Y42301D01*
G01X44056Y42250D01*
G01X44109Y42197D01*
G01X44160Y42092D01*
G01X44160Y41988D01*
G01X44109Y41884D01*
G01X44056Y41833D01*
G01X43901Y41783D01*
G01X43434Y41783D01*
G01X43797Y41783D02*
G01X44160Y41211D01*
G01X44503Y42092D02*
G01X44607Y42146D01*
G01X44764Y42301D01*
G01X44764Y41211D01*
G01X45417Y42301D02*
G01X45262Y42250D01*
G01X45158Y42092D01*
G01X45107Y41833D01*
G01X45107Y41678D01*
G01X45158Y41417D01*
G01X45262Y41262D01*
G01X45417Y41211D01*
G01X45521Y41211D01*
G01X45679Y41262D01*
G01X45783Y41417D01*
G01X45834Y41678D01*
G01X45834Y41833D01*
G01X45783Y42092D01*
G01X45679Y42250D01*
G01X45521Y42301D01*
G01X45417Y42301D01*
G01X64389Y25791D02*
G01X64389Y24701D01*
G01X64389Y25791D02*
G01X64856Y25791D01*
G01X65011Y25740D01*
G01X65064Y25687D01*
G01X65115Y25582D01*
G01X65115Y25478D01*
G01X65064Y25374D01*
G01X65011Y25323D01*
G01X64856Y25273D01*
G01X64389Y25273D01*
G01X64752Y25273D02*
G01X65115Y24701D01*
G01X66187Y25791D02*
G01X65666Y24701D01*
G01X65458Y25791D02*
G01X66187Y25791D01*
G01X25146Y26426D02*
G01X25146Y25336D01*
G01X25146Y26426D02*
G01X25613Y26426D01*
G01X25768Y26375D01*
G01X25821Y26322D01*
G01X25872Y26217D01*
G01X25872Y26113D01*
G01X25821Y26009D01*
G01X25768Y25958D01*
G01X25613Y25908D01*
G01X25146Y25908D01*
G01X25509Y25908D02*
G01X25872Y25336D01*
G01X26890Y26062D02*
G01X26840Y25908D01*
G01X26736Y25803D01*
G01X26581Y25750D01*
G01X26527Y25750D01*
G01X26372Y25803D01*
G01X26268Y25908D01*
G01X26215Y26062D01*
G01X26215Y26113D01*
G01X26268Y26271D01*
G01X26372Y26375D01*
G01X26527Y26426D01*
G01X26581Y26426D01*
G01X26736Y26375D01*
G01X26840Y26271D01*
G01X26890Y26062D01*
G01X26890Y25803D01*
G01X26840Y25542D01*
G01X26736Y25387D01*
G01X26581Y25336D01*
G01X26476Y25336D01*
G01X26319Y25387D01*
G01X26268Y25491D01*
G01X12192Y26299D02*
G01X12192Y25209D01*
G01X12192Y26299D02*
G01X12659Y26299D01*
G01X12814Y26248D01*
G01X12867Y26195D01*
G01X12918Y26090D01*
G01X12918Y25986D01*
G01X12867Y25882D01*
G01X12814Y25831D01*
G01X12659Y25781D01*
G01X12192Y25781D01*
G01X12555Y25781D02*
G01X12918Y25209D01*
G01X13886Y26299D02*
G01X13365Y26299D01*
G01X13314Y25831D01*
G01X13365Y25882D01*
G01X13522Y25935D01*
G01X13677Y25935D01*
G01X13832Y25882D01*
G01X13936Y25781D01*
G01X13990Y25623D01*
G01X13990Y25519D01*
G01X13936Y25364D01*
G01X13832Y25260D01*
G01X13677Y25209D01*
G01X13522Y25209D01*
G01X13365Y25260D01*
G01X13314Y25311D01*
G01X13261Y25415D01*
G01X10177Y20960D02*
G01X10124Y21064D01*
G01X10020Y21168D01*
G01X9918Y21219D01*
G01X9710Y21219D01*
G01X9606Y21168D01*
G01X9502Y21064D01*
G01X9448Y20960D01*
G01X9398Y20802D01*
G01X9398Y20543D01*
G01X9448Y20388D01*
G01X9502Y20284D01*
G01X9606Y20180D01*
G01X9710Y20129D01*
G01X9918Y20129D01*
G01X10020Y20180D01*
G01X10124Y20284D01*
G01X10177Y20388D01*
G01X10624Y21219D02*
G01X11196Y21219D01*
G01X10883Y20802D01*
G01X11038Y20802D01*
G01X11142Y20751D01*
G01X11196Y20701D01*
G01X11247Y20543D01*
G01X11247Y20439D01*
G01X11196Y20284D01*
G01X11092Y20180D01*
G01X10934Y20129D01*
G01X10779Y20129D01*
G01X10624Y20180D01*
G01X10571Y20231D01*
G01X10520Y20335D01*
G01X18559Y26040D02*
G01X18506Y26144D01*
G01X18402Y26248D01*
G01X18300Y26299D01*
G01X18092Y26299D01*
G01X17988Y26248D01*
G01X17884Y26144D01*
G01X17830Y26040D01*
G01X17780Y25882D01*
G01X17780Y25623D01*
G01X17830Y25468D01*
G01X17884Y25364D01*
G01X17988Y25260D01*
G01X18092Y25209D01*
G01X18300Y25209D01*
G01X18402Y25260D01*
G01X18506Y25364D01*
G01X18559Y25468D01*
G01X19420Y26299D02*
G01X18902Y25572D01*
G01X19682Y25572D01*
G01X19420Y26299D02*
G01X19420Y25209D01*
G01X22877Y20833D02*
G01X22824Y20937D01*
G01X22720Y21041D01*
G01X22618Y21092D01*
G01X22410Y21092D01*
G01X22306Y21041D01*
G01X22202Y20937D01*
G01X22148Y20833D01*
G01X22098Y20675D01*
G01X22098Y20416D01*
G01X22148Y20261D01*
G01X22202Y20157D01*
G01X22306Y20053D01*
G01X22410Y20002D01*
G01X22618Y20002D01*
G01X22720Y20053D01*
G01X22824Y20157D01*
G01X22877Y20261D01*
G01X23842Y20937D02*
G01X23792Y21041D01*
G01X23634Y21092D01*
G01X23533Y21092D01*
G01X23375Y21041D01*
G01X23271Y20883D01*
G01X23220Y20624D01*
G01X23220Y20365D01*
G01X23271Y20157D01*
G01X23375Y20053D01*
G01X23533Y20002D01*
G01X23583Y20002D01*
G01X23738Y20053D01*
G01X23842Y20157D01*
G01X23896Y20312D01*
G01X23896Y20365D01*
G01X23842Y20520D01*
G01X23738Y20624D01*
G01X23583Y20675D01*
G01X23533Y20675D01*
G01X23375Y20624D01*
G01X23271Y20520D01*
G01X23220Y20365D01*
G01X44340Y37851D02*
G01X44287Y37955D01*
G01X44183Y38059D01*
G01X44081Y38110D01*
G01X43873Y38110D01*
G01X43769Y38059D01*
G01X43665Y37955D01*
G01X43611Y37851D01*
G01X43561Y37693D01*
G01X43561Y37434D01*
G01X43611Y37279D01*
G01X43665Y37175D01*
G01X43769Y37071D01*
G01X43873Y37020D01*
G01X44081Y37020D01*
G01X44183Y37071D01*
G01X44287Y37175D01*
G01X44340Y37279D01*
G01X45410Y38110D02*
G01X44891Y37020D01*
G01X44683Y38110D02*
G01X45410Y38110D01*
G01X62501Y21722D02*
G01X62448Y21826D01*
G01X62344Y21930D01*
G01X62242Y21981D01*
G01X62034Y21981D01*
G01X61930Y21930D01*
G01X61826Y21826D01*
G01X61772Y21722D01*
G01X61722Y21564D01*
G01X61722Y21305D01*
G01X61772Y21150D01*
G01X61826Y21046D01*
G01X61930Y20942D01*
G01X62034Y20891D01*
G01X62242Y20891D01*
G01X62344Y20942D01*
G01X62448Y21046D01*
G01X62501Y21150D01*
G01X63466Y21981D02*
G01X62948Y21981D01*
G01X62895Y21513D01*
G01X62948Y21564D01*
G01X63103Y21617D01*
G01X63258Y21617D01*
G01X63416Y21564D01*
G01X63520Y21463D01*
G01X63571Y21305D01*
G01X63571Y21201D01*
G01X63520Y21046D01*
G01X63416Y20942D01*
G01X63258Y20891D01*
G01X63103Y20891D01*
G01X62948Y20942D01*
G01X62895Y20993D01*
G01X62844Y21097D01*
G01X44340Y40010D02*
G01X44287Y40114D01*
G01X44183Y40218D01*
G01X44081Y40269D01*
G01X43873Y40269D01*
G01X43769Y40218D01*
G01X43665Y40114D01*
G01X43611Y40010D01*
G01X43561Y39852D01*
G01X43561Y39593D01*
G01X43611Y39438D01*
G01X43665Y39334D01*
G01X43769Y39230D01*
G01X43873Y39179D01*
G01X44081Y39179D01*
G01X44183Y39230D01*
G01X44287Y39334D01*
G01X44340Y39438D01*
G01X44942Y40269D02*
G01X44787Y40218D01*
G01X44734Y40114D01*
G01X44734Y40010D01*
G01X44787Y39905D01*
G01X44891Y39852D01*
G01X45097Y39801D01*
G01X45255Y39751D01*
G01X45359Y39646D01*
G01X45410Y39542D01*
G01X45410Y39385D01*
G01X45359Y39281D01*
G01X45305Y39230D01*
G01X45151Y39179D01*
G01X44942Y39179D01*
G01X44787Y39230D01*
G01X44734Y39281D01*
G01X44683Y39385D01*
G01X44683Y39542D01*
G01X44734Y39646D01*
G01X44838Y39751D01*
G01X44996Y39801D01*
G01X45201Y39852D01*
G01X45305Y39905D01*
G01X45359Y40010D01*
G01X45359Y40114D01*
G01X45305Y40218D01*
G01X45151Y40269D01*
G01X44942Y40269D01*
G01X21844Y41539D02*
G01X22570Y40449D01*
G01X22570Y41539D02*
G01X21844Y40449D01*
G01X22913Y41330D02*
G01X23017Y41384D01*
G01X23174Y41539D01*
G01X23174Y40449D01*
G01X37592Y20711D02*
G01X37592Y19621D01*
G01X37592Y19621D02*
G01X38214Y19621D01*
G01X38557Y20502D02*
G01X38661Y20556D01*
G01X38818Y20711D01*
G01X38818Y19621D01*
G01X22606Y55128D02*
G01X22606Y54038D01*
G01X22606Y55128D02*
G01X23073Y55128D01*
G01X23228Y55077D01*
G01X23281Y55024D01*
G01X23332Y54919D01*
G01X23332Y54815D01*
G01X23281Y54711D01*
G01X23228Y54660D01*
G01X23073Y54610D01*
G01X22606Y54610D01*
G01X22969Y54610D02*
G01X23332Y54038D01*
G01X24404Y54973D02*
G01X24300Y55077D01*
G01X24142Y55128D01*
G01X23936Y55128D01*
G01X23779Y55077D01*
G01X23675Y54973D01*
G01X23675Y54869D01*
G01X23728Y54764D01*
G01X23779Y54711D01*
G01X23883Y54660D01*
G01X24196Y54556D01*
G01X24300Y54505D01*
G01X24350Y54452D01*
G01X24404Y54348D01*
G01X24404Y54193D01*
G01X24300Y54089D01*
G01X24142Y54038D01*
G01X23936Y54038D01*
G01X23779Y54089D01*
G01X23675Y54193D01*
G01X25110Y55128D02*
G01X25110Y54038D01*
G01X24747Y55128D02*
G01X25473Y55128D01*
G01X41292Y22484D02*
G01X41239Y22588D01*
G01X41135Y22692D01*
G01X41033Y22743D01*
G01X40825Y22743D01*
G01X40721Y22692D01*
G01X40617Y22588D01*
G01X40563Y22484D01*
G01X40513Y22326D01*
G01X40513Y22067D01*
G01X40563Y21912D01*
G01X40617Y21808D01*
G01X40721Y21704D01*
G01X40825Y21653D01*
G01X41033Y21653D01*
G01X41135Y21704D01*
G01X41239Y21808D01*
G01X41292Y21912D01*
G01X41292Y22067D01*
G01X41033Y22067D02*
G01X41292Y22067D01*
G54D41*
G01X43180Y22743D02*
G01X43180Y21653D01*
G01X43180Y22743D02*
G01X43647Y22743D01*
G01X43802Y22692D01*
G01X43855Y22639D01*
G01X43906Y22534D01*
G01X43906Y22430D01*
G01X43855Y22326D01*
G01X43802Y22275D01*
G01X43647Y22225D01*
G01X43180Y22225D01*
G01X43543Y22225D02*
G01X43906Y21653D01*
G54D38*
G01X46083Y22743D02*
G01X46083Y21653D01*
G01X45720Y22743D02*
G01X46446Y22743D01*
G01X48260Y22743D02*
G01X48260Y21653D01*
G01X48986Y22743D02*
G01X48260Y22016D01*
G01X48519Y22275D02*
G01X48986Y21653D01*
G01X50673Y22743D02*
G01X51089Y21653D01*
G01X51503Y22743D02*
G01X51089Y21653D01*
G01X53992Y22484D02*
G01X53939Y22588D01*
G01X53835Y22692D01*
G01X53733Y22743D01*
G01X53525Y22743D01*
G01X53421Y22692D01*
G01X53317Y22588D01*
G01X53263Y22484D01*
G01X53213Y22326D01*
G01X53213Y22067D01*
G01X53263Y21912D01*
G01X53317Y21808D01*
G01X53421Y21704D01*
G01X53525Y21653D01*
G01X53733Y21653D01*
G01X53835Y21704D01*
G01X53939Y21808D01*
G01X53992Y21912D01*
G01X53992Y22067D01*
G01X53733Y22067D02*
G01X53992Y22067D01*
G01X56479Y22588D02*
G01X56375Y22692D01*
G01X56220Y22743D01*
G01X56012Y22743D01*
G01X55857Y22692D01*
G01X55753Y22588D01*
G01X55753Y22484D01*
G01X55803Y22379D01*
G01X55857Y22326D01*
G01X55961Y22275D01*
G01X56273Y22171D01*
G01X56375Y22120D01*
G01X56428Y22067D01*
G01X56479Y21963D01*
G01X56479Y21808D01*
G01X56375Y21704D01*
G01X56220Y21653D01*
G01X56012Y21653D01*
G01X55857Y21704D01*
G01X55753Y21808D01*
G01X14627Y10858D02*
G01X14627Y9768D01*
G01X14627Y10858D02*
G01X15095Y10858D01*
G01X15250Y10807D01*
G01X15303Y10754D01*
G01X15354Y10650D01*
G01X15354Y10546D01*
G01X15303Y10441D01*
G01X15250Y10391D01*
G01X15095Y10340D01*
G01X14627Y10340D02*
G01X15095Y10340D01*
G01X15250Y10287D01*
G01X15303Y10236D01*
G01X15354Y10132D01*
G01X15354Y9974D01*
G01X15303Y9870D01*
G01X15250Y9819D01*
G01X15095Y9768D01*
G01X14627Y9768D01*
G01X16113Y10858D02*
G01X15697Y9768D01*
G01X16113Y10858D02*
G01X16530Y9768D01*
G01X15854Y10132D02*
G01X16372Y10132D01*
G01X17236Y10858D02*
G01X17236Y9768D01*
G01X16873Y10858D02*
G01X17599Y10858D01*
G01X18305Y10858D02*
G01X18305Y9768D01*
G01X17942Y10858D02*
G01X18669Y10858D01*
G01X16578Y8577D02*
G01X16578Y6916D01*
G01X15748Y7747D02*
G01X17411Y7747D01*
G01X50800Y7747D02*
G01X52463Y7747D01*
G01X35179Y44714D02*
G01X35179Y43934D01*
G01X35229Y43779D01*
G01X35333Y43675D01*
G01X35491Y43624D01*
G01X35595Y43624D01*
G01X35750Y43675D01*
G01X35854Y43779D01*
G01X35905Y43934D01*
G01X35905Y44714D01*
G01X36352Y44714D02*
G01X36923Y44714D01*
G01X36614Y44297D01*
G01X36769Y44297D01*
G01X36873Y44246D01*
G01X36923Y44196D01*
G01X36977Y44038D01*
G01X36977Y43934D01*
G01X36923Y43779D01*
G01X36819Y43675D01*
G01X36664Y43624D01*
G01X36509Y43624D01*
G01X36352Y43675D01*
G01X36301Y43726D01*
G01X36248Y43830D01*
G01X33782Y28966D02*
G01X33782Y27876D01*
G01X33782Y28966D02*
G01X34145Y28966D01*
G01X34302Y28915D01*
G01X34404Y28811D01*
G01X34457Y28707D01*
G01X34508Y28549D01*
G01X34508Y28290D01*
G01X34457Y28135D01*
G01X34404Y28031D01*
G01X34302Y27927D01*
G01X34145Y27876D01*
G01X33782Y27876D01*
G01X34851Y28757D02*
G01X34955Y28811D01*
G01X35112Y28966D01*
G01X35112Y27876D01*
G01X65024Y21600D02*
G01X65024Y20820D01*
G01X65074Y20665D01*
G01X65178Y20561D01*
G01X65336Y20510D01*
G01X65440Y20510D01*
G01X65595Y20561D01*
G01X65699Y20665D01*
G01X65750Y20820D01*
G01X65750Y21600D01*
G01X66614Y21600D02*
G01X66093Y20873D01*
G01X66873Y20873D01*
G01X66614Y21600D02*
G01X66614Y20510D01*
G01X15367Y57160D02*
G01X15367Y56070D01*
G01X16489Y56901D02*
G01X16436Y57005D01*
G01X16332Y57109D01*
G01X16230Y57160D01*
G01X16022Y57160D01*
G01X15918Y57109D01*
G01X15814Y57005D01*
G01X15760Y56901D01*
G01X15709Y56743D01*
G01X15709Y56484D01*
G01X15760Y56329D01*
G01X15814Y56225D01*
G01X15918Y56121D01*
G01X16022Y56070D01*
G01X16230Y56070D01*
G01X16332Y56121D01*
G01X16436Y56225D01*
G01X16489Y56329D01*
G01X17559Y57005D02*
G01X17454Y57109D01*
G01X17299Y57160D01*
G01X17091Y57160D01*
G01X16936Y57109D01*
G01X16832Y57005D01*
G01X16832Y56901D01*
G01X16883Y56796D01*
G01X16936Y56743D01*
G01X17040Y56692D01*
G01X17350Y56588D01*
G01X17454Y56537D01*
G01X17508Y56484D01*
G01X17559Y56380D01*
G01X17559Y56225D01*
G01X17454Y56121D01*
G01X17299Y56070D01*
G01X17091Y56070D01*
G01X16936Y56121D01*
G01X16832Y56225D01*
G01X17901Y57160D02*
G01X17901Y56070D01*
G01X17901Y57160D02*
G01X18369Y57160D01*
G01X18526Y57109D01*
G01X18577Y57056D01*
G01X18630Y56951D01*
G01X18630Y56796D01*
G01X18577Y56692D01*
G01X18526Y56642D01*
G01X18369Y56588D01*
G01X17901Y56588D01*
G01X57589Y26426D02*
G01X57485Y26375D01*
G01X57381Y26271D01*
G01X57327Y26167D01*
G01X57277Y26009D01*
G01X57277Y25750D01*
G01X57327Y25595D01*
G01X57381Y25491D01*
G01X57485Y25387D01*
G01X57589Y25336D01*
G01X57797Y25336D01*
G01X57899Y25387D01*
G01X58003Y25491D01*
G01X58056Y25595D01*
G01X58107Y25750D01*
G01X58107Y26009D01*
G01X58056Y26167D01*
G01X58003Y26271D01*
G01X57899Y26375D01*
G01X57797Y26426D01*
G01X57589Y26426D01*
G01X57744Y25542D02*
G01X58056Y25232D01*
G01X58450Y26217D02*
G01X58554Y26271D01*
G01X58712Y26426D01*
G01X58712Y25336D01*
G01X6477Y57160D02*
G01X6477Y56070D01*
G01X6870Y56901D02*
G01X6870Y56951D01*
G01X6924Y57056D01*
G01X6974Y57109D01*
G01X7078Y57160D01*
G01X7287Y57160D01*
G01X7391Y57109D01*
G01X7442Y57056D01*
G01X7495Y56951D01*
G01X7495Y56847D01*
G01X7442Y56743D01*
G01X7340Y56588D01*
G01X6819Y56070D01*
G01X7546Y56070D01*
G01X8669Y56901D02*
G01X8618Y57005D01*
G01X8514Y57109D01*
G01X8409Y57160D01*
G01X8201Y57160D01*
G01X8097Y57109D01*
G01X7993Y57005D01*
G01X7942Y56901D01*
G01X7889Y56743D01*
G01X7889Y56484D01*
G01X7942Y56329D01*
G01X7993Y56225D01*
G01X8097Y56121D01*
G01X8201Y56070D01*
G01X8409Y56070D01*
G01X8514Y56121D01*
G01X8618Y56225D01*
G01X8669Y56329D01*
G54D43*
G75*
G01X14707Y22377D02*
G03X14707Y22375I-150J-1D01*
G01*
G54D10*
G75*
G01X17755Y22185D02*
G02X16662Y22184I-547J0D01*
G01*
G75*
G01X11014Y19811D02*
G02X11214Y19611I0J-200D01*
G01*
G75*
G01X9814Y19811D02*
G03X9614Y19611I0J-200D01*
G01*
G75*
G01X11014Y16511D02*
G03X11214Y16711I0J200D01*
G01*
G75*
G01X9814Y16511D02*
G02X9614Y16711I0J200D01*
G01*
G75*
G01X20446Y23530D02*
G02X20246Y23330I-200J0D01*
G01*
G75*
G01X20446Y24730D02*
G03X20246Y24930I-200J0D01*
G01*
G75*
G01X17146Y23530D02*
G03X17346Y23330I200J0D01*
G01*
G75*
G01X17146Y24730D02*
G02X17346Y24930I200J0D01*
G01*
G75*
G01X22514Y16384D02*
G02X22314Y16584I0J200D01*
G01*
G75*
G01X23714Y16384D02*
G03X23914Y16584I0J200D01*
G01*
G75*
G01X22514Y19684D02*
G03X22314Y19484I0J-200D01*
G01*
G75*
G01X23714Y19684D02*
G02X23914Y19484I0J-200D01*
G01*
G75*
G01X43306Y36865D02*
G02X43106Y36665I-200J0D01*
G01*
G75*
G01X43306Y38065D02*
G03X43106Y38265I-200J0D01*
G01*
G75*
G01X40006Y36865D02*
G03X40206Y36665I200J0D01*
G01*
G75*
G01X40006Y38065D02*
G02X40206Y38265I200J0D01*
G01*
G75*
G01X63211Y20573D02*
G02X63411Y20373I0J-200D01*
G01*
G75*
G01X62011Y20573D02*
G03X61811Y20373I0J-200D01*
G01*
G75*
G01X63211Y17273D02*
G03X63411Y17473I0J200D01*
G01*
G75*
G01X62011Y17273D02*
G02X61811Y17473I0J200D01*
G01*
G75*
G01X43306Y39024D02*
G02X43106Y38824I-200J0D01*
G01*
G75*
G01X43306Y40224D02*
G03X43106Y40424I-200J0D01*
G01*
G75*
G01X40006Y39024D02*
G03X40206Y38824I200J0D01*
G01*
G75*
G01X40006Y40224D02*
G02X40206Y40424I200J0D01*
G01*
G54D43*
G75*
G01X27346Y43464D02*
G03X27346Y43462I-150J-1D01*
G01*
G54D44*
G75*
G01X29497Y41963D02*
G03X29497Y41961I-200J-1D01*
G01*
G54D38*
G75*
G01X15696Y34295D02*
G03X15696Y34295I-42J0D01*
G01*
G75*
G01X13598Y31363D02*
G03X13598Y31363I-42J0D01*
G01*
G54D10*
G75*
G01X25654Y21209D02*
G03X25654Y21209I-127J0D01*
G01*
G75*
G01X24961Y51943D02*
G03X24961Y51943I-1085J0D01*
G01*
G75*
G01X13843Y54483D02*
G03X13843Y54483I-127J0D01*
G01*

%LPD*%
G36*
G01X14774Y35805D02*
G01X14694Y35805D01*
G01X14694Y34765D01*
G01X14774Y34765D01*
G01X14774Y35805D01*
G37*

%LPD*%
G36*
G01X14704Y35345D02*
G01X14464Y35345D01*
G01X14464Y35265D01*
G01X14704Y35265D01*
G01X14704Y35345D01*
G37*

%LPD*%
G36*
G01X14515Y30893D02*
G01X14434Y30893D01*
G01X14434Y29853D01*
G01X14515Y29853D01*
G01X14515Y30893D01*
G37*

%LPD*%
G36*
G01X14745Y30393D02*
G01X14505Y30393D01*
G01X14505Y30312D01*
G01X14745Y30312D01*
G01X14745Y30393D01*
G37*
M00*
M02*
