G04 Layer: BottomLayer*
G04 EasyEDA v6.3.41, 2020-05-05T11:48:15+01:00*
G04 2ec71008dff244c88071119ef016d080,e9fa969840cb4916a94017553220f78b,10*
G04 Gerber Generator version 0.2*
G04 Scale: 100 percent, Rotated: No, Reflected: No *
G04 Dimensions in millimeters *
G04 leading zeros omitted , absolute positions ,3 integer and 3 decimal *
%FSLAX33Y33*%
%MOMM*%
G90*
G71D02*

%ADD10C,0.254000*%
%ADD15C,0.609600*%
%ADD19R,1.899996X1.899996*%
%ADD31C,1.524000*%
%ADD32C,3.999992*%
%ADD33C,2.227580*%
%ADD34C,1.599997*%
%ADD35R,1.599997X1.599997*%
%ADD36C,1.899996*%
%ADD37C,1.099998*%

%LPD*%
G36*
G01X68221Y57782D02*
G01X358Y57782D01*
G01X343Y57781D01*
G01X329Y57778D01*
G01X315Y57773D01*
G01X303Y57766D01*
G01X291Y57757D01*
G01X281Y57747D01*
G01X272Y57735D01*
G01X265Y57723D01*
G01X260Y57709D01*
G01X257Y57695D01*
G01X256Y57680D01*
G01X256Y42002D01*
G01X257Y41988D01*
G01X260Y41974D01*
G01X265Y41960D01*
G01X272Y41948D01*
G01X281Y41936D01*
G01X291Y41926D01*
G01X303Y41917D01*
G01X315Y41910D01*
G01X329Y41905D01*
G01X343Y41902D01*
G01X358Y41901D01*
G01X375Y41902D01*
G01X393Y41907D01*
G01X409Y41915D01*
G01X423Y41925D01*
G01X463Y41957D01*
G01X504Y41987D01*
G01X548Y42015D01*
G01X592Y42041D01*
G01X637Y42064D01*
G01X637Y41592D01*
G01X358Y41592D01*
G01X343Y41591D01*
G01X329Y41588D01*
G01X315Y41583D01*
G01X303Y41576D01*
G01X291Y41567D01*
G01X281Y41557D01*
G01X272Y41545D01*
G01X265Y41533D01*
G01X260Y41519D01*
G01X257Y41505D01*
G01X256Y41490D01*
G01X256Y40805D01*
G01X257Y40790D01*
G01X260Y40776D01*
G01X265Y40762D01*
G01X272Y40750D01*
G01X281Y40738D01*
G01X291Y40728D01*
G01X303Y40719D01*
G01X315Y40712D01*
G01X329Y40707D01*
G01X343Y40704D01*
G01X358Y40703D01*
G01X637Y40703D01*
G01X637Y40231D01*
G01X592Y40254D01*
G01X548Y40280D01*
G01X504Y40308D01*
G01X463Y40338D01*
G01X423Y40370D01*
G01X409Y40380D01*
G01X393Y40388D01*
G01X375Y40393D01*
G01X358Y40395D01*
G01X343Y40394D01*
G01X315Y40386D01*
G01X291Y40370D01*
G01X281Y40360D01*
G01X272Y40348D01*
G01X265Y40335D01*
G01X260Y40321D01*
G01X257Y40307D01*
G01X256Y40293D01*
G01X256Y33747D01*
G01X257Y33733D01*
G01X260Y33719D01*
G01X265Y33705D01*
G01X272Y33693D01*
G01X281Y33681D01*
G01X291Y33671D01*
G01X303Y33662D01*
G01X315Y33655D01*
G01X329Y33650D01*
G01X343Y33647D01*
G01X358Y33646D01*
G01X375Y33647D01*
G01X393Y33652D01*
G01X409Y33660D01*
G01X423Y33670D01*
G01X463Y33702D01*
G01X504Y33732D01*
G01X548Y33760D01*
G01X592Y33786D01*
G01X637Y33809D01*
G01X637Y33337D01*
G01X358Y33337D01*
G01X343Y33336D01*
G01X329Y33333D01*
G01X315Y33328D01*
G01X303Y33321D01*
G01X291Y33312D01*
G01X281Y33302D01*
G01X272Y33290D01*
G01X265Y33278D01*
G01X260Y33264D01*
G01X257Y33250D01*
G01X256Y33235D01*
G01X256Y32550D01*
G01X257Y32535D01*
G01X260Y32521D01*
G01X265Y32507D01*
G01X272Y32495D01*
G01X281Y32483D01*
G01X291Y32473D01*
G01X303Y32464D01*
G01X315Y32457D01*
G01X329Y32452D01*
G01X343Y32449D01*
G01X358Y32448D01*
G01X637Y32448D01*
G01X637Y31976D01*
G01X592Y31999D01*
G01X548Y32025D01*
G01X504Y32053D01*
G01X463Y32083D01*
G01X423Y32115D01*
G01X409Y32125D01*
G01X393Y32133D01*
G01X375Y32138D01*
G01X358Y32140D01*
G01X343Y32139D01*
G01X315Y32131D01*
G01X291Y32115D01*
G01X281Y32105D01*
G01X272Y32093D01*
G01X265Y32080D01*
G01X260Y32066D01*
G01X257Y32052D01*
G01X256Y32038D01*
G01X256Y26479D01*
G01X257Y26465D01*
G01X260Y26451D01*
G01X265Y26437D01*
G01X272Y26424D01*
G01X281Y26412D01*
G01X291Y26402D01*
G01X303Y26394D01*
G01X315Y26387D01*
G01X329Y26382D01*
G01X343Y26379D01*
G01X358Y26377D01*
G01X375Y26379D01*
G01X391Y26383D01*
G01X407Y26391D01*
G01X446Y26411D01*
G01X486Y26429D01*
G01X527Y26445D01*
G01X569Y26459D01*
G01X611Y26470D01*
G01X654Y26479D01*
G01X697Y26486D01*
G01X741Y26490D01*
G01X785Y26492D01*
G01X785Y26024D01*
G01X358Y26024D01*
G01X343Y26023D01*
G01X329Y26020D01*
G01X315Y26015D01*
G01X303Y26008D01*
G01X291Y25999D01*
G01X281Y25989D01*
G01X272Y25978D01*
G01X265Y25965D01*
G01X260Y25951D01*
G01X257Y25937D01*
G01X256Y25923D01*
G01X256Y25449D01*
G01X257Y25434D01*
G01X260Y25420D01*
G01X265Y25407D01*
G01X272Y25394D01*
G01X281Y25382D01*
G01X291Y25372D01*
G01X303Y25363D01*
G01X315Y25356D01*
G01X329Y25351D01*
G01X343Y25348D01*
G01X358Y25347D01*
G01X785Y25347D01*
G01X785Y24879D01*
G01X741Y24881D01*
G01X697Y24885D01*
G01X654Y24892D01*
G01X611Y24901D01*
G01X569Y24913D01*
G01X527Y24927D01*
G01X486Y24942D01*
G01X446Y24961D01*
G01X407Y24981D01*
G01X391Y24988D01*
G01X375Y24992D01*
G01X358Y24994D01*
G01X343Y24993D01*
G01X329Y24990D01*
G01X315Y24984D01*
G01X303Y24977D01*
G01X291Y24969D01*
G01X281Y24959D01*
G01X272Y24947D01*
G01X265Y24934D01*
G01X260Y24920D01*
G01X257Y24906D01*
G01X256Y24892D01*
G01X256Y20830D01*
G01X257Y20815D01*
G01X260Y20801D01*
G01X265Y20787D01*
G01X272Y20775D01*
G01X281Y20763D01*
G01X291Y20753D01*
G01X303Y20744D01*
G01X315Y20737D01*
G01X329Y20732D01*
G01X343Y20729D01*
G01X358Y20728D01*
G01X375Y20729D01*
G01X391Y20734D01*
G01X407Y20741D01*
G01X446Y20761D01*
G01X486Y20779D01*
G01X527Y20795D01*
G01X568Y20809D01*
G01X611Y20820D01*
G01X654Y20829D01*
G01X697Y20836D01*
G01X741Y20840D01*
G01X785Y20842D01*
G01X785Y20374D01*
G01X358Y20374D01*
G01X343Y20373D01*
G01X329Y20370D01*
G01X315Y20365D01*
G01X303Y20358D01*
G01X291Y20349D01*
G01X281Y20339D01*
G01X272Y20328D01*
G01X265Y20315D01*
G01X260Y20301D01*
G01X257Y20287D01*
G01X256Y20273D01*
G01X256Y19799D01*
G01X257Y19785D01*
G01X260Y19770D01*
G01X265Y19757D01*
G01X272Y19744D01*
G01X281Y19732D01*
G01X291Y19722D01*
G01X303Y19713D01*
G01X315Y19706D01*
G01X329Y19701D01*
G01X343Y19698D01*
G01X358Y19697D01*
G01X785Y19697D01*
G01X785Y19229D01*
G01X741Y19231D01*
G01X697Y19235D01*
G01X611Y19251D01*
G01X568Y19263D01*
G01X527Y19277D01*
G01X486Y19292D01*
G01X446Y19311D01*
G01X407Y19331D01*
G01X391Y19338D01*
G01X375Y19342D01*
G01X358Y19344D01*
G01X343Y19343D01*
G01X329Y19340D01*
G01X315Y19334D01*
G01X303Y19327D01*
G01X291Y19319D01*
G01X281Y19309D01*
G01X272Y19297D01*
G01X265Y19284D01*
G01X260Y19270D01*
G01X257Y19256D01*
G01X256Y19242D01*
G01X256Y18262D01*
G01X257Y18248D01*
G01X260Y18234D01*
G01X265Y18220D01*
G01X272Y18207D01*
G01X281Y18196D01*
G01X291Y18185D01*
G01X303Y18177D01*
G01X315Y18170D01*
G01X329Y18165D01*
G01X343Y18162D01*
G01X358Y18161D01*
G01X68221Y18161D01*
G01X68236Y18162D01*
G01X68250Y18165D01*
G01X68264Y18170D01*
G01X68276Y18177D01*
G01X68288Y18185D01*
G01X68298Y18196D01*
G01X68307Y18207D01*
G01X68314Y18220D01*
G01X68319Y18234D01*
G01X68322Y18248D01*
G01X68323Y18262D01*
G01X68323Y57680D01*
G01X68322Y57695D01*
G01X68319Y57709D01*
G01X68314Y57723D01*
G01X68307Y57735D01*
G01X68298Y57747D01*
G01X68288Y57757D01*
G01X68276Y57766D01*
G01X68264Y57773D01*
G01X68250Y57778D01*
G01X68236Y57781D01*
G01X68221Y57782D01*
G37*

%LPC*%
G36*
G01X16421Y55539D02*
G01X14820Y55539D01*
G01X14797Y55538D01*
G01X14773Y55535D01*
G01X14750Y55529D01*
G01X14728Y55522D01*
G01X14706Y55512D01*
G01X14685Y55501D01*
G01X14666Y55487D01*
G01X14648Y55472D01*
G01X14631Y55455D01*
G01X14616Y55437D01*
G01X14602Y55418D01*
G01X14591Y55397D01*
G01X14581Y55375D01*
G01X14574Y55353D01*
G01X14568Y55330D01*
G01X14565Y55306D01*
G01X14564Y55283D01*
G01X14564Y53682D01*
G01X14565Y53659D01*
G01X14568Y53635D01*
G01X14574Y53612D01*
G01X14581Y53590D01*
G01X14591Y53568D01*
G01X14602Y53547D01*
G01X14616Y53528D01*
G01X14631Y53510D01*
G01X14648Y53493D01*
G01X14666Y53478D01*
G01X14685Y53464D01*
G01X14706Y53453D01*
G01X14728Y53443D01*
G01X14750Y53436D01*
G01X14773Y53430D01*
G01X14797Y53427D01*
G01X14820Y53426D01*
G01X16092Y53426D01*
G01X16109Y53425D01*
G01X16124Y53421D01*
G01X16139Y53415D01*
G01X16152Y53407D01*
G01X16165Y53396D01*
G01X16619Y52941D01*
G01X16642Y52921D01*
G01X16665Y52902D01*
G01X16690Y52885D01*
G01X16716Y52871D01*
G01X16744Y52858D01*
G01X16772Y52848D01*
G01X16801Y52840D01*
G01X16831Y52834D01*
G01X16861Y52830D01*
G01X16891Y52829D01*
G01X17309Y52829D01*
G01X17323Y52828D01*
G01X17338Y52825D01*
G01X17351Y52820D01*
G01X17364Y52813D01*
G01X17376Y52804D01*
G01X17386Y52794D01*
G01X17394Y52782D01*
G01X17401Y52770D01*
G01X17406Y52756D01*
G01X17410Y52742D01*
G01X17411Y52727D01*
G01X17409Y52712D01*
G01X17406Y52697D01*
G01X17401Y52684D01*
G01X17393Y52670D01*
G01X17384Y52658D01*
G01X17351Y52622D01*
G01X17320Y52583D01*
G01X17291Y52543D01*
G01X17264Y52502D01*
G01X17239Y52460D01*
G01X17216Y52416D01*
G01X17195Y52372D01*
G01X17177Y52327D01*
G01X17160Y52281D01*
G01X17145Y52234D01*
G01X17132Y52186D01*
G01X17122Y52138D01*
G01X17114Y52089D01*
G01X17108Y52041D01*
G01X17105Y51992D01*
G01X17104Y51943D01*
G01X17105Y51893D01*
G01X17108Y51844D01*
G01X17114Y51796D01*
G01X17122Y51747D01*
G01X17132Y51699D01*
G01X17145Y51651D01*
G01X17160Y51604D01*
G01X17177Y51558D01*
G01X17195Y51513D01*
G01X17216Y51469D01*
G01X17239Y51425D01*
G01X17264Y51383D01*
G01X17291Y51342D01*
G01X17320Y51302D01*
G01X17351Y51263D01*
G01X17384Y51227D01*
G01X17393Y51215D01*
G01X17401Y51201D01*
G01X17406Y51188D01*
G01X17409Y51173D01*
G01X17411Y51158D01*
G01X17410Y51143D01*
G01X17406Y51129D01*
G01X17401Y51115D01*
G01X17394Y51103D01*
G01X17386Y51091D01*
G01X17376Y51081D01*
G01X17364Y51072D01*
G01X17351Y51065D01*
G01X17338Y51060D01*
G01X17323Y51057D01*
G01X17309Y51056D01*
G01X17092Y51056D01*
G01X17075Y51057D01*
G01X17060Y51061D01*
G01X17045Y51067D01*
G01X17032Y51075D01*
G01X17020Y51086D01*
G01X16635Y51470D01*
G01X16625Y51482D01*
G01X16617Y51496D01*
G01X16611Y51511D01*
G01X16607Y51526D01*
G01X16606Y51542D01*
G01X16607Y51560D01*
G01X16612Y51577D01*
G01X16627Y51621D01*
G01X16640Y51666D01*
G01X16651Y51711D01*
G01X16660Y51757D01*
G01X16668Y51803D01*
G01X16673Y51850D01*
G01X16676Y51896D01*
G01X16677Y51943D01*
G01X16676Y51990D01*
G01X16673Y52037D01*
G01X16667Y52084D01*
G01X16660Y52131D01*
G01X16651Y52178D01*
G01X16639Y52223D01*
G01X16625Y52269D01*
G01X16610Y52314D01*
G01X16592Y52358D01*
G01X16572Y52401D01*
G01X16551Y52443D01*
G01X16527Y52485D01*
G01X16502Y52525D01*
G01X16475Y52563D01*
G01X16447Y52601D01*
G01X16416Y52637D01*
G01X16384Y52672D01*
G01X16350Y52706D01*
G01X16315Y52738D01*
G01X16279Y52769D01*
G01X16241Y52797D01*
G01X16203Y52824D01*
G01X16163Y52849D01*
G01X16121Y52873D01*
G01X16079Y52894D01*
G01X16036Y52914D01*
G01X15992Y52932D01*
G01X15947Y52947D01*
G01X15901Y52961D01*
G01X15856Y52973D01*
G01X15809Y52982D01*
G01X15762Y52989D01*
G01X15715Y52995D01*
G01X15668Y52998D01*
G01X15621Y52999D01*
G01X15573Y52998D01*
G01X15526Y52995D01*
G01X15479Y52989D01*
G01X15432Y52982D01*
G01X15385Y52973D01*
G01X15340Y52961D01*
G01X15294Y52947D01*
G01X15249Y52932D01*
G01X15205Y52914D01*
G01X15162Y52894D01*
G01X15120Y52873D01*
G01X15078Y52849D01*
G01X15038Y52824D01*
G01X15000Y52797D01*
G01X14962Y52769D01*
G01X14926Y52738D01*
G01X14891Y52706D01*
G01X14857Y52672D01*
G01X14825Y52637D01*
G01X14794Y52601D01*
G01X14766Y52563D01*
G01X14739Y52525D01*
G01X14714Y52485D01*
G01X14690Y52443D01*
G01X14669Y52401D01*
G01X14649Y52358D01*
G01X14631Y52314D01*
G01X14616Y52269D01*
G01X14602Y52223D01*
G01X14590Y52178D01*
G01X14581Y52131D01*
G01X14574Y52084D01*
G01X14568Y52037D01*
G01X14565Y51990D01*
G01X14564Y51943D01*
G01X14565Y51895D01*
G01X14568Y51848D01*
G01X14574Y51801D01*
G01X14581Y51754D01*
G01X14590Y51707D01*
G01X14602Y51662D01*
G01X14616Y51616D01*
G01X14631Y51571D01*
G01X14649Y51527D01*
G01X14669Y51484D01*
G01X14690Y51442D01*
G01X14714Y51400D01*
G01X14739Y51360D01*
G01X14766Y51322D01*
G01X14794Y51284D01*
G01X14825Y51248D01*
G01X14857Y51213D01*
G01X14891Y51179D01*
G01X14926Y51147D01*
G01X14962Y51116D01*
G01X15000Y51088D01*
G01X15038Y51061D01*
G01X15078Y51036D01*
G01X15120Y51012D01*
G01X15162Y50991D01*
G01X15205Y50971D01*
G01X15249Y50953D01*
G01X15294Y50938D01*
G01X15340Y50924D01*
G01X15385Y50912D01*
G01X15432Y50903D01*
G01X15479Y50896D01*
G01X15526Y50890D01*
G01X15573Y50887D01*
G01X15621Y50886D01*
G01X15667Y50887D01*
G01X15713Y50890D01*
G01X15760Y50895D01*
G01X15806Y50903D01*
G01X15852Y50912D01*
G01X15897Y50923D01*
G01X15942Y50936D01*
G01X15986Y50951D01*
G01X16003Y50956D01*
G01X16021Y50957D01*
G01X16037Y50956D01*
G01X16052Y50952D01*
G01X16067Y50946D01*
G01X16081Y50938D01*
G01X16093Y50928D01*
G01X16619Y50401D01*
G01X16642Y50381D01*
G01X16665Y50362D01*
G01X16690Y50345D01*
G01X16716Y50331D01*
G01X16744Y50318D01*
G01X16772Y50308D01*
G01X16801Y50300D01*
G01X16831Y50294D01*
G01X16861Y50290D01*
G01X16891Y50289D01*
G01X17309Y50289D01*
G01X17323Y50288D01*
G01X17338Y50285D01*
G01X17351Y50280D01*
G01X17364Y50273D01*
G01X17376Y50264D01*
G01X17386Y50254D01*
G01X17394Y50242D01*
G01X17401Y50230D01*
G01X17406Y50216D01*
G01X17410Y50202D01*
G01X17411Y50187D01*
G01X17409Y50172D01*
G01X17406Y50157D01*
G01X17401Y50144D01*
G01X17393Y50130D01*
G01X17384Y50118D01*
G01X17350Y50080D01*
G01X17318Y50040D01*
G01X17288Y49998D01*
G01X17260Y49956D01*
G01X17234Y49912D01*
G01X17211Y49866D01*
G01X17697Y49866D01*
G01X17697Y50187D01*
G01X17698Y50202D01*
G01X17701Y50216D01*
G01X17706Y50230D01*
G01X17713Y50242D01*
G01X17722Y50254D01*
G01X17732Y50264D01*
G01X17743Y50273D01*
G01X17757Y50280D01*
G01X17770Y50285D01*
G01X17784Y50288D01*
G01X17799Y50289D01*
G01X18340Y50289D01*
G01X18357Y50288D01*
G01X18372Y50284D01*
G01X18387Y50278D01*
G01X18400Y50270D01*
G01X18412Y50259D01*
G01X18594Y50077D01*
G01X18604Y50065D01*
G01X18613Y50052D01*
G01X18619Y50037D01*
G01X18623Y50021D01*
G01X18624Y50005D01*
G01X18624Y49866D01*
G01X18763Y49866D01*
G01X18779Y49865D01*
G01X18795Y49861D01*
G01X18810Y49855D01*
G01X18823Y49846D01*
G01X18835Y49836D01*
G01X19377Y49295D01*
G01X20236Y48435D01*
G01X20246Y48424D01*
G01X20255Y48410D01*
G01X20261Y48395D01*
G01X20265Y48379D01*
G01X20266Y48364D01*
G01X20265Y48349D01*
G01X20262Y48335D01*
G01X20257Y48321D01*
G01X20250Y48309D01*
G01X20241Y48297D01*
G01X20231Y48287D01*
G01X20219Y48278D01*
G01X20207Y48271D01*
G01X20193Y48266D01*
G01X20179Y48263D01*
G01X20164Y48262D01*
G01X18673Y48262D01*
G01X18656Y48264D01*
G01X18639Y48268D01*
G01X18624Y48274D01*
G01X18610Y48284D01*
G01X18597Y48295D01*
G01X18585Y48284D01*
G01X18571Y48274D01*
G01X18556Y48268D01*
G01X18539Y48264D01*
G01X18522Y48262D01*
G01X17799Y48262D01*
G01X17782Y48264D01*
G01X17765Y48268D01*
G01X17750Y48274D01*
G01X17736Y48284D01*
G01X17724Y48295D01*
G01X17711Y48284D01*
G01X17697Y48274D01*
G01X17682Y48268D01*
G01X17665Y48264D01*
G01X17648Y48262D01*
G01X17346Y48262D01*
G01X17329Y48263D01*
G01X17314Y48267D01*
G01X17299Y48273D01*
G01X17286Y48281D01*
G01X17274Y48292D01*
G01X16635Y48930D01*
G01X16625Y48942D01*
G01X16617Y48956D01*
G01X16611Y48971D01*
G01X16607Y48986D01*
G01X16606Y49002D01*
G01X16607Y49020D01*
G01X16612Y49037D01*
G01X16627Y49081D01*
G01X16640Y49126D01*
G01X16651Y49171D01*
G01X16660Y49217D01*
G01X16668Y49263D01*
G01X16673Y49310D01*
G01X16676Y49356D01*
G01X16677Y49403D01*
G01X16676Y49450D01*
G01X16673Y49497D01*
G01X16667Y49544D01*
G01X16660Y49591D01*
G01X16651Y49638D01*
G01X16639Y49683D01*
G01X16625Y49729D01*
G01X16610Y49774D01*
G01X16592Y49818D01*
G01X16572Y49861D01*
G01X16551Y49903D01*
G01X16527Y49945D01*
G01X16502Y49985D01*
G01X16475Y50023D01*
G01X16447Y50061D01*
G01X16416Y50097D01*
G01X16384Y50132D01*
G01X16350Y50166D01*
G01X16315Y50198D01*
G01X16279Y50229D01*
G01X16241Y50257D01*
G01X16203Y50284D01*
G01X16163Y50309D01*
G01X16121Y50333D01*
G01X16079Y50354D01*
G01X16036Y50374D01*
G01X15992Y50392D01*
G01X15947Y50407D01*
G01X15901Y50421D01*
G01X15856Y50433D01*
G01X15809Y50442D01*
G01X15762Y50449D01*
G01X15715Y50455D01*
G01X15668Y50458D01*
G01X15621Y50459D01*
G01X15573Y50458D01*
G01X15526Y50455D01*
G01X15479Y50449D01*
G01X15432Y50442D01*
G01X15385Y50433D01*
G01X15340Y50421D01*
G01X15294Y50407D01*
G01X15249Y50392D01*
G01X15205Y50374D01*
G01X15162Y50354D01*
G01X15120Y50333D01*
G01X15078Y50309D01*
G01X15038Y50284D01*
G01X15000Y50257D01*
G01X14962Y50229D01*
G01X14926Y50198D01*
G01X14891Y50166D01*
G01X14857Y50132D01*
G01X14825Y50097D01*
G01X14794Y50061D01*
G01X14766Y50023D01*
G01X14739Y49985D01*
G01X14714Y49945D01*
G01X14690Y49903D01*
G01X14669Y49861D01*
G01X14649Y49818D01*
G01X14631Y49774D01*
G01X14616Y49729D01*
G01X14602Y49683D01*
G01X14590Y49638D01*
G01X14581Y49591D01*
G01X14574Y49544D01*
G01X14568Y49497D01*
G01X14565Y49450D01*
G01X14564Y49403D01*
G01X14565Y49355D01*
G01X14568Y49308D01*
G01X14574Y49261D01*
G01X14581Y49214D01*
G01X14590Y49167D01*
G01X14602Y49122D01*
G01X14616Y49076D01*
G01X14631Y49031D01*
G01X14649Y48987D01*
G01X14669Y48944D01*
G01X14690Y48902D01*
G01X14714Y48860D01*
G01X14739Y48820D01*
G01X14766Y48782D01*
G01X14794Y48744D01*
G01X14825Y48708D01*
G01X14857Y48673D01*
G01X14891Y48639D01*
G01X14926Y48607D01*
G01X14962Y48576D01*
G01X15000Y48548D01*
G01X15038Y48521D01*
G01X15078Y48496D01*
G01X15120Y48472D01*
G01X15162Y48451D01*
G01X15205Y48431D01*
G01X15249Y48413D01*
G01X15294Y48398D01*
G01X15340Y48384D01*
G01X15385Y48372D01*
G01X15432Y48363D01*
G01X15479Y48356D01*
G01X15526Y48350D01*
G01X15573Y48347D01*
G01X15621Y48346D01*
G01X15667Y48347D01*
G01X15713Y48350D01*
G01X15760Y48355D01*
G01X15806Y48363D01*
G01X15852Y48372D01*
G01X15897Y48383D01*
G01X15942Y48396D01*
G01X15986Y48411D01*
G01X16003Y48416D01*
G01X16021Y48417D01*
G01X16037Y48416D01*
G01X16052Y48412D01*
G01X16067Y48406D01*
G01X16081Y48398D01*
G01X16093Y48388D01*
G01X16873Y47607D01*
G01X16896Y47587D01*
G01X16919Y47568D01*
G01X16944Y47551D01*
G01X16970Y47537D01*
G01X16998Y47524D01*
G01X17026Y47514D01*
G01X17055Y47506D01*
G01X17085Y47500D01*
G01X17115Y47496D01*
G01X17145Y47495D01*
G01X20630Y47495D01*
G01X20645Y47494D01*
G01X20660Y47490D01*
G01X20674Y47485D01*
G01X20687Y47477D01*
G01X20699Y47468D01*
G01X20725Y47445D01*
G01X20753Y47423D01*
G01X20782Y47404D01*
G01X20812Y47386D01*
G01X20844Y47370D01*
G01X20876Y47356D01*
G01X20909Y47344D01*
G01X20943Y47334D01*
G01X20977Y47327D01*
G01X21011Y47322D01*
G01X21046Y47318D01*
G01X21082Y47317D01*
G01X21116Y47318D01*
G01X21149Y47321D01*
G01X21183Y47326D01*
G01X21216Y47333D01*
G01X21249Y47343D01*
G01X21281Y47354D01*
G01X21312Y47366D01*
G01X21343Y47382D01*
G01X21372Y47398D01*
G01X21401Y47417D01*
G01X21427Y47437D01*
G01X21454Y47458D01*
G01X21502Y47506D01*
G01X21523Y47533D01*
G01X21543Y47559D01*
G01X21562Y47588D01*
G01X21578Y47617D01*
G01X21594Y47648D01*
G01X21606Y47679D01*
G01X21617Y47711D01*
G01X21627Y47744D01*
G01X21634Y47777D01*
G01X21639Y47811D01*
G01X21642Y47844D01*
G01X21643Y47879D01*
G01X21641Y47921D01*
G01X21636Y47963D01*
G01X21628Y48006D01*
G01X21626Y48028D01*
G01X21627Y48043D01*
G01X21630Y48057D01*
G01X21635Y48071D01*
G01X21642Y48083D01*
G01X21650Y48095D01*
G01X21661Y48105D01*
G01X21672Y48114D01*
G01X21685Y48121D01*
G01X21699Y48126D01*
G01X21713Y48129D01*
G01X21727Y48130D01*
G01X24055Y48130D01*
G01X24072Y48129D01*
G01X24087Y48125D01*
G01X24102Y48119D01*
G01X24115Y48111D01*
G01X24127Y48100D01*
G01X27401Y44826D01*
G01X27412Y44814D01*
G01X27420Y44801D01*
G01X27426Y44786D01*
G01X27429Y44771D01*
G01X27431Y44755D01*
G01X27430Y44740D01*
G01X27427Y44726D01*
G01X27422Y44712D01*
G01X27415Y44699D01*
G01X27406Y44688D01*
G01X27395Y44678D01*
G01X27384Y44669D01*
G01X27356Y44650D01*
G01X27329Y44629D01*
G01X27303Y44606D01*
G01X27279Y44583D01*
G01X27257Y44558D01*
G01X27235Y44531D01*
G01X27216Y44503D01*
G01X27198Y44474D01*
G01X27182Y44444D01*
G01X27168Y44413D01*
G01X27156Y44381D01*
G01X27145Y44349D01*
G01X27137Y44316D01*
G01X27131Y44283D01*
G01X27127Y44249D01*
G01X27125Y44215D01*
G01X27123Y44201D01*
G01X27119Y44186D01*
G01X27113Y44172D01*
G01X27105Y44159D01*
G01X27095Y44147D01*
G01X26540Y43593D01*
G01X26528Y43582D01*
G01X26515Y43574D01*
G01X26500Y43568D01*
G01X26485Y43564D01*
G01X26468Y43563D01*
G01X18104Y43563D01*
G01X18089Y43564D01*
G01X18074Y43568D01*
G01X18060Y43573D01*
G01X18047Y43581D01*
G01X18035Y43590D01*
G01X18009Y43613D01*
G01X17981Y43635D01*
G01X17952Y43654D01*
G01X17922Y43672D01*
G01X17890Y43688D01*
G01X17858Y43702D01*
G01X17825Y43714D01*
G01X17791Y43724D01*
G01X17757Y43731D01*
G01X17723Y43736D01*
G01X17688Y43740D01*
G01X17653Y43741D01*
G01X17618Y43740D01*
G01X17585Y43737D01*
G01X17551Y43732D01*
G01X17518Y43725D01*
G01X17485Y43715D01*
G01X17453Y43704D01*
G01X17422Y43692D01*
G01X17391Y43676D01*
G01X17362Y43660D01*
G01X17333Y43641D01*
G01X17307Y43621D01*
G01X17280Y43600D01*
G01X17232Y43552D01*
G01X17211Y43525D01*
G01X17191Y43499D01*
G01X17172Y43470D01*
G01X17156Y43441D01*
G01X17140Y43410D01*
G01X17128Y43379D01*
G01X17117Y43347D01*
G01X17107Y43314D01*
G01X17100Y43281D01*
G01X17095Y43247D01*
G01X17092Y43214D01*
G01X17091Y43180D01*
G01X17093Y43137D01*
G01X17098Y43095D01*
G01X17106Y43053D01*
G01X17108Y43030D01*
G01X17107Y43015D01*
G01X17104Y43001D01*
G01X17099Y42987D01*
G01X17092Y42975D01*
G01X17084Y42963D01*
G01X17073Y42953D01*
G01X17062Y42944D01*
G01X17049Y42937D01*
G01X17035Y42932D01*
G01X17021Y42929D01*
G01X17007Y42928D01*
G01X5277Y42928D01*
G01X5262Y42929D01*
G01X5247Y42933D01*
G01X5233Y42938D01*
G01X5220Y42946D01*
G01X5208Y42955D01*
G01X5182Y42978D01*
G01X5154Y43000D01*
G01X5125Y43019D01*
G01X5095Y43037D01*
G01X5063Y43053D01*
G01X5031Y43067D01*
G01X4998Y43079D01*
G01X4964Y43089D01*
G01X4930Y43096D01*
G01X4896Y43101D01*
G01X4861Y43105D01*
G01X4826Y43106D01*
G01X4791Y43105D01*
G01X4758Y43102D01*
G01X4724Y43097D01*
G01X4691Y43090D01*
G01X4658Y43080D01*
G01X4626Y43069D01*
G01X4595Y43057D01*
G01X4564Y43041D01*
G01X4535Y43025D01*
G01X4506Y43006D01*
G01X4480Y42986D01*
G01X4453Y42965D01*
G01X4405Y42917D01*
G01X4384Y42890D01*
G01X4364Y42864D01*
G01X4345Y42835D01*
G01X4329Y42806D01*
G01X4313Y42775D01*
G01X4301Y42744D01*
G01X4290Y42712D01*
G01X4280Y42679D01*
G01X4273Y42646D01*
G01X4268Y42612D01*
G01X4265Y42579D01*
G01X4264Y42545D01*
G01X4265Y42510D01*
G01X4268Y42477D01*
G01X4273Y42443D01*
G01X4280Y42410D01*
G01X4290Y42377D01*
G01X4301Y42345D01*
G01X4313Y42314D01*
G01X4329Y42283D01*
G01X4345Y42254D01*
G01X4364Y42225D01*
G01X4384Y42199D01*
G01X4405Y42172D01*
G01X4453Y42124D01*
G01X4480Y42103D01*
G01X4506Y42083D01*
G01X4535Y42064D01*
G01X4564Y42048D01*
G01X4595Y42032D01*
G01X4626Y42020D01*
G01X4658Y42009D01*
G01X4691Y41999D01*
G01X4724Y41992D01*
G01X4758Y41987D01*
G01X4791Y41984D01*
G01X4826Y41983D01*
G01X4861Y41984D01*
G01X4896Y41988D01*
G01X4930Y41993D01*
G01X4964Y42000D01*
G01X4998Y42010D01*
G01X5031Y42022D01*
G01X5063Y42036D01*
G01X5095Y42052D01*
G01X5125Y42070D01*
G01X5154Y42089D01*
G01X5182Y42111D01*
G01X5208Y42134D01*
G01X5220Y42143D01*
G01X5233Y42151D01*
G01X5247Y42156D01*
G01X5262Y42160D01*
G01X5277Y42161D01*
G01X25329Y42161D01*
G01X25344Y42160D01*
G01X25359Y42156D01*
G01X25373Y42151D01*
G01X25386Y42143D01*
G01X25398Y42134D01*
G01X25424Y42111D01*
G01X25452Y42089D01*
G01X25481Y42070D01*
G01X25511Y42052D01*
G01X25543Y42036D01*
G01X25575Y42022D01*
G01X25608Y42010D01*
G01X25642Y42000D01*
G01X25676Y41993D01*
G01X25710Y41988D01*
G01X25745Y41984D01*
G01X25781Y41983D01*
G01X25815Y41984D01*
G01X25848Y41987D01*
G01X25882Y41992D01*
G01X25915Y41999D01*
G01X25948Y42009D01*
G01X25980Y42020D01*
G01X26011Y42032D01*
G01X26042Y42048D01*
G01X26071Y42064D01*
G01X26100Y42083D01*
G01X26126Y42103D01*
G01X26153Y42124D01*
G01X26201Y42172D01*
G01X26222Y42199D01*
G01X26242Y42225D01*
G01X26261Y42254D01*
G01X26277Y42283D01*
G01X26293Y42314D01*
G01X26305Y42345D01*
G01X26316Y42377D01*
G01X26326Y42410D01*
G01X26333Y42443D01*
G01X26338Y42477D01*
G01X26341Y42510D01*
G01X26342Y42545D01*
G01X26340Y42587D01*
G01X26335Y42629D01*
G01X26327Y42672D01*
G01X26325Y42694D01*
G01X26326Y42709D01*
G01X26329Y42723D01*
G01X26334Y42737D01*
G01X26341Y42749D01*
G01X26349Y42761D01*
G01X26360Y42771D01*
G01X26371Y42780D01*
G01X26384Y42787D01*
G01X26398Y42792D01*
G01X26412Y42795D01*
G01X26426Y42796D01*
G01X26670Y42796D01*
G01X26699Y42797D01*
G01X26729Y42801D01*
G01X26759Y42807D01*
G01X26788Y42815D01*
G01X26816Y42825D01*
G01X26844Y42838D01*
G01X26870Y42852D01*
G01X26895Y42869D01*
G01X26918Y42888D01*
G01X26941Y42908D01*
G01X27637Y43605D01*
G01X27649Y43615D01*
G01X27662Y43623D01*
G01X27676Y43629D01*
G01X27691Y43633D01*
G01X27705Y43635D01*
G01X27739Y43637D01*
G01X27773Y43641D01*
G01X27806Y43647D01*
G01X27839Y43655D01*
G01X27871Y43666D01*
G01X27903Y43678D01*
G01X27934Y43692D01*
G01X27964Y43708D01*
G01X27993Y43726D01*
G01X28021Y43745D01*
G01X28048Y43767D01*
G01X28073Y43789D01*
G01X28096Y43813D01*
G01X28119Y43839D01*
G01X28140Y43866D01*
G01X28159Y43894D01*
G01X28168Y43905D01*
G01X28178Y43916D01*
G01X28189Y43925D01*
G01X28202Y43932D01*
G01X28216Y43937D01*
G01X28230Y43940D01*
G01X28245Y43941D01*
G01X28261Y43939D01*
G01X28276Y43936D01*
G01X28291Y43930D01*
G01X28304Y43922D01*
G01X28316Y43911D01*
G01X30269Y41958D01*
G01X30279Y41947D01*
G01X30288Y41933D01*
G01X30294Y41918D01*
G01X30298Y41902D01*
G01X30299Y41887D01*
G01X30298Y41872D01*
G01X30295Y41858D01*
G01X30290Y41844D01*
G01X30283Y41832D01*
G01X30274Y41820D01*
G01X30264Y41810D01*
G01X30252Y41801D01*
G01X30240Y41794D01*
G01X30226Y41789D01*
G01X30212Y41786D01*
G01X30197Y41785D01*
G01X29153Y41785D01*
G01X29138Y41786D01*
G01X29123Y41790D01*
G01X29109Y41795D01*
G01X29096Y41803D01*
G01X29084Y41812D01*
G01X29058Y41835D01*
G01X29030Y41857D01*
G01X29001Y41876D01*
G01X28971Y41894D01*
G01X28939Y41910D01*
G01X28907Y41924D01*
G01X28874Y41936D01*
G01X28840Y41946D01*
G01X28806Y41953D01*
G01X28772Y41958D01*
G01X28737Y41962D01*
G01X28702Y41963D01*
G01X28667Y41962D01*
G01X28634Y41959D01*
G01X28600Y41954D01*
G01X28567Y41947D01*
G01X28534Y41937D01*
G01X28502Y41926D01*
G01X28471Y41914D01*
G01X28440Y41898D01*
G01X28411Y41882D01*
G01X28382Y41863D01*
G01X28356Y41843D01*
G01X28329Y41822D01*
G01X28281Y41774D01*
G01X28260Y41747D01*
G01X28240Y41721D01*
G01X28221Y41692D01*
G01X28205Y41663D01*
G01X28189Y41632D01*
G01X28177Y41601D01*
G01X28166Y41569D01*
G01X28156Y41536D01*
G01X28149Y41503D01*
G01X28144Y41469D01*
G01X28141Y41436D01*
G01X28140Y41402D01*
G01X28141Y41367D01*
G01X28144Y41334D01*
G01X28149Y41300D01*
G01X28156Y41267D01*
G01X28166Y41234D01*
G01X28177Y41202D01*
G01X28189Y41171D01*
G01X28205Y41140D01*
G01X28221Y41111D01*
G01X28240Y41082D01*
G01X28260Y41056D01*
G01X28281Y41029D01*
G01X28329Y40981D01*
G01X28356Y40960D01*
G01X28382Y40940D01*
G01X28411Y40921D01*
G01X28440Y40905D01*
G01X28471Y40889D01*
G01X28502Y40877D01*
G01X28534Y40866D01*
G01X28567Y40856D01*
G01X28600Y40849D01*
G01X28634Y40844D01*
G01X28667Y40841D01*
G01X28702Y40840D01*
G01X28744Y40842D01*
G01X28786Y40846D01*
G01X28801Y40848D01*
G01X28816Y40846D01*
G01X28832Y40843D01*
G01X28846Y40837D01*
G01X28859Y40829D01*
G01X28872Y40819D01*
G01X28882Y40807D01*
G01X28890Y40794D01*
G01X28897Y40780D01*
G01X28901Y40765D01*
G01X28903Y40749D01*
G01X28905Y40713D01*
G01X28909Y40676D01*
G01X28916Y40640D01*
G01X28926Y40605D01*
G01X28938Y40570D01*
G01X28951Y40536D01*
G01X28968Y40503D01*
G01X28986Y40471D01*
G01X29006Y40441D01*
G01X29029Y40411D01*
G01X29053Y40384D01*
G01X29062Y40372D01*
G01X29070Y40359D01*
G01X29075Y40345D01*
G01X29079Y40330D01*
G01X29080Y40315D01*
G01X29080Y35052D01*
G01X29081Y35022D01*
G01X29085Y34992D01*
G01X29091Y34962D01*
G01X29099Y34933D01*
G01X29109Y34905D01*
G01X29122Y34877D01*
G01X29136Y34851D01*
G01X29153Y34826D01*
G01X29172Y34803D01*
G01X29192Y34780D01*
G01X29261Y34711D01*
G01X29272Y34699D01*
G01X29280Y34685D01*
G01X29286Y34671D01*
G01X29290Y34655D01*
G01X29291Y34639D01*
G01X29290Y34625D01*
G01X29287Y34611D01*
G01X29282Y34597D01*
G01X29275Y34584D01*
G01X29266Y34572D01*
G01X29256Y34562D01*
G01X29245Y34554D01*
G01X29232Y34547D01*
G01X29200Y34531D01*
G01X29170Y34514D01*
G01X29141Y34495D01*
G01X29128Y34487D01*
G01X29113Y34481D01*
G01X29098Y34477D01*
G01X29083Y34476D01*
G01X29067Y34477D01*
G01X29052Y34481D01*
G01X29037Y34487D01*
G01X29024Y34495D01*
G01X28996Y34514D01*
G01X28966Y34531D01*
G01X28935Y34546D01*
G01X28903Y34559D01*
G01X28871Y34571D01*
G01X28838Y34580D01*
G01X28804Y34587D01*
G01X28770Y34593D01*
G01X28736Y34596D01*
G01X28702Y34597D01*
G01X28667Y34596D01*
G01X28634Y34593D01*
G01X28600Y34588D01*
G01X28567Y34581D01*
G01X28534Y34571D01*
G01X28502Y34560D01*
G01X28471Y34548D01*
G01X28440Y34532D01*
G01X28411Y34516D01*
G01X28382Y34497D01*
G01X28356Y34477D01*
G01X28329Y34456D01*
G01X28281Y34408D01*
G01X28260Y34381D01*
G01X28240Y34355D01*
G01X28221Y34326D01*
G01X28205Y34297D01*
G01X28189Y34266D01*
G01X28177Y34235D01*
G01X28166Y34203D01*
G01X28156Y34170D01*
G01X28149Y34137D01*
G01X28144Y34103D01*
G01X28141Y34070D01*
G01X28140Y34036D01*
G01X28141Y34000D01*
G01X28145Y33966D01*
G01X28150Y33931D01*
G01X28157Y33897D01*
G01X28167Y33864D01*
G01X28179Y33831D01*
G01X28192Y33799D01*
G01X28208Y33767D01*
G01X28226Y33737D01*
G01X28245Y33708D01*
G01X28267Y33680D01*
G01X28290Y33655D01*
G01X28314Y33630D01*
G01X28340Y33606D01*
G01X28367Y33584D01*
G01X28396Y33565D01*
G01X28426Y33546D01*
G01X28457Y33530D01*
G01X28489Y33516D01*
G01X28522Y33504D01*
G01X28555Y33493D01*
G01X28571Y33487D01*
G01X28587Y33479D01*
G01X28600Y33468D01*
G01X40368Y21699D01*
G01X40389Y21680D01*
G01X40412Y21662D01*
G01X40435Y21646D01*
G01X40460Y21632D01*
G01X40473Y21623D01*
G01X40485Y21613D01*
G01X40495Y21601D01*
G01X40503Y21587D01*
G01X40509Y21573D01*
G01X40513Y21557D01*
G01X40514Y21542D01*
G01X40513Y21527D01*
G01X40510Y21513D01*
G01X40505Y21500D01*
G01X40498Y21487D01*
G01X40490Y21475D01*
G01X40479Y21465D01*
G01X40468Y21456D01*
G01X40455Y21449D01*
G01X40441Y21444D01*
G01X40427Y21441D01*
G01X40412Y21440D01*
G01X40005Y21440D01*
G01X39981Y21439D01*
G01X39957Y21436D01*
G01X39934Y21430D01*
G01X39912Y21423D01*
G01X39890Y21413D01*
G01X39869Y21402D01*
G01X39850Y21388D01*
G01X39832Y21373D01*
G01X39815Y21356D01*
G01X39800Y21338D01*
G01X39787Y21319D01*
G01X39775Y21298D01*
G01X39765Y21276D01*
G01X39758Y21254D01*
G01X39753Y21231D01*
G01X39749Y21207D01*
G01X39748Y21184D01*
G01X39748Y19284D01*
G01X39749Y19260D01*
G01X39753Y19236D01*
G01X39758Y19214D01*
G01X39765Y19191D01*
G01X39775Y19169D01*
G01X39787Y19149D01*
G01X39800Y19129D01*
G01X39815Y19110D01*
G01X39832Y19094D01*
G01X39850Y19079D01*
G01X39869Y19065D01*
G01X39890Y19054D01*
G01X39912Y19044D01*
G01X39934Y19037D01*
G01X39957Y19031D01*
G01X39981Y19028D01*
G01X40005Y19027D01*
G01X41904Y19027D01*
G01X41928Y19028D01*
G01X41952Y19031D01*
G01X41975Y19037D01*
G01X41997Y19044D01*
G01X42019Y19054D01*
G01X42039Y19065D01*
G01X42059Y19078D01*
G01X42077Y19094D01*
G01X42093Y19110D01*
G01X42109Y19128D01*
G01X42122Y19148D01*
G01X42134Y19168D01*
G01X42142Y19182D01*
G01X42152Y19194D01*
G01X42165Y19205D01*
G01X42178Y19213D01*
G01X42193Y19219D01*
G01X42209Y19223D01*
G01X42224Y19224D01*
G01X42240Y19223D01*
G01X42256Y19219D01*
G01X42271Y19213D01*
G01X42284Y19205D01*
G01X42297Y19194D01*
G01X42307Y19182D01*
G01X42315Y19168D01*
G01X42327Y19148D01*
G01X42340Y19128D01*
G01X42356Y19110D01*
G01X42372Y19094D01*
G01X42390Y19078D01*
G01X42410Y19065D01*
G01X42431Y19054D01*
G01X42452Y19044D01*
G01X42474Y19037D01*
G01X42497Y19031D01*
G01X42521Y19028D01*
G01X42545Y19027D01*
G01X44444Y19027D01*
G01X44468Y19028D01*
G01X44492Y19031D01*
G01X44515Y19037D01*
G01X44537Y19044D01*
G01X44559Y19054D01*
G01X44579Y19065D01*
G01X44599Y19078D01*
G01X44617Y19094D01*
G01X44633Y19110D01*
G01X44649Y19128D01*
G01X44662Y19148D01*
G01X44674Y19168D01*
G01X44682Y19182D01*
G01X44692Y19194D01*
G01X44705Y19205D01*
G01X44718Y19213D01*
G01X44733Y19219D01*
G01X44749Y19223D01*
G01X44764Y19224D01*
G01X44780Y19223D01*
G01X44796Y19219D01*
G01X44811Y19213D01*
G01X44824Y19205D01*
G01X44837Y19194D01*
G01X44847Y19182D01*
G01X44855Y19168D01*
G01X44867Y19148D01*
G01X44880Y19128D01*
G01X44896Y19110D01*
G01X44912Y19094D01*
G01X44930Y19078D01*
G01X44950Y19065D01*
G01X44971Y19054D01*
G01X44992Y19044D01*
G01X45014Y19037D01*
G01X45037Y19031D01*
G01X45061Y19028D01*
G01X45085Y19027D01*
G01X46984Y19027D01*
G01X47008Y19028D01*
G01X47032Y19031D01*
G01X47055Y19037D01*
G01X47077Y19044D01*
G01X47099Y19054D01*
G01X47119Y19065D01*
G01X47139Y19078D01*
G01X47157Y19094D01*
G01X47173Y19110D01*
G01X47189Y19128D01*
G01X47202Y19148D01*
G01X47214Y19168D01*
G01X47222Y19182D01*
G01X47232Y19194D01*
G01X47245Y19205D01*
G01X47258Y19213D01*
G01X47273Y19219D01*
G01X47289Y19223D01*
G01X47304Y19224D01*
G01X47320Y19223D01*
G01X47336Y19219D01*
G01X47351Y19213D01*
G01X47364Y19205D01*
G01X47377Y19194D01*
G01X47387Y19182D01*
G01X47395Y19168D01*
G01X47407Y19148D01*
G01X47420Y19128D01*
G01X47436Y19110D01*
G01X47452Y19094D01*
G01X47470Y19078D01*
G01X47490Y19065D01*
G01X47511Y19054D01*
G01X47532Y19044D01*
G01X47554Y19037D01*
G01X47577Y19031D01*
G01X47601Y19028D01*
G01X47625Y19027D01*
G01X49524Y19027D01*
G01X49548Y19028D01*
G01X49572Y19031D01*
G01X49595Y19037D01*
G01X49617Y19044D01*
G01X49639Y19054D01*
G01X49659Y19065D01*
G01X49679Y19078D01*
G01X49697Y19094D01*
G01X49713Y19110D01*
G01X49729Y19128D01*
G01X49742Y19148D01*
G01X49754Y19168D01*
G01X49762Y19182D01*
G01X49772Y19194D01*
G01X49785Y19205D01*
G01X49798Y19213D01*
G01X49813Y19219D01*
G01X49829Y19223D01*
G01X49844Y19224D01*
G01X49860Y19223D01*
G01X49876Y19219D01*
G01X49891Y19213D01*
G01X49904Y19205D01*
G01X49917Y19194D01*
G01X49927Y19182D01*
G01X49935Y19168D01*
G01X49947Y19148D01*
G01X49960Y19128D01*
G01X49976Y19110D01*
G01X49992Y19094D01*
G01X50010Y19078D01*
G01X50030Y19065D01*
G01X50051Y19054D01*
G01X50072Y19044D01*
G01X50094Y19037D01*
G01X50117Y19031D01*
G01X50141Y19028D01*
G01X50165Y19027D01*
G01X52064Y19027D01*
G01X52088Y19028D01*
G01X52112Y19031D01*
G01X52135Y19037D01*
G01X52157Y19044D01*
G01X52179Y19054D01*
G01X52199Y19065D01*
G01X52219Y19078D01*
G01X52237Y19094D01*
G01X52253Y19110D01*
G01X52269Y19128D01*
G01X52282Y19148D01*
G01X52294Y19168D01*
G01X52302Y19182D01*
G01X52312Y19194D01*
G01X52325Y19205D01*
G01X52338Y19213D01*
G01X52353Y19219D01*
G01X52369Y19223D01*
G01X52384Y19224D01*
G01X52400Y19223D01*
G01X52416Y19219D01*
G01X52431Y19213D01*
G01X52444Y19205D01*
G01X52457Y19194D01*
G01X52467Y19182D01*
G01X52475Y19168D01*
G01X52487Y19148D01*
G01X52500Y19128D01*
G01X52516Y19110D01*
G01X52532Y19094D01*
G01X52550Y19078D01*
G01X52570Y19065D01*
G01X52591Y19054D01*
G01X52612Y19044D01*
G01X52634Y19037D01*
G01X52657Y19031D01*
G01X52681Y19028D01*
G01X52705Y19027D01*
G01X54604Y19027D01*
G01X54628Y19028D01*
G01X54652Y19031D01*
G01X54675Y19037D01*
G01X54697Y19044D01*
G01X54719Y19054D01*
G01X54740Y19066D01*
G01X54760Y19079D01*
G01X54778Y19095D01*
G01X54795Y19111D01*
G01X54810Y19130D01*
G01X54823Y19150D01*
G01X54835Y19170D01*
G01X54843Y19185D01*
G01X54853Y19197D01*
G01X54866Y19207D01*
G01X54879Y19216D01*
G01X54894Y19222D01*
G01X54910Y19226D01*
G01X54926Y19227D01*
G01X54942Y19226D01*
G01X54958Y19222D01*
G01X54973Y19216D01*
G01X54986Y19207D01*
G01X54999Y19197D01*
G01X55009Y19185D01*
G01X55017Y19170D01*
G01X55029Y19150D01*
G01X55042Y19130D01*
G01X55057Y19111D01*
G01X55074Y19095D01*
G01X55092Y19079D01*
G01X55112Y19066D01*
G01X55133Y19054D01*
G01X55155Y19044D01*
G01X55177Y19037D01*
G01X55200Y19031D01*
G01X55224Y19028D01*
G01X55248Y19027D01*
G01X57147Y19027D01*
G01X57171Y19028D01*
G01X57195Y19031D01*
G01X57218Y19037D01*
G01X57240Y19044D01*
G01X57262Y19054D01*
G01X57283Y19065D01*
G01X57302Y19079D01*
G01X57320Y19094D01*
G01X57337Y19110D01*
G01X57352Y19129D01*
G01X57365Y19149D01*
G01X57377Y19169D01*
G01X57387Y19191D01*
G01X57394Y19213D01*
G01X57399Y19236D01*
G01X57403Y19260D01*
G01X57404Y19284D01*
G01X57404Y21184D01*
G01X57403Y21207D01*
G01X57399Y21231D01*
G01X57394Y21254D01*
G01X57387Y21276D01*
G01X57377Y21298D01*
G01X57365Y21319D01*
G01X57352Y21338D01*
G01X57337Y21356D01*
G01X57320Y21373D01*
G01X57302Y21388D01*
G01X57283Y21402D01*
G01X57262Y21413D01*
G01X57240Y21423D01*
G01X57218Y21430D01*
G01X57195Y21436D01*
G01X57171Y21439D01*
G01X57147Y21440D01*
G01X55877Y21440D01*
G01X55863Y21441D01*
G01X55849Y21444D01*
G01X55835Y21449D01*
G01X55822Y21456D01*
G01X55810Y21465D01*
G01X55800Y21475D01*
G01X55792Y21487D01*
G01X55785Y21500D01*
G01X55779Y21513D01*
G01X55776Y21527D01*
G01X55775Y21542D01*
G01X55777Y21560D01*
G01X55781Y21577D01*
G01X55789Y21593D01*
G01X55822Y21635D01*
G01X55842Y21665D01*
G01X55861Y21696D01*
G01X55877Y21728D01*
G01X55892Y21760D01*
G01X55904Y21794D01*
G01X55915Y21828D01*
G01X55923Y21863D01*
G01X55928Y21899D01*
G01X55932Y21934D01*
G01X55933Y21971D01*
G01X55932Y22005D01*
G01X55929Y22038D01*
G01X55924Y22072D01*
G01X55917Y22105D01*
G01X55907Y22138D01*
G01X55896Y22170D01*
G01X55884Y22201D01*
G01X55868Y22232D01*
G01X55852Y22261D01*
G01X55833Y22290D01*
G01X55813Y22316D01*
G01X55792Y22343D01*
G01X55744Y22391D01*
G01X55717Y22412D01*
G01X55691Y22432D01*
G01X55662Y22451D01*
G01X55633Y22467D01*
G01X55602Y22483D01*
G01X55571Y22495D01*
G01X55539Y22506D01*
G01X55506Y22516D01*
G01X55473Y22523D01*
G01X55439Y22528D01*
G01X55406Y22531D01*
G01X55372Y22532D01*
G01X55336Y22531D01*
G01X55301Y22527D01*
G01X55267Y22522D01*
G01X55233Y22515D01*
G01X55199Y22505D01*
G01X55166Y22493D01*
G01X55134Y22479D01*
G01X55102Y22463D01*
G01X55072Y22445D01*
G01X55043Y22426D01*
G01X55015Y22404D01*
G01X54989Y22381D01*
G01X54977Y22372D01*
G01X54964Y22364D01*
G01X54950Y22359D01*
G01X54935Y22355D01*
G01X54920Y22354D01*
G01X49731Y22354D01*
G01X49714Y22355D01*
G01X49699Y22359D01*
G01X49684Y22365D01*
G01X49671Y22373D01*
G01X49659Y22384D01*
G01X49359Y22684D01*
G01X49349Y22695D01*
G01X49340Y22709D01*
G01X49334Y22724D01*
G01X49330Y22740D01*
G01X49329Y22755D01*
G01X49330Y22770D01*
G01X49333Y22784D01*
G01X49338Y22798D01*
G01X49345Y22810D01*
G01X49354Y22822D01*
G01X49364Y22832D01*
G01X49376Y22841D01*
G01X49388Y22848D01*
G01X49402Y22853D01*
G01X49416Y22856D01*
G01X49431Y22857D01*
G01X60198Y22857D01*
G01X60227Y22858D01*
G01X60257Y22862D01*
G01X60287Y22868D01*
G01X60316Y22876D01*
G01X60344Y22886D01*
G01X60372Y22899D01*
G01X60398Y22913D01*
G01X60423Y22930D01*
G01X60446Y22949D01*
G01X60469Y22969D01*
G01X62816Y25317D01*
G01X62828Y25327D01*
G01X62841Y25335D01*
G01X62855Y25341D01*
G01X62870Y25345D01*
G01X62884Y25347D01*
G01X62919Y25349D01*
G01X62953Y25353D01*
G01X62987Y25360D01*
G01X63020Y25368D01*
G01X63053Y25379D01*
G01X63085Y25391D01*
G01X63116Y25406D01*
G01X63147Y25422D01*
G01X63176Y25441D01*
G01X63204Y25460D01*
G01X63231Y25482D01*
G01X63256Y25506D01*
G01X63280Y25530D01*
G01X63302Y25556D01*
G01X63323Y25584D01*
G01X63342Y25613D01*
G01X63359Y25643D01*
G01X63375Y25673D01*
G01X63388Y25705D01*
G01X63399Y25738D01*
G01X63409Y25771D01*
G01X63416Y25805D01*
G01X63422Y25839D01*
G01X63425Y25873D01*
G01X63426Y25908D01*
G01X63425Y25942D01*
G01X63422Y25975D01*
G01X63417Y26009D01*
G01X63410Y26042D01*
G01X63400Y26075D01*
G01X63389Y26107D01*
G01X63377Y26138D01*
G01X63361Y26169D01*
G01X63345Y26198D01*
G01X63326Y26227D01*
G01X63306Y26253D01*
G01X63285Y26280D01*
G01X63237Y26328D01*
G01X63210Y26349D01*
G01X63184Y26369D01*
G01X63155Y26388D01*
G01X63126Y26404D01*
G01X63095Y26420D01*
G01X63064Y26432D01*
G01X63032Y26443D01*
G01X62999Y26453D01*
G01X62966Y26460D01*
G01X62932Y26465D01*
G01X62899Y26468D01*
G01X62865Y26469D01*
G01X62830Y26468D01*
G01X62796Y26465D01*
G01X62762Y26459D01*
G01X62728Y26452D01*
G01X62695Y26442D01*
G01X62662Y26431D01*
G01X62630Y26418D01*
G01X62600Y26402D01*
G01X62570Y26385D01*
G01X62541Y26366D01*
G01X62513Y26345D01*
G01X62487Y26323D01*
G01X62463Y26299D01*
G01X62439Y26274D01*
G01X62417Y26247D01*
G01X62398Y26219D01*
G01X62379Y26190D01*
G01X62363Y26159D01*
G01X62348Y26128D01*
G01X62336Y26096D01*
G01X62325Y26063D01*
G01X62317Y26030D01*
G01X62310Y25996D01*
G01X62306Y25962D01*
G01X62304Y25927D01*
G01X62302Y25913D01*
G01X62298Y25898D01*
G01X62292Y25884D01*
G01X62284Y25871D01*
G01X62274Y25859D01*
G01X60068Y23654D01*
G01X60056Y23643D01*
G01X60043Y23635D01*
G01X60028Y23629D01*
G01X60013Y23625D01*
G01X59996Y23624D01*
G01X43254Y23624D01*
G01X43237Y23625D01*
G01X43222Y23629D01*
G01X43207Y23635D01*
G01X43194Y23643D01*
G01X43182Y23654D01*
G01X31274Y35562D01*
G01X31263Y35574D01*
G01X31255Y35587D01*
G01X31249Y35602D01*
G01X31245Y35617D01*
G01X31244Y35634D01*
G01X31244Y36547D01*
G01X31245Y36562D01*
G01X31248Y36576D01*
G01X31253Y36590D01*
G01X31260Y36602D01*
G01X31269Y36614D01*
G01X31279Y36624D01*
G01X31291Y36633D01*
G01X31303Y36640D01*
G01X31317Y36645D01*
G01X31331Y36648D01*
G01X31346Y36649D01*
G01X31361Y36648D01*
G01X31377Y36644D01*
G01X31392Y36638D01*
G01X31406Y36629D01*
G01X31417Y36619D01*
G01X34399Y33637D01*
G01X34422Y33617D01*
G01X34445Y33598D01*
G01X34470Y33581D01*
G01X34496Y33567D01*
G01X34524Y33554D01*
G01X34552Y33544D01*
G01X34581Y33536D01*
G01X34611Y33530D01*
G01X34641Y33526D01*
G01X34671Y33525D01*
G01X35108Y33525D01*
G01X35123Y33524D01*
G01X35138Y33520D01*
G01X35152Y33515D01*
G01X35165Y33507D01*
G01X35177Y33498D01*
G01X35203Y33475D01*
G01X35231Y33453D01*
G01X35260Y33434D01*
G01X35290Y33416D01*
G01X35322Y33400D01*
G01X35354Y33386D01*
G01X35387Y33374D01*
G01X35421Y33364D01*
G01X35455Y33357D01*
G01X35489Y33352D01*
G01X35524Y33348D01*
G01X35560Y33347D01*
G01X35594Y33348D01*
G01X35627Y33351D01*
G01X35661Y33356D01*
G01X35694Y33363D01*
G01X35727Y33373D01*
G01X35759Y33384D01*
G01X35790Y33396D01*
G01X35821Y33412D01*
G01X35850Y33428D01*
G01X35879Y33447D01*
G01X35905Y33467D01*
G01X35932Y33488D01*
G01X35980Y33536D01*
G01X36001Y33563D01*
G01X36021Y33589D01*
G01X36040Y33618D01*
G01X36056Y33647D01*
G01X36072Y33678D01*
G01X36084Y33709D01*
G01X36095Y33741D01*
G01X36105Y33774D01*
G01X36112Y33807D01*
G01X36117Y33841D01*
G01X36120Y33874D01*
G01X36121Y33909D01*
G01X36120Y33943D01*
G01X36117Y33976D01*
G01X36112Y34010D01*
G01X36105Y34043D01*
G01X36095Y34076D01*
G01X36084Y34108D01*
G01X36072Y34139D01*
G01X36056Y34170D01*
G01X36040Y34199D01*
G01X36021Y34228D01*
G01X36001Y34254D01*
G01X35980Y34281D01*
G01X35932Y34329D01*
G01X35905Y34350D01*
G01X35879Y34370D01*
G01X35850Y34389D01*
G01X35821Y34405D01*
G01X35790Y34421D01*
G01X35759Y34433D01*
G01X35727Y34444D01*
G01X35694Y34454D01*
G01X35661Y34461D01*
G01X35627Y34466D01*
G01X35594Y34469D01*
G01X35560Y34470D01*
G01X35524Y34469D01*
G01X35489Y34465D01*
G01X35455Y34460D01*
G01X35421Y34453D01*
G01X35387Y34443D01*
G01X35354Y34431D01*
G01X35322Y34417D01*
G01X35290Y34401D01*
G01X35260Y34383D01*
G01X35231Y34364D01*
G01X35203Y34342D01*
G01X35177Y34319D01*
G01X35165Y34310D01*
G01X35152Y34302D01*
G01X35138Y34297D01*
G01X35123Y34293D01*
G01X35108Y34292D01*
G01X34872Y34292D01*
G01X34855Y34293D01*
G01X34840Y34297D01*
G01X34825Y34303D01*
G01X34812Y34311D01*
G01X34800Y34322D01*
G01X32587Y36535D01*
G01X32576Y36547D01*
G01X32568Y36561D01*
G01X32562Y36576D01*
G01X32558Y36591D01*
G01X32557Y36607D01*
G01X32558Y36621D01*
G01X32561Y36635D01*
G01X32566Y36649D01*
G01X32573Y36662D01*
G01X32582Y36674D01*
G01X32592Y36684D01*
G01X32603Y36692D01*
G01X32616Y36699D01*
G01X32648Y36715D01*
G01X32678Y36732D01*
G01X32707Y36751D01*
G01X32735Y36772D01*
G01X32761Y36794D01*
G01X32773Y36803D01*
G01X32786Y36811D01*
G01X32800Y36816D01*
G01X32814Y36819D01*
G01X32829Y36820D01*
G01X32844Y36819D01*
G01X32858Y36816D01*
G01X32872Y36811D01*
G01X32885Y36803D01*
G01X32897Y36794D01*
G01X32923Y36772D01*
G01X32951Y36751D01*
G01X32979Y36732D01*
G01X33009Y36715D01*
G01X33040Y36700D01*
G01X33072Y36687D01*
G01X33104Y36675D01*
G01X33137Y36666D01*
G01X33171Y36659D01*
G01X33205Y36653D01*
G01X33239Y36650D01*
G01X33274Y36649D01*
G01X33308Y36650D01*
G01X33341Y36653D01*
G01X33375Y36658D01*
G01X33408Y36665D01*
G01X33441Y36675D01*
G01X33473Y36686D01*
G01X33504Y36698D01*
G01X33535Y36714D01*
G01X33564Y36730D01*
G01X33593Y36749D01*
G01X33619Y36769D01*
G01X33646Y36790D01*
G01X33694Y36838D01*
G01X33715Y36865D01*
G01X33735Y36891D01*
G01X33754Y36920D01*
G01X33770Y36949D01*
G01X33786Y36980D01*
G01X33798Y37011D01*
G01X33809Y37043D01*
G01X33819Y37076D01*
G01X33826Y37109D01*
G01X33831Y37143D01*
G01X33834Y37176D01*
G01X33835Y37211D01*
G01X33834Y37245D01*
G01X33831Y37279D01*
G01X33825Y37313D01*
G01X33818Y37347D01*
G01X33808Y37380D01*
G01X33797Y37413D01*
G01X33784Y37445D01*
G01X33768Y37475D01*
G01X33751Y37505D01*
G01X33732Y37534D01*
G01X33711Y37562D01*
G01X33689Y37588D01*
G01X33665Y37612D01*
G01X33640Y37636D01*
G01X33613Y37658D01*
G01X33585Y37677D01*
G01X33556Y37696D01*
G01X33525Y37712D01*
G01X33494Y37727D01*
G01X33462Y37739D01*
G01X33429Y37750D01*
G01X33396Y37758D01*
G01X33362Y37765D01*
G01X33328Y37769D01*
G01X33293Y37771D01*
G01X33279Y37773D01*
G01X33264Y37777D01*
G01X33250Y37783D01*
G01X33237Y37791D01*
G01X33225Y37801D01*
G01X32925Y38102D01*
G01X32914Y38114D01*
G01X32906Y38127D01*
G01X32900Y38142D01*
G01X32896Y38157D01*
G01X32895Y38174D01*
G01X32895Y41529D01*
G01X32894Y41558D01*
G01X32890Y41588D01*
G01X32884Y41618D01*
G01X32876Y41647D01*
G01X32866Y41675D01*
G01X32853Y41703D01*
G01X32839Y41729D01*
G01X32822Y41754D01*
G01X32803Y41777D01*
G01X32783Y41800D01*
G01X24825Y49758D01*
G01X24803Y49778D01*
G01X24779Y49797D01*
G01X24754Y49813D01*
G01X24728Y49828D01*
G01X24700Y49841D01*
G01X24672Y49851D01*
G01X24643Y49859D01*
G01X24614Y49865D01*
G01X24584Y49869D01*
G01X24554Y49870D01*
G01X24523Y49869D01*
G01X24492Y49865D01*
G01X24476Y49864D01*
G01X22635Y49864D01*
G01X22619Y49865D01*
G01X22603Y49869D01*
G01X22589Y49875D01*
G01X22575Y49883D01*
G01X22563Y49893D01*
G01X18973Y53484D01*
G01X18948Y53506D01*
G01X18923Y53526D01*
G01X18895Y53544D01*
G01X18882Y53552D01*
G01X18871Y53563D01*
G01X18862Y53575D01*
G01X18854Y53587D01*
G01X18849Y53602D01*
G01X18846Y53616D01*
G01X18844Y53632D01*
G01X18846Y53648D01*
G01X18850Y53665D01*
G01X18856Y53680D01*
G01X18866Y53694D01*
G01X18877Y53706D01*
G01X18912Y53740D01*
G01X18945Y53775D01*
G01X18977Y53812D01*
G01X19007Y53850D01*
G01X19035Y53889D01*
G01X19061Y53930D01*
G01X19086Y53972D01*
G01X19108Y54015D01*
G01X19128Y54059D01*
G01X19147Y54104D01*
G01X19163Y54149D01*
G01X19178Y54195D01*
G01X19189Y54242D01*
G01X19199Y54290D01*
G01X19207Y54338D01*
G01X19213Y54386D01*
G01X19216Y54434D01*
G01X19217Y54483D01*
G01X19216Y54530D01*
G01X19213Y54577D01*
G01X19207Y54624D01*
G01X19200Y54671D01*
G01X19191Y54718D01*
G01X19179Y54763D01*
G01X19165Y54809D01*
G01X19150Y54854D01*
G01X19132Y54898D01*
G01X19112Y54941D01*
G01X19091Y54983D01*
G01X19067Y55025D01*
G01X19042Y55065D01*
G01X19015Y55103D01*
G01X18987Y55141D01*
G01X18956Y55177D01*
G01X18924Y55212D01*
G01X18890Y55246D01*
G01X18855Y55278D01*
G01X18819Y55309D01*
G01X18781Y55337D01*
G01X18743Y55364D01*
G01X18703Y55389D01*
G01X18661Y55413D01*
G01X18619Y55434D01*
G01X18576Y55454D01*
G01X18532Y55472D01*
G01X18487Y55487D01*
G01X18441Y55501D01*
G01X18396Y55513D01*
G01X18349Y55522D01*
G01X18302Y55529D01*
G01X18255Y55535D01*
G01X18208Y55538D01*
G01X18161Y55539D01*
G01X18113Y55538D01*
G01X18066Y55535D01*
G01X18019Y55529D01*
G01X17972Y55522D01*
G01X17925Y55513D01*
G01X17880Y55501D01*
G01X17834Y55487D01*
G01X17789Y55472D01*
G01X17745Y55454D01*
G01X17702Y55434D01*
G01X17660Y55413D01*
G01X17618Y55389D01*
G01X17578Y55364D01*
G01X17540Y55337D01*
G01X17502Y55309D01*
G01X17466Y55278D01*
G01X17431Y55246D01*
G01X17397Y55212D01*
G01X17365Y55177D01*
G01X17334Y55141D01*
G01X17306Y55103D01*
G01X17279Y55065D01*
G01X17254Y55025D01*
G01X17230Y54983D01*
G01X17209Y54941D01*
G01X17189Y54898D01*
G01X17171Y54854D01*
G01X17156Y54809D01*
G01X17142Y54763D01*
G01X17130Y54718D01*
G01X17121Y54671D01*
G01X17114Y54624D01*
G01X17108Y54577D01*
G01X17105Y54530D01*
G01X17104Y54483D01*
G01X17105Y54433D01*
G01X17108Y54384D01*
G01X17114Y54336D01*
G01X17122Y54287D01*
G01X17132Y54239D01*
G01X17145Y54191D01*
G01X17160Y54144D01*
G01X17177Y54098D01*
G01X17195Y54053D01*
G01X17216Y54009D01*
G01X17239Y53965D01*
G01X17264Y53923D01*
G01X17291Y53882D01*
G01X17320Y53842D01*
G01X17351Y53803D01*
G01X17384Y53767D01*
G01X17393Y53755D01*
G01X17401Y53741D01*
G01X17406Y53728D01*
G01X17409Y53713D01*
G01X17411Y53698D01*
G01X17410Y53683D01*
G01X17406Y53669D01*
G01X17401Y53655D01*
G01X17394Y53643D01*
G01X17386Y53631D01*
G01X17376Y53621D01*
G01X17364Y53612D01*
G01X17351Y53605D01*
G01X17338Y53600D01*
G01X17323Y53597D01*
G01X17309Y53596D01*
G01X17092Y53596D01*
G01X17075Y53597D01*
G01X17060Y53601D01*
G01X17045Y53607D01*
G01X17032Y53615D01*
G01X17020Y53626D01*
G01X16707Y53938D01*
G01X16696Y53951D01*
G01X16688Y53964D01*
G01X16682Y53979D01*
G01X16678Y53994D01*
G01X16677Y54011D01*
G01X16677Y55283D01*
G01X16676Y55306D01*
G01X16673Y55330D01*
G01X16667Y55353D01*
G01X16660Y55375D01*
G01X16650Y55397D01*
G01X16639Y55418D01*
G01X16625Y55437D01*
G01X16610Y55455D01*
G01X16593Y55472D01*
G01X16575Y55487D01*
G01X16556Y55501D01*
G01X16535Y55512D01*
G01X16513Y55522D01*
G01X16491Y55529D01*
G01X16468Y55535D01*
G01X16444Y55538D01*
G01X16421Y55539D01*
G37*
G36*
G01X31643Y57289D02*
G01X31575Y57290D01*
G01X31506Y57289D01*
G01X31438Y57286D01*
G01X31371Y57281D01*
G01X31302Y57273D01*
G01X31235Y57264D01*
G01X31168Y57253D01*
G01X31101Y57240D01*
G01X31035Y57224D01*
G01X30969Y57207D01*
G01X30903Y57188D01*
G01X30839Y57167D01*
G01X30774Y57143D01*
G01X30711Y57118D01*
G01X30649Y57091D01*
G01X30587Y57062D01*
G01X30526Y57032D01*
G01X30466Y56999D01*
G01X30407Y56965D01*
G01X30349Y56929D01*
G01X30237Y56851D01*
G01X30183Y56810D01*
G01X30130Y56767D01*
G01X30078Y56722D01*
G01X30028Y56677D01*
G01X29979Y56629D01*
G01X29931Y56580D01*
G01X29886Y56530D01*
G01X29841Y56478D01*
G01X29798Y56425D01*
G01X29757Y56371D01*
G01X29718Y56315D01*
G01X29679Y56258D01*
G01X29643Y56201D01*
G01X29609Y56142D01*
G01X29576Y56082D01*
G01X29546Y56021D01*
G01X29517Y55960D01*
G01X29490Y55897D01*
G01X29465Y55834D01*
G01X29442Y55770D01*
G01X29420Y55705D01*
G01X29401Y55639D01*
G01X29384Y55574D01*
G01X29369Y55507D01*
G01X29355Y55440D01*
G01X29344Y55373D01*
G01X29334Y55305D01*
G01X29327Y55238D01*
G01X29322Y55170D01*
G01X29319Y55102D01*
G01X29318Y55034D01*
G01X29319Y54965D01*
G01X29322Y54897D01*
G01X29327Y54829D01*
G01X29334Y54761D01*
G01X29344Y54694D01*
G01X29355Y54627D01*
G01X29369Y54560D01*
G01X29384Y54494D01*
G01X29401Y54428D01*
G01X29420Y54362D01*
G01X29442Y54298D01*
G01X29465Y54233D01*
G01X29490Y54170D01*
G01X29517Y54107D01*
G01X29546Y54046D01*
G01X29576Y53985D01*
G01X29609Y53925D01*
G01X29643Y53866D01*
G01X29679Y53808D01*
G01X29718Y53751D01*
G01X29757Y53696D01*
G01X29798Y53642D01*
G01X29841Y53589D01*
G01X29886Y53537D01*
G01X29931Y53487D01*
G01X29979Y53438D01*
G01X30028Y53390D01*
G01X30078Y53345D01*
G01X30130Y53300D01*
G01X30183Y53257D01*
G01X30237Y53216D01*
G01X30293Y53176D01*
G01X30349Y53138D01*
G01X30407Y53102D01*
G01X30466Y53068D01*
G01X30526Y53035D01*
G01X30587Y53005D01*
G01X30649Y52976D01*
G01X30711Y52949D01*
G01X30774Y52923D01*
G01X30839Y52901D01*
G01X30903Y52879D01*
G01X30969Y52860D01*
G01X31035Y52843D01*
G01X31101Y52827D01*
G01X31168Y52814D01*
G01X31235Y52803D01*
G01X31302Y52793D01*
G01X31371Y52786D01*
G01X31438Y52781D01*
G01X31506Y52778D01*
G01X31575Y52777D01*
G01X31643Y52778D01*
G01X31711Y52781D01*
G01X31779Y52786D01*
G01X31847Y52793D01*
G01X31914Y52803D01*
G01X31981Y52814D01*
G01X32048Y52827D01*
G01X32115Y52843D01*
G01X32180Y52860D01*
G01X32246Y52879D01*
G01X32311Y52901D01*
G01X32375Y52923D01*
G01X32438Y52949D01*
G01X32501Y52976D01*
G01X32562Y53005D01*
G01X32623Y53035D01*
G01X32683Y53068D01*
G01X32742Y53102D01*
G01X32800Y53138D01*
G01X32856Y53176D01*
G01X32912Y53216D01*
G01X32966Y53257D01*
G01X33019Y53300D01*
G01X33071Y53345D01*
G01X33121Y53390D01*
G01X33170Y53438D01*
G01X33218Y53487D01*
G01X33263Y53537D01*
G01X33308Y53589D01*
G01X33351Y53642D01*
G01X33392Y53696D01*
G01X33431Y53751D01*
G01X33470Y53808D01*
G01X33506Y53866D01*
G01X33540Y53925D01*
G01X33573Y53985D01*
G01X33603Y54046D01*
G01X33632Y54107D01*
G01X33659Y54170D01*
G01X33684Y54233D01*
G01X33708Y54298D01*
G01X33729Y54362D01*
G01X33748Y54428D01*
G01X33766Y54494D01*
G01X33781Y54560D01*
G01X33794Y54627D01*
G01X33805Y54694D01*
G01X33815Y54761D01*
G01X33822Y54829D01*
G01X33827Y54897D01*
G01X33830Y54965D01*
G01X33831Y55034D01*
G01X33830Y55102D01*
G01X33827Y55170D01*
G01X33822Y55238D01*
G01X33815Y55305D01*
G01X33805Y55373D01*
G01X33794Y55440D01*
G01X33781Y55507D01*
G01X33766Y55574D01*
G01X33748Y55639D01*
G01X33729Y55705D01*
G01X33708Y55770D01*
G01X33684Y55834D01*
G01X33659Y55897D01*
G01X33632Y55960D01*
G01X33603Y56021D01*
G01X33573Y56082D01*
G01X33540Y56142D01*
G01X33506Y56201D01*
G01X33470Y56258D01*
G01X33431Y56315D01*
G01X33392Y56371D01*
G01X33351Y56425D01*
G01X33308Y56478D01*
G01X33263Y56530D01*
G01X33218Y56580D01*
G01X33170Y56629D01*
G01X33121Y56677D01*
G01X33071Y56722D01*
G01X33019Y56767D01*
G01X32966Y56810D01*
G01X32912Y56851D01*
G01X32800Y56929D01*
G01X32742Y56965D01*
G01X32683Y56999D01*
G01X32623Y57032D01*
G01X32562Y57062D01*
G01X32501Y57091D01*
G01X32438Y57118D01*
G01X32375Y57143D01*
G01X32311Y57167D01*
G01X32246Y57188D01*
G01X32180Y57207D01*
G01X32115Y57224D01*
G01X32048Y57240D01*
G01X31981Y57253D01*
G01X31914Y57264D01*
G01X31847Y57273D01*
G01X31779Y57281D01*
G01X31711Y57286D01*
G01X31643Y57289D01*
G37*
G36*
G01X65643Y57289D02*
G01X65575Y57290D01*
G01X65507Y57289D01*
G01X65439Y57286D01*
G01X65370Y57281D01*
G01X65302Y57273D01*
G01X65235Y57264D01*
G01X65168Y57253D01*
G01X65101Y57240D01*
G01X65035Y57225D01*
G01X64969Y57207D01*
G01X64903Y57188D01*
G01X64839Y57167D01*
G01X64711Y57119D01*
G01X64649Y57091D01*
G01X64587Y57062D01*
G01X64526Y57032D01*
G01X64466Y56999D01*
G01X64407Y56965D01*
G01X64349Y56929D01*
G01X64292Y56890D01*
G01X64237Y56851D01*
G01X64183Y56810D01*
G01X64130Y56767D01*
G01X64078Y56723D01*
G01X64028Y56677D01*
G01X63979Y56629D01*
G01X63931Y56580D01*
G01X63886Y56530D01*
G01X63841Y56478D01*
G01X63798Y56425D01*
G01X63757Y56371D01*
G01X63717Y56315D01*
G01X63680Y56259D01*
G01X63643Y56201D01*
G01X63609Y56142D01*
G01X63577Y56082D01*
G01X63546Y56021D01*
G01X63517Y55960D01*
G01X63490Y55897D01*
G01X63464Y55834D01*
G01X63442Y55770D01*
G01X63420Y55705D01*
G01X63401Y55640D01*
G01X63384Y55574D01*
G01X63368Y55507D01*
G01X63355Y55440D01*
G01X63344Y55373D01*
G01X63334Y55305D01*
G01X63327Y55238D01*
G01X63322Y55170D01*
G01X63319Y55102D01*
G01X63318Y55034D01*
G01X63319Y54966D01*
G01X63322Y54898D01*
G01X63327Y54829D01*
G01X63334Y54761D01*
G01X63344Y54694D01*
G01X63355Y54627D01*
G01X63368Y54560D01*
G01X63384Y54494D01*
G01X63401Y54428D01*
G01X63420Y54362D01*
G01X63464Y54234D01*
G01X63490Y54170D01*
G01X63517Y54108D01*
G01X63546Y54046D01*
G01X63577Y53985D01*
G01X63609Y53925D01*
G01X63643Y53866D01*
G01X63680Y53808D01*
G01X63717Y53751D01*
G01X63757Y53696D01*
G01X63798Y53642D01*
G01X63841Y53589D01*
G01X63886Y53537D01*
G01X63931Y53487D01*
G01X63979Y53438D01*
G01X64028Y53390D01*
G01X64078Y53345D01*
G01X64130Y53300D01*
G01X64183Y53257D01*
G01X64237Y53216D01*
G01X64292Y53176D01*
G01X64349Y53139D01*
G01X64407Y53102D01*
G01X64466Y53068D01*
G01X64526Y53036D01*
G01X64587Y53005D01*
G01X64649Y52976D01*
G01X64711Y52949D01*
G01X64775Y52923D01*
G01X64903Y52879D01*
G01X64969Y52860D01*
G01X65035Y52843D01*
G01X65101Y52827D01*
G01X65168Y52814D01*
G01X65235Y52803D01*
G01X65302Y52793D01*
G01X65370Y52786D01*
G01X65439Y52781D01*
G01X65507Y52778D01*
G01X65575Y52777D01*
G01X65643Y52778D01*
G01X65711Y52781D01*
G01X65779Y52786D01*
G01X65846Y52793D01*
G01X65914Y52803D01*
G01X65981Y52814D01*
G01X66048Y52827D01*
G01X66115Y52843D01*
G01X66181Y52860D01*
G01X66246Y52879D01*
G01X66311Y52901D01*
G01X66375Y52923D01*
G01X66438Y52949D01*
G01X66501Y52976D01*
G01X66562Y53005D01*
G01X66623Y53036D01*
G01X66683Y53068D01*
G01X66742Y53102D01*
G01X66800Y53139D01*
G01X66856Y53176D01*
G01X66912Y53216D01*
G01X66966Y53257D01*
G01X67019Y53300D01*
G01X67071Y53345D01*
G01X67121Y53390D01*
G01X67170Y53438D01*
G01X67218Y53487D01*
G01X67264Y53537D01*
G01X67308Y53589D01*
G01X67351Y53642D01*
G01X67392Y53696D01*
G01X67431Y53751D01*
G01X67470Y53808D01*
G01X67506Y53866D01*
G01X67540Y53925D01*
G01X67573Y53985D01*
G01X67603Y54046D01*
G01X67632Y54108D01*
G01X67660Y54170D01*
G01X67708Y54298D01*
G01X67729Y54362D01*
G01X67748Y54428D01*
G01X67766Y54494D01*
G01X67781Y54560D01*
G01X67794Y54627D01*
G01X67805Y54694D01*
G01X67814Y54761D01*
G01X67822Y54829D01*
G01X67827Y54898D01*
G01X67830Y54966D01*
G01X67831Y55034D01*
G01X67830Y55102D01*
G01X67827Y55170D01*
G01X67822Y55238D01*
G01X67814Y55305D01*
G01X67805Y55373D01*
G01X67794Y55440D01*
G01X67781Y55507D01*
G01X67766Y55574D01*
G01X67748Y55640D01*
G01X67729Y55705D01*
G01X67708Y55770D01*
G01X67684Y55834D01*
G01X67660Y55897D01*
G01X67632Y55960D01*
G01X67603Y56021D01*
G01X67573Y56082D01*
G01X67540Y56142D01*
G01X67506Y56201D01*
G01X67470Y56259D01*
G01X67392Y56371D01*
G01X67351Y56425D01*
G01X67308Y56478D01*
G01X67264Y56530D01*
G01X67218Y56580D01*
G01X67170Y56629D01*
G01X67121Y56677D01*
G01X67071Y56723D01*
G01X67019Y56767D01*
G01X66966Y56810D01*
G01X66912Y56851D01*
G01X66800Y56929D01*
G01X66742Y56965D01*
G01X66683Y56999D01*
G01X66623Y57032D01*
G01X66562Y57062D01*
G01X66501Y57091D01*
G01X66438Y57119D01*
G01X66375Y57143D01*
G01X66311Y57167D01*
G01X66246Y57188D01*
G01X66181Y57207D01*
G01X66115Y57225D01*
G01X66048Y57240D01*
G01X65981Y57253D01*
G01X65914Y57264D01*
G01X65846Y57273D01*
G01X65779Y57281D01*
G01X65711Y57286D01*
G01X65643Y57289D01*
G37*
G36*
G01X8442Y55689D02*
G01X6543Y55689D01*
G01X6519Y55688D01*
G01X6495Y55684D01*
G01X6472Y55679D01*
G01X6450Y55672D01*
G01X6428Y55662D01*
G01X6407Y55650D01*
G01X6388Y55637D01*
G01X6370Y55622D01*
G01X6353Y55605D01*
G01X6338Y55587D01*
G01X6325Y55568D01*
G01X6313Y55547D01*
G01X6303Y55525D01*
G01X6296Y55503D01*
G01X6291Y55480D01*
G01X6287Y55456D01*
G01X6286Y55432D01*
G01X6286Y53533D01*
G01X6287Y53509D01*
G01X6291Y53485D01*
G01X6296Y53462D01*
G01X6303Y53440D01*
G01X6313Y53418D01*
G01X6325Y53397D01*
G01X6338Y53378D01*
G01X6353Y53360D01*
G01X6370Y53343D01*
G01X6388Y53328D01*
G01X6407Y53315D01*
G01X6428Y53303D01*
G01X6450Y53293D01*
G01X6472Y53286D01*
G01X6495Y53280D01*
G01X6519Y53277D01*
G01X6543Y53276D01*
G01X7052Y53276D01*
G01X7067Y53275D01*
G01X7081Y53272D01*
G01X7095Y53267D01*
G01X7107Y53260D01*
G01X7119Y53251D01*
G01X7129Y53241D01*
G01X7138Y53229D01*
G01X7145Y53217D01*
G01X7150Y53203D01*
G01X7153Y53189D01*
G01X7154Y53174D01*
G01X7153Y53159D01*
G01X7149Y53143D01*
G01X7144Y53129D01*
G01X7135Y53116D01*
G01X7125Y53104D01*
G01X7114Y53094D01*
G01X7101Y53085D01*
G01X7087Y53079D01*
G01X7039Y53061D01*
G01X6992Y53040D01*
G01X6946Y53018D01*
G01X6901Y52994D01*
G01X6857Y52968D01*
G01X6814Y52940D01*
G01X6773Y52911D01*
G01X6732Y52879D01*
G01X6693Y52846D01*
G01X6656Y52812D01*
G01X6620Y52776D01*
G01X6585Y52738D01*
G01X6552Y52698D01*
G01X6521Y52658D01*
G01X6492Y52617D01*
G01X6464Y52573D01*
G01X6438Y52529D01*
G01X6415Y52484D01*
G01X6393Y52438D01*
G01X6372Y52391D01*
G01X6338Y52295D01*
G01X6325Y52246D01*
G01X6313Y52196D01*
G01X6303Y52146D01*
G01X6296Y52095D01*
G01X6290Y52045D01*
G01X6287Y51994D01*
G01X6286Y51943D01*
G01X6287Y51893D01*
G01X6290Y51843D01*
G01X6295Y51793D01*
G01X6302Y51744D01*
G01X6311Y51695D01*
G01X6323Y51646D01*
G01X6336Y51598D01*
G01X6368Y51504D01*
G01X6388Y51458D01*
G01X6408Y51413D01*
G01X6431Y51368D01*
G01X6456Y51325D01*
G01X6483Y51283D01*
G01X6511Y51241D01*
G01X6541Y51201D01*
G01X6572Y51163D01*
G01X6605Y51125D01*
G01X6675Y51055D01*
G01X6713Y51022D01*
G01X6751Y50991D01*
G01X6791Y50961D01*
G01X6833Y50933D01*
G01X6875Y50906D01*
G01X6918Y50881D01*
G01X6963Y50858D01*
G01X7008Y50838D01*
G01X7054Y50818D01*
G01X7148Y50786D01*
G01X7196Y50773D01*
G01X7245Y50761D01*
G01X7294Y50752D01*
G01X7343Y50745D01*
G01X7393Y50740D01*
G01X7443Y50737D01*
G01X7493Y50736D01*
G01X7542Y50737D01*
G01X7592Y50740D01*
G01X7642Y50745D01*
G01X7691Y50752D01*
G01X7740Y50761D01*
G01X7789Y50773D01*
G01X7837Y50786D01*
G01X7931Y50818D01*
G01X7977Y50838D01*
G01X8022Y50858D01*
G01X8067Y50881D01*
G01X8110Y50906D01*
G01X8152Y50933D01*
G01X8194Y50961D01*
G01X8234Y50991D01*
G01X8272Y51022D01*
G01X8310Y51055D01*
G01X8380Y51125D01*
G01X8413Y51163D01*
G01X8444Y51201D01*
G01X8474Y51241D01*
G01X8502Y51283D01*
G01X8529Y51325D01*
G01X8554Y51368D01*
G01X8577Y51413D01*
G01X8597Y51458D01*
G01X8617Y51504D01*
G01X8649Y51598D01*
G01X8662Y51646D01*
G01X8674Y51695D01*
G01X8683Y51744D01*
G01X8690Y51793D01*
G01X8695Y51843D01*
G01X8698Y51893D01*
G01X8699Y51943D01*
G01X8698Y51994D01*
G01X8695Y52045D01*
G01X8689Y52095D01*
G01X8682Y52146D01*
G01X8672Y52196D01*
G01X8660Y52246D01*
G01X8647Y52295D01*
G01X8613Y52391D01*
G01X8592Y52438D01*
G01X8570Y52484D01*
G01X8547Y52529D01*
G01X8521Y52573D01*
G01X8493Y52617D01*
G01X8464Y52658D01*
G01X8433Y52698D01*
G01X8400Y52738D01*
G01X8365Y52776D01*
G01X8329Y52812D01*
G01X8292Y52846D01*
G01X8253Y52879D01*
G01X8212Y52911D01*
G01X8171Y52940D01*
G01X8128Y52968D01*
G01X8084Y52994D01*
G01X8039Y53018D01*
G01X7993Y53040D01*
G01X7946Y53061D01*
G01X7898Y53079D01*
G01X7884Y53085D01*
G01X7871Y53094D01*
G01X7860Y53104D01*
G01X7850Y53116D01*
G01X7841Y53129D01*
G01X7836Y53143D01*
G01X7832Y53159D01*
G01X7831Y53174D01*
G01X7832Y53189D01*
G01X7835Y53203D01*
G01X7840Y53217D01*
G01X7847Y53229D01*
G01X7856Y53241D01*
G01X7866Y53251D01*
G01X7878Y53260D01*
G01X7890Y53267D01*
G01X7904Y53272D01*
G01X7918Y53275D01*
G01X7933Y53276D01*
G01X8442Y53276D01*
G01X8466Y53277D01*
G01X8490Y53280D01*
G01X8513Y53286D01*
G01X8535Y53293D01*
G01X8557Y53303D01*
G01X8578Y53315D01*
G01X8597Y53328D01*
G01X8615Y53343D01*
G01X8632Y53360D01*
G01X8647Y53378D01*
G01X8660Y53397D01*
G01X8672Y53418D01*
G01X8682Y53440D01*
G01X8689Y53462D01*
G01X8695Y53485D01*
G01X8698Y53509D01*
G01X8699Y53533D01*
G01X8699Y55432D01*
G01X8698Y55456D01*
G01X8695Y55480D01*
G01X8689Y55503D01*
G01X8682Y55525D01*
G01X8672Y55547D01*
G01X8660Y55568D01*
G01X8647Y55587D01*
G01X8632Y55605D01*
G01X8615Y55622D01*
G01X8597Y55637D01*
G01X8578Y55650D01*
G01X8557Y55662D01*
G01X8535Y55672D01*
G01X8513Y55679D01*
G01X8490Y55684D01*
G01X8466Y55688D01*
G01X8442Y55689D01*
G37*
G36*
G01X19110Y48939D02*
G01X18624Y48939D01*
G01X18624Y48453D01*
G01X18627Y48455D01*
G01X18669Y48476D01*
G01X18709Y48499D01*
G01X18748Y48524D01*
G01X18786Y48551D01*
G01X18823Y48579D01*
G01X18858Y48609D01*
G01X18893Y48641D01*
G01X18925Y48674D01*
G01X18957Y48708D01*
G01X18986Y48743D01*
G01X19014Y48780D01*
G01X19041Y48818D01*
G01X19066Y48857D01*
G01X19089Y48898D01*
G01X19110Y48939D01*
G37*
G36*
G01X17697Y48939D02*
G01X17211Y48939D01*
G01X17232Y48898D01*
G01X17255Y48857D01*
G01X17280Y48818D01*
G01X17307Y48780D01*
G01X17335Y48743D01*
G01X17364Y48708D01*
G01X17396Y48674D01*
G01X17428Y48641D01*
G01X17463Y48609D01*
G01X17498Y48579D01*
G01X17535Y48551D01*
G01X17573Y48524D01*
G01X17612Y48499D01*
G01X17653Y48476D01*
G01X17694Y48455D01*
G01X17697Y48453D01*
G01X17697Y48939D01*
G37*
G36*
G01X3027Y43665D02*
G01X2981Y43666D01*
G01X2936Y43665D01*
G01X2890Y43662D01*
G01X2845Y43657D01*
G01X2800Y43650D01*
G01X2755Y43640D01*
G01X2711Y43629D01*
G01X2667Y43616D01*
G01X2623Y43601D01*
G01X2581Y43584D01*
G01X2540Y43565D01*
G01X2499Y43544D01*
G01X2459Y43522D01*
G01X2420Y43498D01*
G01X2383Y43472D01*
G01X2346Y43444D01*
G01X2311Y43415D01*
G01X2277Y43384D01*
G01X2245Y43351D01*
G01X2214Y43318D01*
G01X2185Y43283D01*
G01X2157Y43246D01*
G01X2107Y43170D01*
G01X2084Y43130D01*
G01X2064Y43090D01*
G01X2045Y43048D01*
G01X2028Y43005D01*
G01X2013Y42962D01*
G01X1999Y42918D01*
G01X1988Y42874D01*
G01X1979Y42829D01*
G01X1972Y42784D01*
G01X1967Y42739D01*
G01X1964Y42693D01*
G01X1963Y42648D01*
G01X1964Y42602D01*
G01X1967Y42556D01*
G01X1972Y42511D01*
G01X1979Y42466D01*
G01X1988Y42421D01*
G01X1999Y42376D01*
G01X2013Y42333D01*
G01X2028Y42289D01*
G01X2045Y42247D01*
G01X2064Y42206D01*
G01X2084Y42165D01*
G01X2107Y42125D01*
G01X2132Y42086D01*
G01X2157Y42049D01*
G01X2185Y42013D01*
G01X2214Y41978D01*
G01X2245Y41944D01*
G01X2277Y41912D01*
G01X2311Y41881D01*
G01X2346Y41851D01*
G01X2420Y41797D01*
G01X2459Y41773D01*
G01X2499Y41750D01*
G01X2540Y41730D01*
G01X2581Y41711D01*
G01X2623Y41694D01*
G01X2667Y41679D01*
G01X2711Y41666D01*
G01X2755Y41654D01*
G01X2800Y41645D01*
G01X2845Y41638D01*
G01X2890Y41633D01*
G01X2936Y41630D01*
G01X2981Y41629D01*
G01X3027Y41630D01*
G01X3073Y41633D01*
G01X3118Y41638D01*
G01X3163Y41645D01*
G01X3208Y41654D01*
G01X3252Y41666D01*
G01X3296Y41679D01*
G01X3340Y41694D01*
G01X3382Y41711D01*
G01X3423Y41730D01*
G01X3464Y41750D01*
G01X3504Y41773D01*
G01X3543Y41797D01*
G01X3580Y41824D01*
G01X3616Y41851D01*
G01X3652Y41881D01*
G01X3686Y41912D01*
G01X3718Y41944D01*
G01X3749Y41978D01*
G01X3778Y42013D01*
G01X3805Y42049D01*
G01X3831Y42086D01*
G01X3856Y42125D01*
G01X3879Y42165D01*
G01X3899Y42206D01*
G01X3918Y42247D01*
G01X3935Y42289D01*
G01X3950Y42333D01*
G01X3963Y42376D01*
G01X3975Y42421D01*
G01X3984Y42466D01*
G01X3991Y42511D01*
G01X3996Y42556D01*
G01X3999Y42602D01*
G01X4000Y42648D01*
G01X3999Y42693D01*
G01X3996Y42739D01*
G01X3991Y42784D01*
G01X3984Y42829D01*
G01X3975Y42874D01*
G01X3963Y42918D01*
G01X3950Y42962D01*
G01X3935Y43005D01*
G01X3918Y43048D01*
G01X3899Y43090D01*
G01X3879Y43130D01*
G01X3856Y43170D01*
G01X3831Y43208D01*
G01X3805Y43246D01*
G01X3778Y43283D01*
G01X3749Y43318D01*
G01X3718Y43351D01*
G01X3686Y43384D01*
G01X3652Y43415D01*
G01X3616Y43444D01*
G01X3580Y43472D01*
G01X3543Y43498D01*
G01X3504Y43522D01*
G01X3464Y43544D01*
G01X3423Y43565D01*
G01X3382Y43584D01*
G01X3340Y43601D01*
G01X3296Y43616D01*
G01X3252Y43629D01*
G01X3208Y43640D01*
G01X3163Y43650D01*
G01X3118Y43657D01*
G01X3073Y43662D01*
G01X3027Y43665D01*
G37*
G36*
G01X2830Y19697D02*
G01X2112Y19697D01*
G01X2112Y19229D01*
G01X2152Y19231D01*
G01X2194Y19235D01*
G01X2234Y19241D01*
G01X2274Y19249D01*
G01X2314Y19259D01*
G01X2354Y19271D01*
G01X2392Y19285D01*
G01X2430Y19301D01*
G01X2467Y19319D01*
G01X2503Y19339D01*
G01X2538Y19360D01*
G01X2572Y19383D01*
G01X2605Y19408D01*
G01X2636Y19435D01*
G01X2665Y19463D01*
G01X2694Y19492D01*
G01X2721Y19523D01*
G01X2746Y19556D01*
G01X2770Y19590D01*
G01X2791Y19625D01*
G01X2812Y19661D01*
G01X2830Y19697D01*
G37*
G36*
G01X1569Y42042D02*
G01X1526Y42064D01*
G01X1526Y41592D01*
G01X1998Y41592D01*
G01X1976Y41635D01*
G01X1951Y41677D01*
G01X1925Y41718D01*
G01X1897Y41758D01*
G01X1867Y41796D01*
G01X1835Y41833D01*
G01X1802Y41868D01*
G01X1767Y41901D01*
G01X1730Y41933D01*
G01X1692Y41963D01*
G01X1652Y41991D01*
G01X1611Y42018D01*
G01X1569Y42042D01*
G37*
G36*
G01X3582Y21416D02*
G01X3548Y21417D01*
G01X3515Y21416D01*
G01X3481Y21413D01*
G01X3448Y21408D01*
G01X3415Y21401D01*
G01X3383Y21392D01*
G01X3351Y21381D01*
G01X3320Y21368D01*
G01X3290Y21353D01*
G01X3260Y21337D01*
G01X3232Y21319D01*
G01X3205Y21298D01*
G01X3180Y21277D01*
G01X3155Y21254D01*
G01X3132Y21229D01*
G01X3110Y21204D01*
G01X3090Y21176D01*
G01X3072Y21149D01*
G01X3056Y21119D01*
G01X3041Y21089D01*
G01X3028Y21058D01*
G01X3017Y21026D01*
G01X3008Y20994D01*
G01X3001Y20961D01*
G01X2996Y20928D01*
G01X2993Y20894D01*
G01X2992Y20861D01*
G01X2993Y20827D01*
G01X2996Y20793D01*
G01X3001Y20760D01*
G01X3008Y20727D01*
G01X3017Y20695D01*
G01X3028Y20663D01*
G01X3041Y20632D01*
G01X3056Y20602D01*
G01X3072Y20572D01*
G01X3090Y20545D01*
G01X3110Y20517D01*
G01X3132Y20492D01*
G01X3155Y20467D01*
G01X3180Y20444D01*
G01X3205Y20423D01*
G01X3232Y20402D01*
G01X3260Y20384D01*
G01X3290Y20368D01*
G01X3320Y20353D01*
G01X3351Y20340D01*
G01X3383Y20329D01*
G01X3415Y20320D01*
G01X3448Y20313D01*
G01X3481Y20308D01*
G01X3515Y20305D01*
G01X3548Y20304D01*
G01X3582Y20305D01*
G01X3615Y20308D01*
G01X3648Y20313D01*
G01X3681Y20320D01*
G01X3714Y20329D01*
G01X3745Y20340D01*
G01X3777Y20353D01*
G01X3807Y20368D01*
G01X3836Y20384D01*
G01X3864Y20402D01*
G01X3892Y20423D01*
G01X3917Y20444D01*
G01X3942Y20467D01*
G01X3965Y20492D01*
G01X3986Y20517D01*
G01X4007Y20545D01*
G01X4025Y20572D01*
G01X4041Y20602D01*
G01X4056Y20632D01*
G01X4069Y20663D01*
G01X4080Y20695D01*
G01X4089Y20727D01*
G01X4096Y20760D01*
G01X4101Y20793D01*
G01X4104Y20827D01*
G01X4105Y20861D01*
G01X4104Y20894D01*
G01X4101Y20928D01*
G01X4096Y20961D01*
G01X4089Y20994D01*
G01X4080Y21026D01*
G01X4069Y21058D01*
G01X4056Y21089D01*
G01X4041Y21119D01*
G01X4025Y21149D01*
G01X4007Y21176D01*
G01X3986Y21204D01*
G01X3965Y21229D01*
G01X3942Y21254D01*
G01X3917Y21277D01*
G01X3892Y21298D01*
G01X3864Y21319D01*
G01X3836Y21337D01*
G01X3807Y21353D01*
G01X3777Y21368D01*
G01X3745Y21381D01*
G01X3714Y21392D01*
G01X3681Y21401D01*
G01X3648Y21408D01*
G01X3615Y21413D01*
G01X3582Y21416D01*
G37*
G36*
G01X2152Y20840D02*
G01X2112Y20842D01*
G01X2112Y20374D01*
G01X2830Y20374D01*
G01X2812Y20411D01*
G01X2791Y20447D01*
G01X2770Y20482D01*
G01X2746Y20516D01*
G01X2721Y20548D01*
G01X2694Y20579D01*
G01X2665Y20609D01*
G01X2636Y20636D01*
G01X2605Y20663D01*
G01X2572Y20688D01*
G01X2538Y20712D01*
G01X2503Y20733D01*
G01X2467Y20753D01*
G01X2430Y20771D01*
G01X2392Y20787D01*
G01X2354Y20801D01*
G01X2314Y20813D01*
G01X2234Y20831D01*
G01X2194Y20837D01*
G01X2152Y20840D01*
G37*
G36*
G01X1998Y40703D02*
G01X1526Y40703D01*
G01X1526Y40231D01*
G01X1569Y40253D01*
G01X1611Y40278D01*
G01X1652Y40304D01*
G01X1692Y40332D01*
G01X1730Y40362D01*
G01X1767Y40394D01*
G01X1802Y40428D01*
G01X1835Y40463D01*
G01X1867Y40499D01*
G01X1897Y40537D01*
G01X1925Y40577D01*
G01X1951Y40618D01*
G01X1976Y40660D01*
G01X1998Y40703D01*
G37*
G36*
G01X3469Y40541D02*
G01X3426Y40564D01*
G01X3426Y40092D01*
G01X3898Y40092D01*
G01X3876Y40135D01*
G01X3851Y40177D01*
G01X3825Y40218D01*
G01X3797Y40257D01*
G01X3767Y40296D01*
G01X3735Y40333D01*
G01X3702Y40368D01*
G01X3667Y40401D01*
G01X3630Y40433D01*
G01X3592Y40463D01*
G01X3552Y40491D01*
G01X3511Y40518D01*
G01X3469Y40541D01*
G37*
G36*
G01X2537Y40092D02*
G01X2537Y40564D01*
G01X2494Y40541D01*
G01X2452Y40518D01*
G01X2411Y40491D01*
G01X2371Y40463D01*
G01X2333Y40433D01*
G01X2296Y40401D01*
G01X2261Y40368D01*
G01X2228Y40333D01*
G01X2196Y40296D01*
G01X2166Y40257D01*
G01X2138Y40218D01*
G01X2112Y40177D01*
G01X2087Y40135D01*
G01X2065Y40092D01*
G01X2537Y40092D01*
G37*
G36*
G01X3582Y25416D02*
G01X3548Y25417D01*
G01X3515Y25416D01*
G01X3481Y25413D01*
G01X3448Y25408D01*
G01X3415Y25401D01*
G01X3383Y25392D01*
G01X3351Y25381D01*
G01X3320Y25368D01*
G01X3290Y25353D01*
G01X3260Y25337D01*
G01X3232Y25319D01*
G01X3205Y25298D01*
G01X3180Y25277D01*
G01X3155Y25254D01*
G01X3132Y25229D01*
G01X3110Y25204D01*
G01X3090Y25176D01*
G01X3072Y25149D01*
G01X3056Y25119D01*
G01X3041Y25089D01*
G01X3028Y25058D01*
G01X3017Y25026D01*
G01X3008Y24994D01*
G01X3001Y24961D01*
G01X2996Y24928D01*
G01X2993Y24894D01*
G01X2992Y24861D01*
G01X2993Y24827D01*
G01X2996Y24793D01*
G01X3001Y24760D01*
G01X3008Y24727D01*
G01X3017Y24695D01*
G01X3028Y24663D01*
G01X3041Y24632D01*
G01X3056Y24602D01*
G01X3072Y24572D01*
G01X3090Y24545D01*
G01X3110Y24517D01*
G01X3132Y24492D01*
G01X3155Y24467D01*
G01X3180Y24444D01*
G01X3205Y24423D01*
G01X3232Y24402D01*
G01X3260Y24384D01*
G01X3290Y24368D01*
G01X3320Y24353D01*
G01X3351Y24340D01*
G01X3383Y24329D01*
G01X3415Y24320D01*
G01X3448Y24313D01*
G01X3481Y24308D01*
G01X3515Y24305D01*
G01X3548Y24304D01*
G01X3582Y24305D01*
G01X3615Y24308D01*
G01X3648Y24313D01*
G01X3681Y24320D01*
G01X3714Y24329D01*
G01X3745Y24340D01*
G01X3777Y24353D01*
G01X3807Y24368D01*
G01X3836Y24384D01*
G01X3864Y24402D01*
G01X3892Y24423D01*
G01X3917Y24444D01*
G01X3942Y24467D01*
G01X3965Y24492D01*
G01X3986Y24517D01*
G01X4007Y24545D01*
G01X4025Y24572D01*
G01X4041Y24602D01*
G01X4056Y24632D01*
G01X4069Y24663D01*
G01X4080Y24695D01*
G01X4089Y24727D01*
G01X4096Y24760D01*
G01X4101Y24793D01*
G01X4104Y24827D01*
G01X4105Y24861D01*
G01X4104Y24894D01*
G01X4101Y24928D01*
G01X4096Y24961D01*
G01X4089Y24994D01*
G01X4080Y25026D01*
G01X4069Y25058D01*
G01X4056Y25089D01*
G01X4041Y25119D01*
G01X4025Y25149D01*
G01X4007Y25176D01*
G01X3986Y25204D01*
G01X3965Y25229D01*
G01X3942Y25254D01*
G01X3917Y25277D01*
G01X3892Y25298D01*
G01X3864Y25319D01*
G01X3836Y25337D01*
G01X3807Y25353D01*
G01X3777Y25368D01*
G01X3745Y25381D01*
G01X3714Y25392D01*
G01X3681Y25401D01*
G01X3648Y25408D01*
G01X3615Y25413D01*
G01X3582Y25416D01*
G37*
G36*
G01X2830Y25347D02*
G01X2112Y25347D01*
G01X2112Y24879D01*
G01X2153Y24881D01*
G01X2194Y24885D01*
G01X2234Y24890D01*
G01X2275Y24899D01*
G01X2314Y24909D01*
G01X2354Y24920D01*
G01X2430Y24950D01*
G01X2467Y24969D01*
G01X2503Y24988D01*
G01X2538Y25010D01*
G01X2572Y25033D01*
G01X2605Y25058D01*
G01X2636Y25085D01*
G01X2666Y25113D01*
G01X2694Y25142D01*
G01X2721Y25173D01*
G01X2746Y25206D01*
G01X2770Y25239D01*
G01X2792Y25275D01*
G01X2812Y25310D01*
G01X2830Y25347D01*
G37*
G36*
G01X3898Y39203D02*
G01X3426Y39203D01*
G01X3426Y38731D01*
G01X3469Y38753D01*
G01X3511Y38778D01*
G01X3552Y38804D01*
G01X3592Y38832D01*
G01X3630Y38862D01*
G01X3667Y38894D01*
G01X3702Y38928D01*
G01X3735Y38963D01*
G01X3767Y38999D01*
G01X3797Y39037D01*
G01X3825Y39077D01*
G01X3851Y39118D01*
G01X3876Y39160D01*
G01X3898Y39203D01*
G37*
G36*
G01X2153Y26490D02*
G01X2112Y26492D01*
G01X2112Y26024D01*
G01X2830Y26024D01*
G01X2812Y26061D01*
G01X2792Y26097D01*
G01X2770Y26132D01*
G01X2746Y26165D01*
G01X2721Y26198D01*
G01X2694Y26229D01*
G01X2666Y26259D01*
G01X2636Y26286D01*
G01X2605Y26313D01*
G01X2572Y26338D01*
G01X2538Y26361D01*
G01X2503Y26383D01*
G01X2467Y26403D01*
G01X2430Y26421D01*
G01X2354Y26451D01*
G01X2314Y26463D01*
G01X2275Y26472D01*
G01X2234Y26481D01*
G01X2194Y26487D01*
G01X2153Y26490D01*
G37*
G36*
G01X2537Y39203D02*
G01X2065Y39203D01*
G01X2087Y39160D01*
G01X2112Y39118D01*
G01X2138Y39077D01*
G01X2166Y39037D01*
G01X2196Y38999D01*
G01X2228Y38963D01*
G01X2261Y38928D01*
G01X2296Y38894D01*
G01X2333Y38862D01*
G01X2371Y38832D01*
G01X2411Y38804D01*
G01X2452Y38778D01*
G01X2494Y38753D01*
G01X2537Y38731D01*
G01X2537Y39203D01*
G37*
G36*
G01X2537Y30948D02*
G01X2065Y30948D01*
G01X2087Y30905D01*
G01X2112Y30863D01*
G01X2138Y30822D01*
G01X2166Y30782D01*
G01X2196Y30744D01*
G01X2228Y30708D01*
G01X2261Y30673D01*
G01X2296Y30639D01*
G01X2333Y30607D01*
G01X2371Y30577D01*
G01X2411Y30549D01*
G01X2452Y30523D01*
G01X2494Y30498D01*
G01X2537Y30476D01*
G01X2537Y30948D01*
G37*
G36*
G01X3898Y30948D02*
G01X3426Y30948D01*
G01X3426Y30476D01*
G01X3469Y30498D01*
G01X3511Y30523D01*
G01X3552Y30549D01*
G01X3592Y30577D01*
G01X3630Y30607D01*
G01X3667Y30639D01*
G01X3702Y30673D01*
G01X3735Y30708D01*
G01X3767Y30744D01*
G01X3797Y30782D01*
G01X3825Y30822D01*
G01X3851Y30863D01*
G01X3876Y30905D01*
G01X3898Y30948D01*
G37*
G36*
G01X3469Y32286D02*
G01X3426Y32309D01*
G01X3426Y31837D01*
G01X3898Y31837D01*
G01X3876Y31880D01*
G01X3851Y31922D01*
G01X3825Y31963D01*
G01X3797Y32002D01*
G01X3767Y32041D01*
G01X3735Y32078D01*
G01X3702Y32113D01*
G01X3667Y32146D01*
G01X3630Y32178D01*
G01X3592Y32208D01*
G01X3552Y32236D01*
G01X3511Y32263D01*
G01X3469Y32286D01*
G37*
G36*
G01X2537Y31837D02*
G01X2537Y32309D01*
G01X2494Y32286D01*
G01X2452Y32263D01*
G01X2411Y32236D01*
G01X2371Y32208D01*
G01X2333Y32178D01*
G01X2296Y32146D01*
G01X2261Y32113D01*
G01X2228Y32078D01*
G01X2196Y32041D01*
G01X2166Y32002D01*
G01X2138Y31963D01*
G01X2112Y31922D01*
G01X2087Y31880D01*
G01X2065Y31837D01*
G01X2537Y31837D01*
G37*
G36*
G01X1998Y32448D02*
G01X1526Y32448D01*
G01X1526Y31976D01*
G01X1569Y31998D01*
G01X1611Y32023D01*
G01X1652Y32049D01*
G01X1692Y32077D01*
G01X1730Y32107D01*
G01X1767Y32139D01*
G01X1802Y32173D01*
G01X1835Y32208D01*
G01X1867Y32244D01*
G01X1897Y32282D01*
G01X1925Y32322D01*
G01X1951Y32363D01*
G01X1976Y32405D01*
G01X1998Y32448D01*
G37*
G36*
G01X3027Y35410D02*
G01X2981Y35411D01*
G01X2936Y35410D01*
G01X2890Y35407D01*
G01X2845Y35402D01*
G01X2800Y35395D01*
G01X2755Y35385D01*
G01X2711Y35374D01*
G01X2667Y35361D01*
G01X2623Y35346D01*
G01X2581Y35329D01*
G01X2540Y35310D01*
G01X2499Y35289D01*
G01X2459Y35267D01*
G01X2420Y35243D01*
G01X2383Y35217D01*
G01X2346Y35189D01*
G01X2311Y35160D01*
G01X2277Y35129D01*
G01X2245Y35096D01*
G01X2214Y35063D01*
G01X2185Y35028D01*
G01X2157Y34991D01*
G01X2107Y34915D01*
G01X2084Y34875D01*
G01X2064Y34835D01*
G01X2045Y34793D01*
G01X2028Y34750D01*
G01X2013Y34707D01*
G01X1999Y34663D01*
G01X1988Y34619D01*
G01X1979Y34574D01*
G01X1972Y34529D01*
G01X1967Y34484D01*
G01X1964Y34438D01*
G01X1963Y34393D01*
G01X1964Y34347D01*
G01X1967Y34301D01*
G01X1972Y34256D01*
G01X1979Y34211D01*
G01X1988Y34166D01*
G01X1999Y34121D01*
G01X2013Y34078D01*
G01X2028Y34034D01*
G01X2045Y33992D01*
G01X2064Y33951D01*
G01X2084Y33910D01*
G01X2107Y33870D01*
G01X2132Y33831D01*
G01X2157Y33794D01*
G01X2185Y33758D01*
G01X2214Y33723D01*
G01X2245Y33689D01*
G01X2277Y33657D01*
G01X2311Y33626D01*
G01X2346Y33596D01*
G01X2420Y33542D01*
G01X2459Y33518D01*
G01X2499Y33495D01*
G01X2540Y33475D01*
G01X2581Y33456D01*
G01X2623Y33439D01*
G01X2667Y33424D01*
G01X2711Y33411D01*
G01X2755Y33399D01*
G01X2800Y33390D01*
G01X2845Y33383D01*
G01X2890Y33378D01*
G01X2936Y33375D01*
G01X2981Y33374D01*
G01X3027Y33375D01*
G01X3073Y33378D01*
G01X3118Y33383D01*
G01X3163Y33390D01*
G01X3208Y33399D01*
G01X3252Y33411D01*
G01X3296Y33424D01*
G01X3340Y33439D01*
G01X3382Y33456D01*
G01X3423Y33475D01*
G01X3464Y33495D01*
G01X3504Y33518D01*
G01X3543Y33542D01*
G01X3580Y33569D01*
G01X3616Y33596D01*
G01X3652Y33626D01*
G01X3686Y33657D01*
G01X3718Y33689D01*
G01X3749Y33723D01*
G01X3778Y33758D01*
G01X3805Y33794D01*
G01X3831Y33831D01*
G01X3856Y33870D01*
G01X3879Y33910D01*
G01X3899Y33951D01*
G01X3918Y33992D01*
G01X3935Y34034D01*
G01X3950Y34078D01*
G01X3963Y34121D01*
G01X3975Y34166D01*
G01X3984Y34211D01*
G01X3991Y34256D01*
G01X3996Y34301D01*
G01X3999Y34347D01*
G01X4000Y34393D01*
G01X3999Y34438D01*
G01X3996Y34484D01*
G01X3991Y34529D01*
G01X3984Y34574D01*
G01X3975Y34619D01*
G01X3963Y34663D01*
G01X3950Y34707D01*
G01X3935Y34750D01*
G01X3918Y34793D01*
G01X3899Y34835D01*
G01X3879Y34875D01*
G01X3856Y34915D01*
G01X3831Y34953D01*
G01X3805Y34991D01*
G01X3778Y35028D01*
G01X3749Y35063D01*
G01X3718Y35096D01*
G01X3686Y35129D01*
G01X3652Y35160D01*
G01X3616Y35189D01*
G01X3580Y35217D01*
G01X3543Y35243D01*
G01X3504Y35267D01*
G01X3464Y35289D01*
G01X3423Y35310D01*
G01X3382Y35329D01*
G01X3340Y35346D01*
G01X3296Y35361D01*
G01X3252Y35374D01*
G01X3208Y35385D01*
G01X3163Y35395D01*
G01X3118Y35402D01*
G01X3073Y35407D01*
G01X3027Y35410D01*
G37*
G36*
G01X1569Y33787D02*
G01X1526Y33809D01*
G01X1526Y33337D01*
G01X1998Y33337D01*
G01X1976Y33380D01*
G01X1951Y33422D01*
G01X1925Y33463D01*
G01X1897Y33503D01*
G01X1867Y33541D01*
G01X1835Y33578D01*
G01X1802Y33613D01*
G01X1767Y33646D01*
G01X1730Y33678D01*
G01X1692Y33708D01*
G01X1652Y33736D01*
G01X1611Y33763D01*
G01X1569Y33787D01*
G37*

%LPD*%
G36*
G01X68221Y14605D02*
G01X55600Y14605D01*
G01X55586Y14603D01*
G01X55572Y14600D01*
G01X55558Y14595D01*
G01X55545Y14588D01*
G01X55534Y14580D01*
G01X55523Y14569D01*
G01X55515Y14558D01*
G01X55508Y14545D01*
G01X55503Y14531D01*
G01X55500Y14517D01*
G01X55499Y14503D01*
G01X55499Y3530D01*
G01X55500Y3516D01*
G01X55503Y3502D01*
G01X55508Y3488D01*
G01X55515Y3475D01*
G01X55523Y3464D01*
G01X55534Y3453D01*
G01X55545Y3445D01*
G01X55558Y3438D01*
G01X55572Y3433D01*
G01X55586Y3430D01*
G01X55600Y3429D01*
G01X68221Y3429D01*
G01X68236Y3430D01*
G01X68250Y3433D01*
G01X68264Y3438D01*
G01X68276Y3445D01*
G01X68288Y3453D01*
G01X68298Y3464D01*
G01X68307Y3475D01*
G01X68314Y3488D01*
G01X68319Y3502D01*
G01X68322Y3516D01*
G01X68323Y3530D01*
G01X68323Y14503D01*
G01X68322Y14517D01*
G01X68319Y14531D01*
G01X68314Y14545D01*
G01X68307Y14558D01*
G01X68298Y14569D01*
G01X68288Y14580D01*
G01X68276Y14588D01*
G01X68264Y14595D01*
G01X68250Y14600D01*
G01X68236Y14603D01*
G01X68221Y14605D01*
G37*

%LPC*%
G36*
G01X66144Y8396D02*
G01X65542Y8396D01*
G01X65542Y7795D01*
G01X65590Y7820D01*
G01X65637Y7848D01*
G01X65682Y7877D01*
G01X65727Y7908D01*
G01X65770Y7940D01*
G01X65811Y7974D01*
G01X65852Y8010D01*
G01X65891Y8048D01*
G01X65928Y8086D01*
G01X65964Y8127D01*
G01X65998Y8169D01*
G01X66031Y8212D01*
G01X66062Y8256D01*
G01X66091Y8302D01*
G01X66118Y8348D01*
G01X66144Y8396D01*
G37*
G36*
G01X64302Y9637D02*
G01X64302Y10238D01*
G01X64254Y10213D01*
G01X64207Y10185D01*
G01X64161Y10156D01*
G01X64117Y10125D01*
G01X64074Y10093D01*
G01X64032Y10059D01*
G01X63992Y10023D01*
G01X63953Y9985D01*
G01X63916Y9947D01*
G01X63879Y9906D01*
G01X63845Y9864D01*
G01X63813Y9821D01*
G01X63782Y9777D01*
G01X63753Y9731D01*
G01X63726Y9685D01*
G01X63700Y9637D01*
G01X64302Y9637D01*
G37*
G36*
G01X65590Y10213D02*
G01X65542Y10238D01*
G01X65542Y9637D01*
G01X66144Y9637D01*
G01X66118Y9685D01*
G01X66091Y9731D01*
G01X66062Y9777D01*
G01X66031Y9821D01*
G01X65998Y9864D01*
G01X65964Y9906D01*
G01X65928Y9947D01*
G01X65891Y9985D01*
G01X65852Y10023D01*
G01X65811Y10059D01*
G01X65770Y10093D01*
G01X65727Y10125D01*
G01X65682Y10156D01*
G01X65637Y10185D01*
G01X65590Y10213D01*
G37*
G36*
G01X57545Y7097D02*
G01X57545Y7698D01*
G01X57497Y7673D01*
G01X57451Y7645D01*
G01X57405Y7616D01*
G01X57361Y7585D01*
G01X57318Y7553D01*
G01X57276Y7519D01*
G01X57235Y7483D01*
G01X57159Y7407D01*
G01X57123Y7366D01*
G01X57089Y7324D01*
G01X57057Y7281D01*
G01X57026Y7237D01*
G01X56997Y7191D01*
G01X56969Y7145D01*
G01X56944Y7097D01*
G01X57545Y7097D01*
G37*
G36*
G01X58834Y7673D02*
G01X58786Y7698D01*
G01X58786Y7097D01*
G01X59387Y7097D01*
G01X59362Y7145D01*
G01X59334Y7191D01*
G01X59305Y7237D01*
G01X59274Y7281D01*
G01X59242Y7324D01*
G01X59208Y7366D01*
G01X59172Y7407D01*
G01X59096Y7483D01*
G01X59055Y7519D01*
G01X59013Y7553D01*
G01X58970Y7585D01*
G01X58926Y7616D01*
G01X58880Y7645D01*
G01X58834Y7673D01*
G37*
G36*
G01X59387Y10936D02*
G01X58786Y10936D01*
G01X58786Y10335D01*
G01X58834Y10360D01*
G01X58880Y10388D01*
G01X58926Y10417D01*
G01X58970Y10448D01*
G01X59013Y10480D01*
G01X59055Y10514D01*
G01X59096Y10550D01*
G01X59172Y10626D01*
G01X59208Y10667D01*
G01X59242Y10709D01*
G01X59274Y10752D01*
G01X59305Y10796D01*
G01X59334Y10842D01*
G01X59362Y10888D01*
G01X59387Y10936D01*
G37*
G36*
G01X64302Y8396D02*
G01X63700Y8396D01*
G01X63726Y8348D01*
G01X63753Y8302D01*
G01X63782Y8256D01*
G01X63813Y8212D01*
G01X63845Y8169D01*
G01X63879Y8127D01*
G01X63916Y8086D01*
G01X63953Y8048D01*
G01X63992Y8010D01*
G01X64032Y7974D01*
G01X64074Y7940D01*
G01X64117Y7908D01*
G01X64161Y7877D01*
G01X64207Y7848D01*
G01X64254Y7820D01*
G01X64302Y7795D01*
G01X64302Y8396D01*
G37*
G36*
G01X59387Y5856D02*
G01X58786Y5856D01*
G01X58786Y5255D01*
G01X58834Y5280D01*
G01X58880Y5308D01*
G01X58926Y5337D01*
G01X58970Y5368D01*
G01X59013Y5400D01*
G01X59055Y5434D01*
G01X59096Y5470D01*
G01X59172Y5546D01*
G01X59208Y5587D01*
G01X59242Y5629D01*
G01X59274Y5672D01*
G01X59305Y5716D01*
G01X59334Y5762D01*
G01X59362Y5808D01*
G01X59387Y5856D01*
G37*
G36*
G01X57545Y5856D02*
G01X56944Y5856D01*
G01X56969Y5808D01*
G01X56997Y5762D01*
G01X57026Y5716D01*
G01X57057Y5672D01*
G01X57089Y5629D01*
G01X57123Y5587D01*
G01X57159Y5546D01*
G01X57235Y5470D01*
G01X57276Y5434D01*
G01X57318Y5400D01*
G01X57361Y5368D01*
G01X57405Y5337D01*
G01X57451Y5308D01*
G01X57497Y5280D01*
G01X57545Y5255D01*
G01X57545Y5856D01*
G37*
G36*
G01X58834Y12753D02*
G01X58786Y12778D01*
G01X58786Y12177D01*
G01X59387Y12177D01*
G01X59362Y12225D01*
G01X59334Y12271D01*
G01X59305Y12317D01*
G01X59274Y12361D01*
G01X59242Y12404D01*
G01X59208Y12446D01*
G01X59172Y12487D01*
G01X59096Y12563D01*
G01X59055Y12599D01*
G01X59013Y12633D01*
G01X58970Y12665D01*
G01X58926Y12696D01*
G01X58880Y12725D01*
G01X58834Y12753D01*
G37*
G36*
G01X57545Y12177D02*
G01X57545Y12778D01*
G01X57497Y12753D01*
G01X57451Y12725D01*
G01X57405Y12696D01*
G01X57361Y12665D01*
G01X57318Y12633D01*
G01X57276Y12599D01*
G01X57235Y12563D01*
G01X57159Y12487D01*
G01X57123Y12446D01*
G01X57089Y12404D01*
G01X57057Y12361D01*
G01X57026Y12317D01*
G01X56997Y12271D01*
G01X56969Y12225D01*
G01X56944Y12177D01*
G01X57545Y12177D01*
G37*
G36*
G01X57545Y10936D02*
G01X56944Y10936D01*
G01X56969Y10888D01*
G01X56997Y10842D01*
G01X57026Y10796D01*
G01X57057Y10752D01*
G01X57089Y10709D01*
G01X57123Y10667D01*
G01X57159Y10626D01*
G01X57235Y10550D01*
G01X57276Y10514D01*
G01X57318Y10480D01*
G01X57361Y10448D01*
G01X57405Y10417D01*
G01X57451Y10388D01*
G01X57497Y10360D01*
G01X57545Y10335D01*
G01X57545Y10936D01*
G37*

%LPD*%
G36*
G01X12979Y14605D02*
G01X358Y14605D01*
G01X343Y14603D01*
G01X329Y14600D01*
G01X315Y14595D01*
G01X303Y14588D01*
G01X291Y14580D01*
G01X281Y14569D01*
G01X272Y14558D01*
G01X265Y14545D01*
G01X260Y14531D01*
G01X257Y14517D01*
G01X256Y14503D01*
G01X256Y3530D01*
G01X257Y3516D01*
G01X260Y3502D01*
G01X265Y3488D01*
G01X272Y3475D01*
G01X281Y3464D01*
G01X291Y3453D01*
G01X303Y3445D01*
G01X315Y3438D01*
G01X329Y3433D01*
G01X343Y3430D01*
G01X358Y3429D01*
G01X12979Y3429D01*
G01X12993Y3430D01*
G01X13007Y3433D01*
G01X13021Y3438D01*
G01X13034Y3445D01*
G01X13045Y3453D01*
G01X13056Y3464D01*
G01X13064Y3475D01*
G01X13071Y3488D01*
G01X13076Y3502D01*
G01X13079Y3516D01*
G01X13081Y3530D01*
G01X13081Y14503D01*
G01X13079Y14517D01*
G01X13076Y14531D01*
G01X13071Y14545D01*
G01X13064Y14558D01*
G01X13056Y14569D01*
G01X13045Y14580D01*
G01X13034Y14588D01*
G01X13021Y14595D01*
G01X13007Y14600D01*
G01X12993Y14603D01*
G01X12979Y14605D01*
G37*

%LPC*%
G36*
G01X4325Y10213D02*
G01X4277Y10238D01*
G01X4277Y9637D01*
G01X4879Y9637D01*
G01X4853Y9685D01*
G01X4826Y9731D01*
G01X4797Y9777D01*
G01X4766Y9821D01*
G01X4734Y9864D01*
G01X4700Y9906D01*
G01X4663Y9947D01*
G01X4626Y9985D01*
G01X4587Y10023D01*
G01X4547Y10059D01*
G01X4505Y10093D01*
G01X4462Y10125D01*
G01X4418Y10156D01*
G01X4372Y10185D01*
G01X4325Y10213D01*
G37*
G36*
G01X11635Y5856D02*
G01X11034Y5856D01*
G01X11034Y5255D01*
G01X11082Y5280D01*
G01X11128Y5308D01*
G01X11174Y5337D01*
G01X11218Y5368D01*
G01X11261Y5400D01*
G01X11303Y5434D01*
G01X11344Y5470D01*
G01X11420Y5546D01*
G01X11456Y5587D01*
G01X11490Y5629D01*
G01X11522Y5672D01*
G01X11553Y5716D01*
G01X11582Y5762D01*
G01X11610Y5808D01*
G01X11635Y5856D01*
G37*
G36*
G01X11082Y12753D02*
G01X11034Y12778D01*
G01X11034Y12177D01*
G01X11635Y12177D01*
G01X11610Y12225D01*
G01X11582Y12271D01*
G01X11553Y12317D01*
G01X11522Y12361D01*
G01X11490Y12404D01*
G01X11456Y12446D01*
G01X11420Y12487D01*
G01X11344Y12563D01*
G01X11303Y12599D01*
G01X11261Y12633D01*
G01X11218Y12665D01*
G01X11174Y12696D01*
G01X11128Y12725D01*
G01X11082Y12753D01*
G37*
G36*
G01X9793Y12177D02*
G01X9793Y12778D01*
G01X9745Y12753D01*
G01X9699Y12725D01*
G01X9653Y12696D01*
G01X9609Y12665D01*
G01X9566Y12633D01*
G01X9524Y12599D01*
G01X9483Y12563D01*
G01X9407Y12487D01*
G01X9371Y12446D01*
G01X9337Y12404D01*
G01X9305Y12361D01*
G01X9274Y12317D01*
G01X9245Y12271D01*
G01X9217Y12225D01*
G01X9192Y12177D01*
G01X9793Y12177D01*
G37*
G36*
G01X9793Y7097D02*
G01X9793Y7698D01*
G01X9745Y7673D01*
G01X9699Y7645D01*
G01X9653Y7616D01*
G01X9609Y7585D01*
G01X9566Y7553D01*
G01X9524Y7519D01*
G01X9483Y7483D01*
G01X9407Y7407D01*
G01X9371Y7366D01*
G01X9337Y7324D01*
G01X9305Y7281D01*
G01X9274Y7237D01*
G01X9245Y7191D01*
G01X9217Y7145D01*
G01X9192Y7097D01*
G01X9793Y7097D01*
G37*
G36*
G01X11082Y7673D02*
G01X11034Y7698D01*
G01X11034Y7097D01*
G01X11635Y7097D01*
G01X11610Y7145D01*
G01X11582Y7191D01*
G01X11553Y7237D01*
G01X11522Y7281D01*
G01X11490Y7324D01*
G01X11456Y7366D01*
G01X11420Y7407D01*
G01X11344Y7483D01*
G01X11303Y7519D01*
G01X11261Y7553D01*
G01X11218Y7585D01*
G01X11174Y7616D01*
G01X11128Y7645D01*
G01X11082Y7673D01*
G37*
G36*
G01X9793Y10936D02*
G01X9192Y10936D01*
G01X9217Y10888D01*
G01X9245Y10842D01*
G01X9274Y10796D01*
G01X9305Y10752D01*
G01X9337Y10709D01*
G01X9371Y10667D01*
G01X9407Y10626D01*
G01X9483Y10550D01*
G01X9524Y10514D01*
G01X9566Y10480D01*
G01X9609Y10448D01*
G01X9653Y10417D01*
G01X9699Y10388D01*
G01X9745Y10360D01*
G01X9793Y10335D01*
G01X9793Y10936D01*
G37*
G36*
G01X11635Y10936D02*
G01X11034Y10936D01*
G01X11034Y10335D01*
G01X11082Y10360D01*
G01X11128Y10388D01*
G01X11174Y10417D01*
G01X11218Y10448D01*
G01X11261Y10480D01*
G01X11303Y10514D01*
G01X11344Y10550D01*
G01X11420Y10626D01*
G01X11456Y10667D01*
G01X11490Y10709D01*
G01X11522Y10752D01*
G01X11553Y10796D01*
G01X11582Y10842D01*
G01X11610Y10888D01*
G01X11635Y10936D01*
G37*
G36*
G01X4879Y8396D02*
G01X4277Y8396D01*
G01X4277Y7795D01*
G01X4325Y7820D01*
G01X4372Y7848D01*
G01X4418Y7877D01*
G01X4462Y7908D01*
G01X4505Y7940D01*
G01X4547Y7974D01*
G01X4587Y8010D01*
G01X4626Y8048D01*
G01X4663Y8086D01*
G01X4700Y8127D01*
G01X4734Y8169D01*
G01X4766Y8212D01*
G01X4797Y8256D01*
G01X4826Y8302D01*
G01X4853Y8348D01*
G01X4879Y8396D01*
G37*
G36*
G01X3037Y8396D02*
G01X2435Y8396D01*
G01X2461Y8348D01*
G01X2488Y8302D01*
G01X2517Y8256D01*
G01X2548Y8212D01*
G01X2581Y8169D01*
G01X2615Y8127D01*
G01X2651Y8086D01*
G01X2688Y8048D01*
G01X2727Y8010D01*
G01X2768Y7974D01*
G01X2809Y7940D01*
G01X2852Y7908D01*
G01X2897Y7877D01*
G01X2942Y7848D01*
G01X2989Y7820D01*
G01X3037Y7795D01*
G01X3037Y8396D01*
G37*
G36*
G01X3037Y9637D02*
G01X3037Y10238D01*
G01X2989Y10213D01*
G01X2942Y10185D01*
G01X2897Y10156D01*
G01X2852Y10125D01*
G01X2809Y10093D01*
G01X2768Y10059D01*
G01X2727Y10023D01*
G01X2688Y9985D01*
G01X2651Y9947D01*
G01X2615Y9906D01*
G01X2581Y9864D01*
G01X2548Y9821D01*
G01X2517Y9777D01*
G01X2488Y9731D01*
G01X2461Y9685D01*
G01X2435Y9637D01*
G01X3037Y9637D01*
G37*
G36*
G01X9793Y5856D02*
G01X9192Y5856D01*
G01X9217Y5808D01*
G01X9245Y5762D01*
G01X9274Y5716D01*
G01X9305Y5672D01*
G01X9337Y5629D01*
G01X9371Y5587D01*
G01X9407Y5546D01*
G01X9483Y5470D01*
G01X9524Y5434D01*
G01X9566Y5400D01*
G01X9609Y5368D01*
G01X9653Y5337D01*
G01X9699Y5308D01*
G01X9745Y5280D01*
G01X9793Y5255D01*
G01X9793Y5856D01*
G37*

%LPD*%
G54D10*
G01X28702Y34036D02*
G01X28702Y33909D01*
G01X40640Y21971D01*
G01X47371Y21971D01*
G01X25781Y42545D02*
G01X4826Y42545D01*
G01X41275Y23241D02*
G01X29464Y35052D01*
G01X29464Y40767D01*
G01X29464Y34036D02*
G01X40894Y22606D01*
G01X48895Y22606D01*
G01X49530Y21971D01*
G01X55372Y21971D01*
G01X42164Y23241D02*
G01X30226Y35179D01*
G01X30226Y40767D01*
G01X28702Y41402D02*
G01X30480Y41402D01*
G01X30861Y41021D01*
G01X30861Y35433D01*
G01X43053Y23241D01*
G01X60198Y23241D01*
G01X62865Y25908D01*
G01X15621Y49403D02*
G01X17145Y47879D01*
G01X21082Y47879D01*
G01X32385Y37211D02*
G01X32004Y37592D01*
G01X32004Y41402D01*
G01X24384Y49022D01*
G01X20955Y49022D01*
G01X18161Y51816D01*
G01X18161Y51943D01*
G01X35560Y33909D02*
G01X34671Y33909D01*
G01X31496Y37084D01*
G01X31496Y41275D01*
G01X24257Y48514D01*
G01X20701Y48514D01*
G01X18542Y50673D01*
G01X16891Y50673D01*
G01X15621Y51943D01*
G01X15621Y54483D02*
G01X16891Y53213D01*
G01X18702Y53213D01*
G01X22434Y49480D01*
G01X24560Y49480D01*
G01X33274Y37211D02*
G01X32512Y37973D01*
G01X32512Y41529D01*
G01X24554Y49486D01*
G01X17907Y20701D02*
G01X15494Y23114D01*
G01X15494Y27686D01*
G01X27686Y44196D02*
G01X26670Y43180D01*
G01X17653Y43180D01*
G54D31*
G01X2981Y42647D03*
G01X2981Y39647D03*
G01X1082Y41148D03*
G01X2981Y34392D03*
G01X2981Y31392D03*
G01X1082Y32893D03*
G54D19*
G01X48574Y20233D03*
G01X46034Y20233D03*
G01X43494Y20233D03*
G01X40954Y20233D03*
G01X51114Y20233D03*
G01X53654Y20233D03*
G01X56198Y20233D03*
G54D32*
G01X31574Y55033D03*
G01X65574Y55033D03*
G54D33*
G01X10414Y6477D03*
G01X3657Y9017D03*
G01X10414Y11557D03*
G01X58166Y11557D03*
G01X64922Y9017D03*
G01X58166Y6477D03*
G54D34*
G01X18161Y49403D03*
G01X15621Y49403D03*
G01X18161Y51943D03*
G01X15621Y51943D03*
G01X18161Y54483D03*
G54D35*
G01X15621Y54483D03*
G54D19*
G01X7493Y54483D03*
G54D36*
G01X7493Y51943D03*
G54D15*
G01X17653Y43180D03*
G01X27686Y44196D03*
G01X23622Y45720D03*
G01X38608Y41275D03*
G01X23241Y26035D03*
G01X30480Y19812D03*
G01X20193Y26035D03*
G01X20828Y54483D03*
G01X15494Y27686D03*
G01X21082Y47879D03*
G01X35560Y33909D03*
G01X33274Y37211D03*
G01X32385Y37211D03*
G01X62865Y25908D03*
G01X28702Y41402D03*
G01X30226Y40767D03*
G01X42164Y23241D03*
G01X29464Y40767D03*
G01X41275Y23241D03*
G01X4826Y42545D03*
G01X25781Y42545D03*
G01X55372Y21971D03*
G01X29464Y34036D03*
G01X47371Y21971D03*
G01X28702Y34036D03*
G01X17907Y19685D03*
G01X16383Y19685D03*
G01X16383Y18669D03*
G01X17907Y18669D03*
G01X17907Y20701D03*
G01X16383Y20701D03*
G54D37*
G01X2098Y20036D02*
G01X798Y20036D01*
G01X2098Y25686D02*
G01X798Y25686D01*
M00*
M02*
