;Layer: Drill PTH
;EasyEDA v6.3.41, 2020-05-05T11:48:15+01:00
;2ec71008dff244c88071119ef016d080,e9fa969840cb4916a94017553220f78b,10
;Gerber Generator version 0.2
M48
METRIC,LZ,000.000
;Holesize 1 = 0.305 METRIC
T01C0.305
;Holesize 2 = 0.600 METRIC
T02C0.600
;Holesize 3 = 0.901 METRIC
T03C0.901
;Holesize 4 = 0.915 METRIC
T04C0.915
;Holesize 5 = 1.000 METRIC
T05C1.000
;Holesize 6 = 1.301 METRIC
T06C1.301
;Holesize 7 = 1.829 METRIC
T07C1.829
%
G05
G90
T01
X+017653Y+043180
X+027686Y+044196
X+023622Y+045720
X+038608Y+041275
X+023241Y+026035
X+030480Y+019812
X+020193Y+026035
X+020828Y+054483
X+015494Y+027686
X+021082Y+047879
X+035560Y+033909
X+033274Y+037211
X+032385Y+037211
X+062865Y+025908
X+028702Y+041402
X+030226Y+040767
X+042164Y+023241
X+029464Y+040767
X+041275Y+023241
X+004826Y+042545
X+025781Y+042545
X+055372Y+021971
X+029464Y+034036
X+047371Y+021971
X+028702Y+034036
X+017907Y+019685
X+016383Y+019685
X+016383Y+018669
X+017907Y+018669
X+017907Y+020701
X+016383Y+020701
T02
X+000848Y+020036G85X+002048Y+020036
X+000848Y+025685G85X+002048Y+025685
T03
X+048574Y+020233
X+046034Y+020233
X+043494Y+020233
X+040954Y+020233
X+051114Y+020233
X+053654Y+020233
X+056198Y+020233
T04
X+002981Y+042647
X+002981Y+039648
X+001082Y+041148
X+002981Y+034392
X+002981Y+031393
X+001082Y+032893
T05
X+018161Y+049403
X+015621Y+049403
X+018161Y+051943
X+015621Y+051943
X+018161Y+054483
X+015621Y+054483
T06
X+007493Y+054483
X+007493Y+051943
T07
X+010414Y+006477
X+003657Y+009017
X+010414Y+011557
X+058166Y+011557
X+064922Y+009017
X+058166Y+006477
M30
